<?xml version="1.0" encoding="utf-8"?>
<!-- Generator: Adobe Illustrator 24.0.0, SVG Export Plug-In . SVG Version: 6.00 Build 0)  -->
<svg version="1.1" id="Capa_1" xmlns="http://www.w3.org/2000/svg" xmlns:xlink="http://www.w3.org/1999/xlink" x="0px" y="0px"
	 viewBox="0 0 1125.33 1365.86" style="enable-background:new 0 0 1125.33 1365.86;" xml:space="preserve">
<style type="text/css">
	.st0{fill:#BFCDD5;}
	.st1{fill:#100424;}
	.st2{fill:#33758B;}
	.st3{opacity:0.91;fill:url(#SVGID_1_);}
	.st4{fill:#FFFFFF;}
	.st5{fill:#FF4D27;}
	.st6{fill:#EF4525;}
	.st7{fill:#F3F0F1;}
	.st8{opacity:0.16;}
	.st9{opacity:0.16;fill:#100424;}
	.st10{fill:#322742;}
	.st11{fill:#9F6C38;}
	.st12{opacity:0.38;}
	.st13{opacity:0.38;fill:#100424;}
</style>
<g>
	<path class="st0" d="M52.83,889.09c60.7,159.27,232.35,240.79,384.93,287.77c78.13,24.06,145.18,45.27,224.01,22.61
		c96.83-27.83,189.53-49.57,268.03-117.62c36.52-31.66,67.04-71.4,84.59-119.2c39.89-108.64,92.98-369.01-15.97-357.03
		c-191.04,21.01-88.99-135.93-144.1-187.08c-65.68-60.96-135.4-58.06-214.2-68.14c-134-17.13-268.55,13.43-376.42,88.04
		c-94.24,65.18-190.44,159.81-220.74,283C27.68,783.58,33.63,838.73,52.83,889.09z"/>
	<path class="st0" d="M976.23,551.81c-7.12,6.01-16.42,7.93-26.73,1.59c-24.18-14.85-26.54-52.39-30.13-77.4
		c-3.95-27.47,11.9-74.6,41.96-41.82c21.08,22.99,29.68,54.81,29.12,85.27C990.24,531.35,984.82,544.56,976.23,551.81z"/>
	<g>
		<path class="st1" d="M761.95,1283.49l-381.68,37.63c-45.91,4.53-86.78-28.9-91.31-74.68l-86.38-867.86
			c-4.53-45.8,29.04-86.61,74.96-91.14l381.68-37.63c45.9-4.53,86.78,28.91,91.31,74.68l86.38,867.87
			C841.44,1238.16,807.87,1278.97,761.95,1283.49z"/>
	</g>
	<path class="st2" d="M662.08,282.78l-74,7.3c-9.92,0.98-17.14,10.16-16.11,20.5l1.32,13.38c1.03,10.34-6.19,19.53-16.11,20.5
		L412.92,358.7c-9.92,0.98-18.8-6.62-19.82-16.96l-1.32-13.38c-1.02-10.34-9.9-17.94-19.82-16.96l-26.03,2.56l-64.77,6.39
		c-32.17,3.17-55.68,31.75-52.5,63.83l84.12,845.03c3.17,32.06,31.8,55.47,63.95,52.3l380.92-37.56
		c32.16-3.17,55.67-31.75,52.5-63.83l-84.12-845.03C722.85,303.03,694.22,279.61,662.08,282.78z"/>
	<linearGradient id="SVGID_1_" gradientUnits="userSpaceOnUse" x1="498.6294" y1="304.4597" x2="515.7499" y2="698.2322">
		<stop  offset="0.0386" style="stop-color:#100424;stop-opacity:0.5"/>
		<stop  offset="1" style="stop-color:#100424;stop-opacity:0"/>
	</linearGradient>
	<path class="st3" d="M662.08,282.78l-74,7.3c-9.92,0.98-17.14,10.16-16.11,20.5l1.32,13.38c1.03,10.34-6.19,19.53-16.11,20.5
		L412.92,358.7c-9.92,0.98-18.8-6.62-19.82-16.96l-1.32-13.38c-1.02-10.34-9.9-17.94-19.82-16.96l-26.03,2.56l-64.77,6.39
		c-32.17,3.17-55.68,31.75-52.5,63.83l84.12,845.03c3.17,32.06,31.8,55.47,63.95,52.3l380.92-37.56
		c32.16-3.17,55.67-31.75,52.5-63.83l-84.12-845.03C722.85,303.03,694.22,279.61,662.08,282.78z"/>
	<g>
		<polygon class="st4" points="343.8,699.16 339.74,700.03 338.16,703.87 336.08,700.28 331.94,699.96 334.71,696.87 333.73,692.84 
			337.53,694.52 341.07,692.34 340.64,696.47 		"/>
		<polygon class="st4" points="347.2,401.15 341.46,402.39 339.23,407.81 336.28,402.73 330.43,402.28 334.35,397.92 332.97,392.22 
			338.33,394.59 343.33,391.52 342.73,397.35 		"/>
		<polygon class="st4" points="690.45,697.86 686.75,698.66 685.31,702.16 683.41,698.88 679.63,698.59 682.16,695.77 
			681.27,692.09 684.73,693.62 687.96,691.64 687.57,695.41 		"/>
		<polygon class="st4" points="276.6,502.68 272.9,503.48 271.46,506.98 269.56,503.7 265.78,503.41 268.31,500.59 267.42,496.91 
			270.88,498.44 274.11,496.46 273.72,500.23 		"/>
		<polygon class="st4" points="713.68,436.28 711.54,436.74 710.71,438.76 709.61,436.87 707.43,436.7 708.89,435.07 708.38,432.95 
			710.38,433.83 712.24,432.69 712.01,434.86 		"/>
		<polygon class="st4" points="688.6,556.25 686.47,556.71 685.63,558.73 684.54,556.84 682.36,556.67 683.82,555.04 683.3,552.92 
			685.3,553.81 687.16,552.66 686.94,554.83 		"/>
		<polygon class="st4" points="365.44,604.22 363.3,604.68 362.47,606.7 361.37,604.81 359.19,604.64 360.65,603.02 360.14,600.89 
			362.14,601.78 364,600.63 363.77,602.81 		"/>
		<polygon class="st4" points="617.96,354.03 614.26,354.83 612.82,358.33 610.92,355.05 607.14,354.76 609.67,351.94 
			608.78,348.26 612.24,349.8 615.47,347.81 615.08,351.58 		"/>
		<polygon class="st4" points="349.43,868.43 345.72,869.23 344.28,872.73 342.38,869.45 338.61,869.16 341.13,866.34 
			340.24,862.66 343.71,864.2 346.93,862.21 346.54,865.98 		"/>
	</g>
	<path class="st5" d="M755.69,242.92l-475.52-7.58c-9.43-0.15-16.96-7.92-16.81-17.35l2.87-180.12c0.15-9.43,7.92-16.96,17.35-16.81
		l475.52,7.58c9.43,0.15,16.96,7.92,16.81,17.35l-2.87,180.12C772.89,235.55,765.12,243.07,755.69,242.92z"/>
	<polygon class="st5" points="364.77,339.53 423.11,211.29 310.54,209.5 	"/>
	<g>
		<path class="st6" d="M454.12,681.88c0,0,84.91-21.17,152.85-5.26l-35.31,75.63l-61.65,3.52l-17.63-21.46L454.12,681.88z"/>
		<path class="st7" d="M983.65,1075.8c-16.47-54.56-79.35-44.29-95.71-48.59c-8.51-2.24-16.45-21.24-20.34-27.84
			c-27.7-46.96-51.55-96.26-76.71-144.6c-26-49.96-55.99-104.36-115.76-117.4c-33.86-7.39-62.6-11.76-97.36-10.22
			c-36.24,1.61-72.39,5.03-108.28,10.25c-39.3,5.71-77.87,3.42-113.98,22.97c-48.45,26.23-76.13,76.14-90.09,127.74
			c-11.51,42.55-54.24,167.24-87.3,195.94c-33.06,28.7-79.86,82.19-26.48,125.76c53.38,43.56,80.02,16.7,117.55-23.5
			c37.53-40.2,78.42-171.32,78.42-171.32s-1.8,136.26,2.11,202.6c1.15,19.56,2.2,40.38,3.1,60.77c6.45,2.78,14.18,4.11,23.91,3.15
			c0,0,266.55-26.28,353.7-34.88c-0.62-20.86-0.56-45.36,0.42-72.96c2.46-69.8-10.76-171.49-10.88-174.73
			c-0.11-3.24,36.18,61.99,60.08,96.84c23.9,34.85,70.63,73.77,127.54,78.3C964.49,1178.6,1000.12,1130.36,983.65,1075.8z"/>
		<path class="st6" d="M264.89,1110.83c-12.14-26.26-44.48-27.95-70.06-36.9c-1.53,0.05-3.53-1.14-5.28-2.91
			c-3.89,5.38-7.72,9.82-11.43,13.04c-33.06,28.7-79.86,82.19-26.48,125.76c53.38,43.56,80.02,16.7,117.55-23.5
			c1.96-2.1,3.94-4.48,5.91-7.05C279.27,1156.26,275.39,1132.17,264.89,1110.83z"/>
		<path class="st6" d="M983.65,1075.8c-16.47-54.56-79.35-44.29-95.71-48.59c-8.51-2.24-16.45-21.24-20.34-27.84
			c-0.9-1.53-1.78-3.07-2.67-4.6c1.23,28.35-16.45,55.37-39.79,77.12c-14.76,13.71-19.63,37.37-13.96,58.73
			c25.13,22.16,58.51,40.44,96.4,43.45C964.49,1178.6,1000.12,1130.36,983.65,1075.8z"/>
		<g>
			<g>
				<path class="st5" d="M627.19,842.88c-10.91-5.01-23.78-0.44-29.16,10.17l-45.1,98.37l0,0l0.01,0c0.05,0.02,0.1,0.05,0.15,0.07
					c10.91,5.01,23.78,0.44,29.16-10.17l0.35-0.77l44.74-97.6C627.34,842.96,627.24,842.91,627.19,842.88z"/>
				<path class="st5" d="M571.97,883.94c-10.91-5.01-23.78-0.44-29.16,10.17l-0.35,0.77L514.78,955l0,0l0.01,0
					c0.05,0.02,0.1,0.05,0.15,0.07c10.91,5.01,23.78,0.44,29.16-10.17l28.03-60.89C572.12,884.01,572.02,883.96,571.97,883.94z"/>
				<path class="st5" d="M516.87,925.06L516.87,925.06c-0.06-0.02-0.1-0.05-0.15-0.07c-10.91-5.01-23.78-0.44-29.16,10.17
					l-10.79,23.38l0,0l0.01,0c0.05,0.02,0.1,0.05,0.15,0.07c10.91,5.01,23.78,0.44,29.16-10.17L516.87,925.06L516.87,925.06z"/>
			</g>
		</g>
		<g class="st8">
			<path class="st1" d="M571.97,883.94c-10.91-5.01-23.78-0.44-29.16,10.17l-0.35,0.77l-3.02,6.55c6.88,0.35,14.03,0.12,21.5-0.79
				c1.28-0.18,2.55-0.4,3.81-0.61l7.37-16.02C572.12,884.01,572.02,883.96,571.97,883.94z"/>
			<path class="st1" d="M598.03,853.05l-20.25,44.17c10.62-2.84,20.72-6.93,30.25-12.14l19.31-42.13c0,0-0.1-0.05-0.15-0.07
				C616.28,837.88,603.41,842.44,598.03,853.05z"/>
		</g>
		<g class="st8">
			<path class="st1" d="M244.57,1106.9c-1.82-0.83-0.32,0.95,3.18,3.16C246.86,1108.57,245.79,1107.45,244.57,1106.9z"/>
			<path class="st1" d="M350.74,941.11c0,0-4.25,17.98-12.9,49.08c-8.66,31.1-26.81,69.02-44.96,106.93
				c-13.13,27.42-35.98,18.71-45.13,12.93c3.91,6.54,4.24,20.18-2.23,24.37c-7.93,5.14,9.6,43.45-25.47,60.87
				c-32.21,16-79.1-34.79-91.43-41.49c-3.87,18.75,1.21,38.21,23.02,56.01c53.38,43.56,80.02,16.7,117.55-23.5
				s78.42-171.32,78.42-171.32s-0.12,9.33-0.23,24.27L350.74,941.11z"/>
		</g>
		<path class="st9" d="M983.65,1075.8c-7-23.17-22.36-34.65-38.99-40.52c-19.71,3.85-47.16,10.9-61.36,22.08
			c-23.68,18.65-15.47,68.63-26.75,70.64s-10.33-17.48-18.93-31.78c-8.6-14.3-1.9-8.04-34.9-24.74s-93.86-136.21-93.86-136.21
			l10.27,62.88l1.03,2.76c-0.12-1.08-0.19-1.76-0.2-1.98c-0.11-3.24,36.18,61.99,60.08,96.84s70.63,73.77,127.54,78.3
			C964.49,1178.6,1000.12,1130.36,983.65,1075.8z"/>
		<path class="st6" d="M263.48,895.03c0.49,6.58,2.46,11.09,5.95,12.49c9.34,3.74,26.09-16.15,37.41-44.42
			c11.32-28.27,12.92-54.23,3.58-57.97c-1.99-0.8-4.32-0.51-6.86,0.69c-21.8,29.11-32.5,61.43-38.14,82.29
			C264.85,890.22,264.2,892.54,263.48,895.03z"/>
		<g>
			<path class="st6" d="M786.32,846.05c-5.14-9.74-10.48-19.54-16.21-29.07l-27.24,14.64l15.76,29.32L786.32,846.05z"/>
			<path class="st6" d="M806.38,884.87c-5.05-9.89-10.12-19.76-15.23-29.6l-27.58,14.83l15.76,29.32L806.38,884.87z"/>
		</g>
		<circle class="st10" cx="933.39" cy="1099.41" r="48.61"/>
		<circle class="st1" cx="936.41" cy="1092.83" r="31.6"/>
		<path class="st11" d="M930.6,1065.46c2.1-0.91,5.75-21.28,24.85-31.66c19.1-10.39,25.13-23.56,36.02-36.91s17.31-15.19,22.34-10.5
			s-0.95,19.49-11.9,31.21c-10.95,11.73-20.11,28.25-13.41,34.51s26.47,15.3,26.69,21.78c0,0,42.83,19.6,62.43,23.79
			c7.35,1.57,18.46,4.62,22.55,11.79c3.18,5.57,0.65,7.5-4.73,8.34c-10.03,1.56-24.02-1.57-33.52-5
			c-8.21-2.96-47.8-22.68-54.05-15.98c-6.25,6.7,22.33,36.52,30.82,47.58c8.49,11.06,23.73,29.99,15.8,35.13
			s-33.34-26.42-46.79-40.55c-13.46-14.13-26.91-28.26-33.23-23.18c-5.51,4.44-0.82,22.08,0.05,27.64
			c1.19,7.59,2.01,15.23,3.1,22.83c0.77,5.42,3.02,11.61,0.47,16.78c-5.3,10.75-11.27,5.04-13.92-2.5
			c-5.17-14.76-8.04-32.24-8.57-47.88c-0.33-9.72-10.44-20.72-16.7-14.02s-32.5,44.89-39.2,38.64c-6.7-6.26,7.26-24.57,13.35-36.13
			C913.06,1121.19,893.85,1081.32,930.6,1065.46z"/>
		<g class="st12">
			<path class="st1" d="M961.99,1082.57c-0.14,0-0.27-0.07-0.33-0.2c-5.11-10.88-26.01-15.07-26.22-15.11
				c-0.19-0.04-0.31-0.22-0.28-0.41c0.04-0.19,0.22-0.32,0.41-0.28c0.05,0.01,5.41,1.07,11.33,3.48c5.5,2.24,12.63,6.14,15.39,12.02
				c0.08,0.18,0.01,0.39-0.17,0.47C962.09,1082.56,962.04,1082.57,961.99,1082.57z"/>
			<path class="st1" d="M949.48,1095.97c-0.1,0-0.2-0.04-0.27-0.12c-0.13-0.15-0.12-0.37,0.03-0.5
				c1.16-1.04,28.54-25.38,39.87-25.77c0.19-0.01,0.36,0.15,0.36,0.34c0.01,0.19-0.15,0.36-0.34,0.36
				c-11.08,0.38-39.15,25.34-39.43,25.6C949.64,1095.94,949.56,1095.97,949.48,1095.97z"/>
			<path class="st1" d="M951.02,1110.53c-0.65,0.02-1.02,0.02-1.05,0.02c-0.19,0-0.35-0.16-0.35-0.36c0.01-0.19,0.17-0.34,0.36-0.35
				c0.32,0.02,30.92,0.27,52.39-24.39c0.13-0.15,0.35-0.16,0.5-0.03c0.15,0.13,0.16,0.35,0.03,0.5
				C983.47,1108.23,956.62,1110.33,951.02,1110.53z"/>
		</g>
		<circle class="st10" cx="185.01" cy="1169.32" r="50.33"/>
		<circle class="st1" cx="181.6" cy="1164.57" r="31.7"/>
		<path class="st11" d="M198.77,1147.98c-2.25-0.45-10.09-19.6-30.94-25.74s-29.51-17.77-42.96-28.53
			c-13.45-10.76-20.11-11.22-24.04-5.58s5.02,18.86,18.18,28.03c13.16,9.17,25.58,23.41,20.34,30.93s-22.67,20.51-21.53,26.89
			c0,0-37.77,28.15-56.05,36.36c-6.85,3.08-17.08,8.39-19.58,16.26c-1.94,6.12,0.94,7.47,6.37,7.16
			c10.13-0.58,23.16-6.58,31.73-11.92c7.41-4.62,41.98-32.2,49.5-26.96c7.52,5.24-14.18,40.39-20.16,52.99s-16.91,34.3-8.08,37.66
			c8.83,3.36,27.06-32.82,37.25-49.46c10.19-16.64,20.39-33.27,27.63-29.63c6.31,3.19,5.43,21.42,5.75,27.04
			c0.43,7.67,1.23,15.31,1.76,22.97c0.38,5.46-0.52,11.98,3.06,16.5c7.44,9.4,12.08,2.56,13.08-5.37
			c1.96-15.52,1.1-33.21-1.66-48.62c-1.71-9.57,5.86-22.45,13.38-17.21c7.52,5.24,41.2,37.08,46.44,29.56
			c5.24-7.52-12.25-22.5-20.63-32.53C227.61,1198.8,238.03,1155.78,198.77,1147.98z"/>
		<g class="st12">
			<path class="st1" d="M171.62,1171.3c-0.03,0-0.06,0-0.09-0.01c-0.19-0.04-0.31-0.23-0.26-0.42c1.47-6.32,7.62-11.63,12.53-14.98
				c5.29-3.6,10.3-5.76,10.35-5.78c0.18-0.07,0.38,0.01,0.46,0.19c0.08,0.18-0.01,0.38-0.19,0.46c-0.2,0.08-19.75,8.56-22.47,20.27
				C171.91,1171.19,171.77,1171.29,171.62,1171.3z"/>
			<path class="st1" d="M186.66,1181.78c-0.06,0-0.13-0.01-0.19-0.05c-0.33-0.19-32.99-18.7-43.92-16.76
				c-0.19,0.04-0.37-0.09-0.41-0.28c-0.03-0.19,0.09-0.37,0.28-0.41c11.18-2.01,43.04,16.07,44.39,16.84
				c0.17,0.1,0.23,0.31,0.13,0.48C186.89,1181.71,186.78,1181.78,186.66,1181.78z"/>
			<path class="st1" d="M179.04,1197.24c-11.16,0.38-29.69-1.38-46.67-14.1c-0.16-0.12-0.19-0.33-0.07-0.49
				c0.12-0.15,0.34-0.19,0.49-0.07c26.17,19.61,56.04,12.93,56.34,12.86c0.2-0.04,0.38,0.07,0.42,0.26
				c0.04,0.19-0.07,0.38-0.26,0.42C189.18,1196.15,185.25,1197.03,179.04,1197.24z"/>
		</g>
		<path class="st1" d="M449.18,405.77c-0.64,3.96-1.27,9.34-4.92,11.63c-3.5,2.19-7.22,1.81-10.96,2.82
			c-4.07,1.1-8.26,3.77-11.41,6.5c-6.97,6.03-10.71,16.76-6.11,24.75c1.2,2.09,2.92,3.95,3.54,6.28
			c1.87,7.04-6.48,11.92-11.59,17.12c-4.42,4.49-6.89,10.83-6.67,17.12c0.22,6.34,2.99,12.26,5.6,18.04c4.22,9.35,8.2,19.61,6,29.63
			c-0.8,3.63-2.41,7.24-1.88,10.92c1.27,8.86,13.43,12.11,16.48,20.53c2.86,7.92-3.48,17.24,0.06,24.88
			c2.37,5.11,8.61,7.92,10.08,13.35c1.08,3.99-0.78,8.34,0.31,12.34c1.54,5.7,8.31,8.25,14.21,8.36c5.9,0.11,11.93-1.31,17.64,0.19
			c5.5,1.45,10.02,5.45,15.44,7.15c8.57,2.69,18.47-0.62,26.54,3.32c5.89,2.88,9.82,9.23,16.13,11.04
			c6.02,1.73,12.4-1.24,17.45-4.96c5.04-3.72,9.58-8.35,15.4-10.67c14-5.6,31.62,3.43,44.29-4.74c6.59-4.25,9.81-12.03,12.62-19.35
			c3.19-8.32,6.34-16.66,9.44-25.02c1.07-2.88,2.15-5.85,2.02-8.92c-0.2-4.87-3.36-10.05-0.91-14.26c1.75-3.02,5.7-4.04,7.93-6.72
			c1.98-2.39,2.32-5.7,2.57-8.79c0.58-7.21,2.22-15.28,0.97-22.43c-1.24-7.05-5.04-13.59-4.65-20.93c0.26-4.88,2.46-9.5,2.65-14.38
			c0.22-5.62-2.23-10.96-4.63-16.04c-1.04-2.21-2.13-4.49-4-6.05c-2.11-1.77-4.94-2.42-7.19-4c-4.01-2.84-5.44-8.16-5.54-13.08
			c-0.09-4.91,0.85-9.84,0.33-14.72c-0.73-6.77-4.2-12.9-7.59-18.8c-1.1-1.9-2.26-3.88-4.1-5.07c-1.72-1.12-3.83-1.42-5.73-2.21
			c-9.14-3.82-9.94-16.7-16.87-23.78c-6.09-6.21-15.82-6.88-24.47-5.94c-7.86,0.85-17.09,3.64-24.81,0.89
			c-6.62-2.36-11.81-6.78-17.79-10.15c-6.65-3.75-15.04-0.08-21.07,4.59c-6.04,4.67-11.76,10.58-19.29,11.81
			c-6.8,1.1-14.75-1.66-20.08,2.71C450.35,394.18,450.06,400.38,449.18,405.77z"/>
		<path class="st11" d="M444.58,739.89c0,0,26.93-21.31,16.06-125.76s138.01-93.56,132.73,7.08c0,0,3.65,106.16,30.08,112.53
			C623.45,733.74,551.23,835.23,444.58,739.89z"/>
		<path class="st13" d="M575.88,670.67c7.63-14.29,14.05-29.71,17.67-45.58c-0.12-2.48-0.17-3.88-0.17-3.88
			c5.09-97.18-133.54-110.67-133.28-17.43c3.51,25.98,14.76,51.19,31.7,71.19C512.39,702.34,560.07,700.7,575.88,670.67z"/>
		<path class="st11" d="M601.86,499.79c-0.04-0.06-0.09-0.11-0.12-0.17c-0.9-1.53-1.2-3.33-1.65-5.04
			c-1.67-6.35-5.73-12.03-11.2-15.67c-2.2-1.47-4.78-2.79-5.8-5.24c-0.84-2.04-0.38-4.39-0.91-6.53
			c-2.18-8.67-18.29-8.79-18.43-17.73c-0.04-2.39,1.26-4.58,1.69-6.93c0.43-2.35-0.64-5.41-3.03-5.56
			c-1.46,2.59-2.92,5.18-4.38,7.77c-1.79,3.18-3.62,6.41-6.26,8.93c-5.86,5.61-15.57,6.68-22.51,2.48
			c-6.94-4.2-10.5-13.29-8.24-21.09c-6.55,2.22-13.09,4.45-19.64,6.67c-2.15,0.73-4.35,1.49-6.06,2.98
			c-2.95,2.58-4.19,7.13-7.84,8.54c-1.63,0.63-3.48,0.49-5.13,1.07c-4.99,1.75-6.89,9.38-12.18,9.48
			c-3.98,0.07-8.84-4.17-11.14-0.91c-0.68,0.96-0.68,2.23-0.69,3.41c-0.1,8.21-2.08,16.39-5.74,23.74
			c-3.68,7.36-9.1,15.98-4.83,23.02c0.68,1.11,1.59,2.13,1.88,3.4c0.52,2.23-0.97,4.37-2.24,6.28c-1.57,2.38-2.84,4.95-3.87,7.61
			c0.42,3.76,0.9,7.6,1.52,11.57c0,0,4.31,82.84,34.29,108.01c29.98,25.18,94.77,46.24,115.79-20
			c21.02-66.24,13.95-60.17,9.64-100.79C603.82,520.16,603.11,510.09,601.86,499.79z"/>
		<path class="st11" d="M447.1,601.49c0,0-4.16-78.48-35.7-64.29S433.41,626.72,447.1,601.49z"/>
		<path class="st11" d="M628.13,531.21c-6.88-2.54-12.25-1-16.43,3c5.98,13.65,6.08,28.92,4.19,43.29c-0.4,2.46-1.07,4.8-1.9,7.07
			c-0.94,5.42-2.07,10.79-3.47,16.13C629.54,590.81,653.5,540.58,628.13,531.21z"/>
		<g>
			
				<ellipse transform="matrix(0.9994 -0.0344 0.0344 0.9994 -17.7819 17.2445)" class="st1" cx="492.54" cy="525.68" rx="7.28" ry="10.19"/>
			
				<ellipse transform="matrix(0.9994 -0.0344 0.0344 0.9994 -17.6426 19.9427)" class="st1" cx="571.07" cy="522.98" rx="7.28" ry="10.19"/>
			<path class="st1" d="M527.81,579.19c-1.78,0.06-2.94-0.02-3.09-0.03c-1.2-0.09-2.1-1.14-2.01-2.34c0.09-1.2,1.14-2.1,2.34-2.01
				c0.12,0.01,12.34,0.83,19.99-6.02c4.66-4.16-0.74-34.56-8.66-61.54c-0.34-1.16,0.32-2.37,1.48-2.71
				c1.15-0.34,2.37,0.32,2.71,1.48c2.82,9.61,16.42,57.95,7.38,66.03C541.39,577.9,532.46,579.03,527.81,579.19z"/>
			<path class="st1" d="M472.53,494.34c-1.37,0.05-2.77-0.39-3.91-1.34c-2.47-2.05-2.82-5.72-0.77-8.19
				c0.55-0.66,13.79-16.24,37.63-10.3c3.12,0.78,5.02,3.93,4.24,7.05c-0.78,3.12-3.94,5.02-7.05,4.24
				c-16.82-4.19-25.77,6.33-25.86,6.44C475.71,493.57,474.14,494.28,472.53,494.34z"/>
			<path class="st1" d="M588.2,491.81c-1.67,0.06-3.36-0.6-4.55-1.95c-8.24-9.28-16.06-7.44-21.24-6.22
				c-2.62,0.62-5.58,1.31-8.21-0.84c-2.49-2.04-2.85-5.7-0.82-8.19c1.34-1.64,3.39-2.35,5.35-2.07c0.31-0.07,0.69-0.16,1.01-0.23
				c5.91-1.39,19.76-4.64,32.6,9.82c2.13,2.4,1.92,6.08-0.49,8.22C590.8,491.29,589.5,491.77,588.2,491.81z"/>
		</g>
		<path class="st13" d="M519.66,573.52c0,0,19.12,3.71,31.05-8.35c0,0,7.11,17.23-13.15,20.84S519.66,573.52,519.66,573.52z"/>
		<path class="st1" d="M495.01,594.57c0,0,41.25,13.27,84.64-6.17c0,0-1.86,40.86-40.92,43.83
			C499.67,635.2,495.01,594.57,495.01,594.57z"/>
		<path class="st4" d="M578.54,588.87c-42.98,18.72-83.53,5.7-83.53,5.7s0.5,4.31,2.52,10.02c4.89,4.54,12.89,6.49,19.66,6.94
			c1.48-0.08,2.99-0.06,4.51,0.08c-1.4,0.05-2.92,0.03-4.51-0.08c-5.46,0.3-10.45,2.08-13.44,5.27c6.3,8.91,16.98,16.8,34.98,15.43
			c17.97-1.37,28.05-10.76,33.71-20.49c-4.43-1.72-10.19-1.53-14.89-1.37C569.35,609.96,579.44,600.27,578.54,588.87z"/>
		<path class="st1" d="M436.57,740.98l17.55-59.1c0,0,82.01,16.83,87.32,89.66c0,0-20.55-66.68,65.53-94.92l23.01,56.77
			c0,0-17.7,56.77-89.17,60.63C469.34,797.89,436.57,740.98,436.57,740.98z"/>
	</g>
	<ellipse class="st0" cx="561.98" cy="1346.32" rx="333.7" ry="14.54"/>
	<g>
		<circle class="st4" cx="365.13" cy="98.68" r="28.38"/>
		<path class="st4" d="M364.55,135.16c-29.09-0.43-53.04,22.77-53.54,51.86c-0.04,2.24,1.75,4.08,3.99,4.12l97.29,1.55
			c2.24,0.04,4.08-1.75,4.12-3.99C416.83,159.61,393.64,135.66,364.55,135.16z"/>
	</g>
	<g>
		<path class="st4" d="M474.67,130.26l-0.17,10.56l-19.68-0.31l-0.31,19.68l-10.66-0.17l0.31-19.68l-19.68-0.31l0.17-10.56
			l19.68,0.31l0.32-19.79l10.66,0.17l-0.32,19.79L474.67,130.26z"/>
		<path class="st4" d="M549.26,102.22c5.03,6.3,7.45,15.23,7.26,26.78c-0.13,7.93-1.45,14.73-3.97,20.4
			c-2.52,5.67-6.11,9.99-10.77,12.96c-4.66,2.97-10.14,4.4-16.42,4.3c-4.44-0.07-8.74-0.84-12.88-2.31
			c-4.15-1.47-7.67-3.52-10.57-6.17l5.31-11.3c6.21,4.75,12.12,7.17,17.73,7.26c4.72,0.07,8.39-1.75,11.01-5.46
			c2.62-3.72,4.16-9.23,4.62-16.54c-1.61,2.57-3.87,4.6-6.76,6.1c-2.9,1.49-6.12,2.21-9.67,2.15c-4.24-0.07-8-1.12-11.28-3.15
			c-3.28-2.03-5.84-4.84-7.66-8.43c-1.82-3.58-2.7-7.63-2.63-12.14c0.08-4.72,1.2-8.92,3.38-12.61c2.18-3.69,5.16-6.55,8.96-8.57
			c3.79-2.02,8.05-3,12.76-2.92C537.03,92.69,544.23,95.92,549.26,102.22z M535.87,124.98c2.02-2.09,3.05-4.84,3.11-8.26
			c0.05-3.42-0.89-6.22-2.84-8.4c-1.95-2.18-4.53-3.3-7.74-3.35c-3.21-0.05-5.81,0.97-7.79,3.05c-1.98,2.09-3,4.87-3.06,8.36
			c-0.05,3.42,0.88,6.2,2.79,8.35c1.91,2.15,4.48,3.25,7.69,3.3C531.24,128.08,533.85,127.06,535.87,124.98z"/>
		<path class="st4" d="M565.44,157.75c-4.51-6.43-6.67-15.66-6.48-27.69c0.19-11.89,2.66-20.96,7.41-27.21
			c4.75-6.25,11.46-9.3,20.14-9.16c8.68,0.14,15.29,3.41,19.84,9.8c4.55,6.4,6.73,15.54,6.54,27.43
			c-0.19,12.03-2.65,21.19-7.36,27.47c-4.72,6.28-11.45,9.35-20.2,9.22C576.59,167.47,569.96,164.18,565.44,157.75z M594.29,149.6
			c1.87-3.93,2.88-10.24,3.02-18.92c0.14-8.61-0.67-14.88-2.42-18.8c-1.75-3.93-4.61-5.92-8.57-5.98c-3.96-0.06-6.88,1.84-8.76,5.71
			c-1.87,3.87-2.88,10.11-3.02,18.72c-0.14,8.68,0.67,15.02,2.41,19.01c1.75,3.99,4.6,6.02,8.57,6.08
			C589.49,155.47,592.41,153.53,594.29,149.6z"/>
		<path class="st4" d="M621.83,158.65c-4.51-6.43-6.67-15.66-6.48-27.69c0.19-11.89,2.66-20.96,7.41-27.21
			c4.75-6.25,11.46-9.3,20.14-9.16c8.68,0.14,15.29,3.41,19.84,9.8c4.55,6.4,6.73,15.54,6.54,27.43
			c-0.19,12.03-2.65,21.19-7.36,27.47c-4.71,6.28-11.45,9.35-20.2,9.21C632.97,168.36,626.34,165.08,621.83,158.65z M650.67,150.5
			c1.87-3.93,2.88-10.24,3.02-18.92c0.14-8.61-0.67-14.88-2.42-18.8c-1.75-3.93-4.61-5.92-8.57-5.98c-3.96-0.06-6.88,1.84-8.76,5.71
			c-1.87,3.87-2.88,10.11-3.02,18.72c-0.14,8.68,0.67,15.02,2.41,19.01c1.75,3.99,4.6,6.02,8.57,6.08
			C645.88,156.37,648.8,154.43,650.67,150.5z"/>
		<path class="st4" d="M678.22,159.55c-4.51-6.43-6.67-15.66-6.48-27.69c0.19-11.89,2.66-20.96,7.41-27.21
			c4.75-6.25,11.46-9.3,20.14-9.16c8.68,0.14,15.29,3.41,19.84,9.8c4.55,6.4,6.73,15.54,6.54,27.43
			c-0.19,12.03-2.65,21.19-7.36,27.47c-4.72,6.28-11.45,9.35-20.2,9.22C689.36,169.26,682.73,165.98,678.22,159.55z M707.06,151.39
			c1.87-3.93,2.88-10.24,3.02-18.92c0.14-8.61-0.67-14.88-2.42-18.8c-1.75-3.93-4.61-5.92-8.57-5.98c-3.96-0.06-6.88,1.84-8.76,5.71
			c-1.87,3.87-2.88,10.11-3.02,18.72c-0.14,8.68,0.67,15.02,2.41,19.01c1.75,3.99,4.6,6.02,8.57,6.08
			C702.27,157.27,705.18,155.33,707.06,151.39z"/>
	</g>
</g>
</svg>
