<?xml version="1.0" encoding="utf-8"?>
<!-- Generator: Adobe Illustrator 24.0.0, SVG Export Plug-In . SVG Version: 6.00 Build 0)  -->
<svg version="1.1" id="Capa_1" xmlns="http://www.w3.org/2000/svg" xmlns:xlink="http://www.w3.org/1999/xlink" x="0px" y="0px"
	 viewBox="0 0 1267.85 1235.15" style="enable-background:new 0 0 1267.85 1235.15;" xml:space="preserve">
<style type="text/css">
	.st0{fill:#BACED7;}
	.st1{fill:#FFFFFF;}
	.st2{fill:#F3F0F1;}
	.st3{opacity:0.16;fill:#100424;}
	.st4{fill:#FF4D27;}
	.st5{fill:#99241B;}
	.st6{fill:#FDC9B6;}
	.st7{fill:#5A90A1;}
	.st8{fill:#6793A2;}
	.st9{fill:#065772;}
	.st10{fill-rule:evenodd;clip-rule:evenodd;fill:#FFFFFF;}
	.st11{fill:#FDB490;}
	.st12{fill:#100424;}
	.st13{opacity:0.37;fill:#FF0000;}
	.st14{fill:#33758B;}
	.st15{fill:#F69381;}
	.st16{fill:#E87F42;}
	.st17{fill:#004267;}
	.st18{fill:#322742;}
	.st19{fill:#EB4730;}
	.st20{fill:#C7BFC2;}
	.st21{fill:#FF4F28;}
</style>
<g>
	<path class="st0" d="M893.46,250.72c-6.41-10.69-13.05-21.11-21.87-28.6c-21.24-18.03-61.33-20.62-87.87-24.54
		c-71.14-10.5-145.09-6.23-212.96,18.56c-97.58,35.64-180.69,117.05-204.67,218.13c-14.27,60.18-7.74,123.75-21.39,184.07
		c-9.17,40.53-27.29,78.82-34.03,119.82c-14.69,89.38,50.14,146.65,120.19,188.1c54.93,32.51,107.7,15.56,170.26,8.78
		c52.49-5.68,91.38,11.9,132.05,39.93c41.09,28.32,58.27,84.45,107.39,102.7c23.93,8.89,51.15,7.46,77.49,5.01
		c53.5-4.97,107.88-13.94,157.68-37.31c62.07-29.14,127.37-90.88,126.76-164.94c-0.28-34.13-5.31-56.74,4.47-91.8
		c11.61-41.64,26.93-82.13,39.28-123.53c19.24-64.48,31.32-134.3,11.3-198.54c-22.81-73.18-81.46-104.98-150.56-124.21
		c-65.61-18.25-141.82-6.45-192.99-61.49C906.06,272.33,899.87,261.4,893.46,250.72z"/>
	<path class="st0" d="M1033.34,211.51c-14.57-9.42-31.71-16.84-49.81-14.61c-18.11,2.23-36.59,16.97-37.66,34.88
		c-0.45,7.55,2.12,14.75,5.63,21.15c10.97,19.99,32.02,33.91,55.57,35.86C1077.54,294.62,1081.67,242.75,1033.34,211.51z"/>
	<path class="st1" d="M327.48,918.55c62.96,63.98,148.01,85.4,148.01,85.4c20.53-51.71,102.34-421.97,100.4-413.71
		c0,0,121.55,114.94,119.68,119.85c-1.88,4.91-68.54,314.16-80.26,367.5c-27.19,123.76-109.05,168.69-166.27,98.58
		c-36.01-44.13-150.3-173.22-179.42-188.46C240.51,972.47,327.48,918.55,327.48,918.55z"/>
	<path class="st2" d="M575.9,590.25C575.9,590.25,575.9,590.25,575.9,590.25C575.94,590.08,575.94,590.07,575.9,590.25z"/>
	<path class="st3" d="M613.23,1040.91c-7,29-18,54-33,80c-13,21-30,38-53,44c-32.57,8.32-64.66,5.58-93.61-7.2
		c6.02,7.09,11.25,13.35,15.43,18.47c57.21,70.11,139.08,25.18,166.27-98.58c11.72-53.34,78.38-362.58,80.26-367.5
		c0.32-0.85-3.05-5-8.85-11.27c-17.08,62.59-23.78,127.66-41.5,192.09C632.23,940.91,624.23,988.91,613.23,1040.91z"/>
	<path class="st4" d="M354.5,942.64c-9.24-7.26-18.34-15.27-27.02-24.09c0,0-86.97,53.91-57.85,69.16
		c7.37,3.86,20.22,15.03,35.87,30.27C331.94,1002.02,347.65,973.76,354.5,942.64z"/>
	<path class="st1" d="M662.28,480.98c-101.27,60.04-86.38,101.67-135.13,323.47c39.84-8.11,105.33,6.16,140.46,61.52
		c5.4-2.21-43.67-112.68-40.24-125.07C644.84,677.63,662.28,480.98,662.28,480.98z"/>
	<path class="st1" d="M1159.79,731.17c-6,21.35-13.33,60.34-21.09,105.39c-0.06,0.37-0.12,0.76-0.18,1.14
		c-5.61,32.66-11.45,68.44-17.15,102.98c-9.49,57.4-18.64,111.35-25.9,141.85c-3.76,15.7-5.02,60.69-5,116.25
		c0,11.94,0.06,23.6,0.16,36.33H600.23c-0.18-34.97-0.29-70.69-0.31-107.92c-0.04-104.74,0.73-215.35,3.23-314.23
		c1.78-71.22,4.43-136.34,8.31-188.79c2.16-29.31,6.48-56.11,10.81-77.48c6.62-32.67,27.02-60.85,55.95-77.42
		c23.44-13.43,50.71-27.98,71.15-38.69c68.71-35.92,160.5-31.51,233.53-10.07c27.38,8.04,51.12,23.24,75.84,37.39
		c36.34,20.79,100.14,43.34,113.54,86.44c9.87,31.77,13.65,65.38,11.24,98.55C1181.32,673.05,1168,701.97,1159.79,731.17z"/>
	<path class="st3" d="M749.36,430.58c-20.44,10.71-47.71,25.26-71.15,38.69c-9.71,5.56-18.45,12.43-26.03,20.34
		c5.75,12.54,10.8,25.08,13.05,39.31c2,9,7,19,13,27c8,8,12,17,20,26c11,13,25,20,42,21c65,3,132-6,185-49
		c42.97-34.38,78.55-82.78,129.6-98.26c-23.34-13.49-46.01-27.53-71.94-35.15C909.87,399.07,818.07,394.65,749.36,430.58z"/>
	<path class="st5" d="M989.31,1235.12c-0.55,0.1-1.1-0.12-1.63,0h6.51C992.7,1234.57,991.04,1234.77,989.31,1235.12z"/>
	<path class="st4" d="M1120.77,764.59c-2.76,12.06-5.39,24.15-7.86,36.27c-0.86,4.16-1.69,8.33-2.51,12.51
		c-5.16,26.19-9.72,52.52-13.8,78.91c-9.47,61.36-16.37,123.13-22.27,184.92c-3.82,40.13-7.43,80.28-10.04,120.49
		c-0.67,10.47-1.29,20.92-1.82,31.39c-0.12,2.27-0.22,3.76-0.33,6.02h-10.27c0.61-12.88,1.33-24.98,2.12-37.87
		c5.33-87.57,14.35-175.14,26.09-261.95c3.45-25.62,7.29-51.22,11.61-76.69c2.98-17.55,6.21-35.03,9.7-52.48
		c1.1-5.51,2.23-11,3.39-16.49c1.94-9.29,3.98-18.53,6.1-27.78C1112.36,755.44,1122.26,758.16,1120.77,764.59z"/>
	<path class="st3" d="M1175.21,628.46c-1.28-11.79-3.2-24.32-10.5-33.5c-0.52-0.66-1.07-1.29-1.65-1.91
		c-9.81-10.51-25.5-12.93-39.88-12.7c-31.69,0.52-63.14,11.15-88.63,29.97c-36.91,27.24-59.9,69.94-72.47,114.05
		c-12.57,44.12-15.78,90.25-20.32,135.9s-10.65,91.82-28.49,134.08c-7.35,17.4-18.92,40.78-36.42,50.19
		c-13.24,7.12-31.51,6.85-46.39,11.85c-31.27,10.51-64.16,8.16-95.56,0.4c-14.82-3.66-34.23-2.6-40.57,11.29
		c-4.42,9.68-0.08,20.95,4.74,30.44c24.21,47.65,78.57,106.65,138.8,136.58h136.99c3.75-2.57,7.45-5.41,11.08-8.55
		c25.4-21.96,35.33-56.23,49.29-86.77c20.25-44.31,50.72-83.14,73.78-126.05c3.96-22.48,8.13-47.42,12.37-73.06
		c5.7-34.54,11.53-70.32,17.15-102.98c0.06-0.39,0.12-0.78,0.18-1.14c7.76-45.05,15.09-84.04,21.09-105.39
		c5.42-19.29,13.07-38.46,18.28-57.94C1177.75,658.49,1176.85,643.61,1175.21,628.46z"/>
	<path class="st1" d="M884.39,1178.32c-39.04-13.68-105.31-40.84-174.67-70.82l-89.28-114.19c11.69-10.96,25.58-16.4,40.95-9.5
		c28.52,12.81,122.88,8.99,190.52,13.01c12.06,0.7,23.26,1.68,33.09,3.05c0,0,0.68-2.81,1.88-7.77
		c7.59-31.48,35.84-149.52,40.32-183.89c5.19-39.76,206.88-85.6,171.67,71.23c-40.24,96.86-81.1,240.86-94.6,255.21
		C990.77,1149.01,973.41,1209.48,884.39,1178.32z"/>
	<path class="st6" d="M651.34,1048.05c-5.48,7.11-11.69,12.56-17.19,13.77c-11.98,2.64-23.77-4.3-34.08-10.95
		c-21.27-13.71-42.55-27.42-63.82-41.13c-15.1-9.73-30.68-19.65-48.31-23.06c-22.15-4.28-46.29,2.01-66.87-7.23
		c-15.75-7.07-27.05-27.61-17.48-41.98c5.28-7.93,14.97-11.45,24-14.49c26.89-9.05,53.77-18.1,80.66-27.15
		c-15.96-15.59-39.44-19.84-59.79-29c-20.34-9.16-40.19-29.27-34.48-50.84c57.09,14.84,124.69,43.59,167.31,85.78
		c3.67,3.63,10.82,13.28,19.52,25.36c1.92,2.69,3.92,5.48,5.98,8.38c4.88,6.81,10.07,14.07,15.28,21.3
		c8.43,11.69,16.83,23.59,26.19,34.57c3.75,4.41,16.95,13.92,17.86,19.49C667.57,1019.87,660.46,1036.24,651.34,1048.05z"/>
	<path class="st1" d="M1175.14,560.56c0.91,6.83,1.24,14.16,2.1,21.2c5.54,45.26,6.99,94.31-8.85,137.8
		c-19.86,54.53-44.93,107.38-69.53,159.88c-42.23-73.46-134.84-84.91-171.67-71.22c16.46-107.84,2.64-138.96,14.33-168.92
		c24.18-61.96,110.25-92.82,170.1-102.82c12.04-2.01,35.86-8.16,47.57-3.01C1170.2,538.3,1173.56,548.69,1175.14,560.56z"/>
	<path class="st6" d="M269.63,987.71c-67.37-30.95-135.39-91.45-120.6-134.01c14.79-42.56,37.64-99.13,63.77-78.63
		c26.13,20.5,37.68,14.83,54.53,17.5c16.85,2.67,41.24,39.77,49.69,53.31c8.45,13.54,0.83,61.08,10.46,72.67
		C337.37,930.45,269.63,987.71,269.63,987.71z"/>
	<path class="st7" d="M0.92,627.28c0.75,2.53,1.96,5.41,3.57,8.47c1.61,3.06,3.62,6.31,6,9.6l193.81,270.64
		c2.26,3.13,4.73,6.1,7.27,8.81c2.54,2.71,5.15,5.15,7.68,7.2c2.53,2.05,4.99,3.72,7.21,4.88c2.23,1.16,4.24,1.81,5.86,1.82
		l96.67,0.65c1.45,0.01,2.56-0.39,3.35-1.13l0.01,0c4.38-3.92,7.58-9.86,9.07-12.98c0.1-0.12,0.22-0.23,0.3-0.37
		c0.28-0.45,0.45-1,0.58-1.59c0.03-0.08,0.05-0.13,0.05-0.13l-0.02-0.01c0.2-1.01,0.22-2.2,0.01-3.56
		c-0.35-2.25-1.24-4.93-2.66-7.91c-1.42-2.99-3.38-6.27-5.84-9.72l-218.78-310.1c-2.61-3.65-5.4-7-8.21-9.92
		c-2.81-2.92-5.64-5.41-8.33-7.36c-2.68-1.95-5.23-3.35-7.46-4.09c-2.23-0.74-4.16-0.83-5.63-0.15l-74.46,34.42
		c-0.41,0.19-0.75,0.48-1.04,0.8l-0.02-0.02c0,0-7.47,5.64-9.26,13.31l0.01,0.01c-0.29,0.56-0.5,1.21-0.59,1.97
		C-0.14,622.54,0.16,624.74,0.92,627.28z"/>
	<path class="st8" d="M232.92,938.27l96.67,0.65c1.9,0.01,3.22-0.67,3.99-1.91c0.76-1.24,0.97-3.05,0.62-5.3
		c-0.35-2.25-1.24-4.93-2.66-7.91c-1.42-2.99-3.38-6.27-5.84-9.72l-218.78-310.1c-2.61-3.65-5.4-7-8.21-9.92
		c-2.81-2.92-5.64-5.41-8.33-7.36c-2.68-1.95-5.23-3.35-7.46-4.09c-2.23-0.74-4.16-0.83-5.63-0.15L2.81,616.88
		c-1.25,0.58-1.95,1.8-2.15,3.52c-0.2,1.71,0.1,3.91,0.86,6.45c0.75,2.53,1.96,5.41,3.57,8.47c1.61,3.06,3.62,6.31,6,9.6
		l193.81,270.64c2.26,3.13,4.73,6.1,7.27,8.81c2.54,2.71,5.15,5.15,7.68,7.2c2.53,2.05,4.99,3.72,7.21,4.88
		C229.28,937.61,231.29,938.26,232.92,938.27"/>
	<path class="st9" d="M232.92,938.27l96.67,0.65c1.9,0.01,3.22-0.67,3.99-1.91c0.76-1.24,0.97-3.05,0.62-5.3
		c-0.35-2.25-1.24-4.93-2.66-7.91c-1.42-2.99-3.38-6.27-5.84-9.72l-218.78-310.1c-2.61-3.65-5.4-7-8.21-9.92
		c-2.81-2.92-5.64-5.41-8.33-7.36c-2.68-1.95-5.23-3.35-7.46-4.09c-2.23-0.74-4.16-0.83-5.63-0.15L2.81,616.88
		c-1.25,0.58-1.95,1.8-2.15,3.52c-0.2,1.71,0.1,3.91,0.86,6.45c0.75,2.53,1.96,5.41,3.57,8.47c1.61,3.06,3.62,6.31,6,9.6
		l193.81,270.64c2.26,3.13,4.73,6.1,7.27,8.81c2.54,2.71,5.15,5.15,7.68,7.2c2.53,2.05,4.99,3.72,7.21,4.88
		C229.28,937.61,231.29,938.26,232.92,938.27"/>
	<path class="st10" d="M110.76,756.14l19.53-3.71l75.47,104.59l28.23,0.88L154.22,748l19.42-3.74
		c-6.77-10.77-13.52-21.47-20.58-32.66c-1.48,0.4-2.82,0.74-4.15,1.11c-5.23,1.43-17.33,4.59-17.33,4.59s-11.03-15.16-15.71-21.78
		c-6.41-9.06-4.82-13.08-0.16-15.05c3.41-1.43,7.04-2.54,10.58-3.81c0.43-0.15,0.87-0.31,1.46-0.52l-20.98-28.56
		c-2.01,0.49-4.2,0.89-6.19,1.56c-3.63,1.26-7.28,2.5-10.64,4.14c-5.15,2.48-8.7,6.63-9.61,13.26c-1.12,7.51,1.56,16.18,6.95,25.49
		c2.21,3.83,4.86,7.67,7.5,11.42c4.16,5.89,8.5,11.72,12.78,17.58l1.6,2.19l-18.7,4.89L110.76,756.14z"/>
	<path class="st6" d="M225.02,960.88c-65.29-27.33-120.26-59.68-127.57-71.44S86.1,845.31,86.1,845.31s-25.79-8.52-27-28.26
		C58.6,809,74.6,784.63,80.13,778.1c5.53-6.52,39.89-22.22,55.98-20.65c12.6,1.23,19.5,24.49,0.65,30.07
		c-11.53,3.41-24.12,12.01-29.96,20.68l6.2,3.98c0,0,41.92-18.1,53.2-17.38c11.28,0.71,22.99,22.86,18.08,34.18
		c0,0,22.03,21.04,4.2,32.66c2.25,4.26,22.28,11.1,15.22,23.56c-7.07,12.46-28.4,31.49-28.4,31.49L225.02,960.88z"/>
	<path class="st11" d="M737.33,690.64L737.33,690.64C737.37,690.51,737.37,690.48,737.33,690.64z"/>
	<path class="st12" d="M650.32,448.65c0,0,23.18-20.91,133.96-72.31s146.97-59.67,171.19-38.92S835.24,484.15,835.24,484.15
		l-45.64,19.74l-53.33-5.42L650.32,448.65z"/>
	<path class="st6" d="M886,447.26c0,0-32.45-85.11-9.53-163.21s57.36-181.29-12.03-252.08s-251.71-7.43-278.41,31
		c-26.7,38.43-59.53,91.68-26.39,190.98c0,0,16.96,164.55,68.87,165.54s77.99-4.99,77.99-4.99l16.26,65.87L886,447.26z"/>
	<path class="st13" d="M905.07,126.01c-0.17-2.49-0.39-4.96-0.66-7.43c-3.42-31.29-14.93-61.06-39.98-86.61c0,0-0.01-0.01-0.01-0.01
		c-0.71-0.73-1.44-1.43-2.18-2.13c-0.19-0.18-0.38-0.36-0.57-0.54c-0.72-0.68-1.46-1.34-2.2-1.99c-0.02-0.02-0.04-0.04-0.07-0.06
		c-0.77-0.67-1.57-1.33-2.36-1.97c-0.19-0.15-0.38-0.3-0.57-0.46c-0.78-0.62-1.57-1.23-2.37-1.82c-0.02-0.02-0.05-0.03-0.07-0.05
		c-0.84-0.62-1.69-1.22-2.55-1.81c-0.17-0.12-0.35-0.24-0.53-0.36c-0.86-0.58-1.72-1.15-2.6-1.7c0,0,0,0,0,0
		c-0.91-0.58-1.84-1.13-2.77-1.68c-0.14-0.08-0.28-0.16-0.43-0.25c-1.89-1.09-3.82-2.13-5.8-3.1c-0.09-0.04-0.17-0.09-0.26-0.13
		c-2.04-1-4.13-1.95-6.26-2.83c-0.01-0.01-0.02-0.01-0.04-0.02C809.88,1.53,782.27-1.22,753.89,0.5
		c-31.34,25.85-53.49,61.38-59.72,100.4c-12.58,100.45,51.84,201.68,2.62,300.89c-3.05,5.62-6.43,10.78-10.05,15.61
		c10.39-1.09,16.67-2.26,18.86-2.7c0.58-0.12,0.89-0.19,0.89-0.19v0l0,0l8.88,35.96l7.38,29.91L886,447.26c0,0-0.39-1.02-1.05-2.93
		c-0.09-0.27-0.19-0.57-0.3-0.88c-0.21-0.62-0.44-1.31-0.69-2.07c-0.25-0.76-0.52-1.59-0.8-2.49c-0.28-0.9-0.58-1.86-0.9-2.88
		c-0.16-0.51-0.32-1.04-0.48-1.59c-1.7-5.69-3.71-13.07-5.65-21.75c-0.21-0.93-0.42-1.87-0.62-2.83c-0.73-3.41-1.45-6.99-2.13-10.74
		c-0.15-0.81-0.29-1.63-0.44-2.45c-5.45-31.24-8.14-72.82,3.53-112.59c3.53-12.05,7.34-24.69,11-37.72c0.2-0.71,0.4-1.42,0.59-2.13
		c0.29-1.02,0.57-2.05,0.85-3.08c9.08-33.01,16.87-68.28,16.63-102.46C905.52,134.43,905.36,130.21,905.07,126.01z"/>
	<path class="st14" d="M746.13,345.36c35.77-91.63,14.38-242.67-85.14-272.77c-30.8-9.8-65.56,36.56-97.81,27.98
		c6.98-14.25,15.16-26.55,22.84-37.6c26.7-38.43,209.02-101.79,278.41-31s34.95,173.98,12.03,252.08
		c-7.76,26.44-8.59,53.87-8.33,81.2c0.22,23.94,21.69,41.58,43.2,50.27c11.23,4.54,24.26,7.33,31.44,17.08
		c5.78,7.84,6.21,18.7,3.15,27.95c-3.06,9.25-9.18,17.16-15.72,24.38c-27.93,30.83-65.27,52.26-104.89,64.96
		c-21.26,6.81-43.82,11.25-65.91,7.99c-25.75-3.8-49.73-18.44-64.87-39.62c-5.17-7.24-9.45-16.62-5.93-24.8
		c3.2-7.43,11.49-10.91,18.17-15.48c12.98-8.88,10.03-21.63,6.86-34.59c-0.43-1.77-7.07-28.93-7.14-28.92c0,0-26.08,5.99-77.99,4.99
		c-9.06-0.17-17.05-5.34-24.08-13.73c0.84-0.31,1.69-0.61,2.56-0.88C656.85,389.32,722.64,404.19,746.13,345.36z"/>
	
		<ellipse transform="matrix(0.9546 -0.2979 0.2979 0.9546 -36.0901 201.2479)" class="st12" cx="642.07" cy="219" rx="12.31" ry="20.52"/>
	
		<ellipse transform="matrix(0.9546 -0.2979 0.2979 0.9546 -46.3821 179.9776)" class="st12" cx="567.16" cy="242.13" rx="10.26" ry="19.5"/>
	<path class="st12" d="M661.41,158.43c-1.81-1.9-14.61-14.3-32.46-7.84c-4.16,1.51-8.71-0.94-10.17-5.46
		c-1.46-4.52,0.73-9.41,4.89-10.92c19.1-6.91,34.49,0.85,41.97,6.09c9.95,6.97,10.39,11.51,10.54,12.99
		c0.47,4.75-2.71,8.95-7.09,9.37C665.9,162.98,662.96,161.23,661.41,158.43z M660.3,154.89C660.3,154.89,660.3,154.88,660.3,154.89
		C660.3,154.88,660.3,154.89,660.3,154.89z M660.3,154.88c0,0,0-0.01,0-0.01C660.3,154.87,660.3,154.87,660.3,154.88z M660.3,154.87
		c0,0,0-0.01,0-0.01C660.3,154.86,660.3,154.86,660.3,154.87z"/>
	<path class="st12" d="M545.23,193.25c-1.15,0.27-2.26-0.1-3.3-1.53c-1.36-1.88-2.5-3.93-3.38-6.11
		c-3.24-7.98,7.26-17.24,16.34-17.72c5.67-0.3,9.42,3.51,8.39,8.51c-0.75,3.63-3.81,6.89-7.6,8.52
		C552.25,186.41,548.55,192.47,545.23,193.25z"/>
	<path class="st12" d="M701.31,278.02c0,0-52.79,70.33-128.19,53.81l3.4,10.9c0,0,59.19,22.25,126.88-63.62l7.87,2.79
		c0,0-7.77-8.07-17.83-6.68L701.31,278.02z"/>
	<path class="st1" d="M670.88,305.94c0.03,2.07-0.11,4.11-0.38,6.1c-33.63,29.5-62.77,34.57-80.08,34.16
		c-4.48-3.22-8.52-6.94-10.98-11.87C617.9,339.36,649.82,322.4,670.88,305.94z"/>
	<polygon class="st15" points="591.73,205.23 555.71,289.57 586.68,299.26 625.98,280.54 	"/>
	<path class="st13" d="M586.68,299.26l-30.97-9.68l70.28-9.04l-2.25,1.07c0,0-7.74,38.51-19.47,42.17
		c-9.88,3.08-15.85-17.88-17.49-24.57L586.68,299.26z"/>
	<path class="st16" d="M816.68,208.41c4.7-12.26,12.62-21.82,22.47-31.12c10.92-10.31,25.75-18.37,40.91-12.6
		c34.15,12.99,35.73,66.24,11.11,97.58c-24.62,31.33-60.61,12.47-68.19,1.94c-9.73-13.5-12.7-33.81-8.3-49.7
		C815.26,212.4,815.93,210.37,816.68,208.41z"/>
	<path class="st9" d="M688.6,493.48c3.2-7.43,11.49-10.91,18.17-15.48c12.98-8.88,10.03-21.63,6.86-34.59
		c-0.43-1.76-6.99-28.64-7.13-28.89c0-0.01,0-0.02-0.01-0.03c-4.77,0.97-18,0.29-21.02,3.02c12.52-11.31,23.55-24.05,32.69-38.07
		c11.73-7.2,21.47-17.81,27.96-34.08c31.01-79.42,19.02-203.41-49.5-254.66c13.11-55.21,65.39-79.9,121.96-84.54c0,0,0,0,0,0
		c4.35,1.22,8.57,2.65,12.66,4.28c0.19,0.07,0.37,0.15,0.56,0.22c3.96,1.6,7.78,3.41,11.45,5.42c0.28,0.16,0.56,0.32,0.84,0.47
		c1.56,0.87,3.08,1.79,4.58,2.74c0.27,0.17,0.54,0.34,0.81,0.51c1.67,1.09,3.3,2.22,4.9,3.41c0.27,0.2,0.53,0.41,0.79,0.62
		c1.3,0.99,2.57,2.03,3.81,3.09c0.4,0.34,0.8,0.68,1.19,1.03c1.45,1.29,2.88,2.62,4.25,4.01c0,0,0.01,0,0.01,0.01
		c1.95,1.99,3.79,4.01,5.57,6.04c0.35,0.4,0.71,0.8,1.05,1.2c1.69,1.97,3.32,3.97,4.86,5.98c0.3,0.39,0.58,0.78,0.88,1.17
		c1.46,1.94,2.86,3.89,4.19,5.87c0.14,0.2,0.28,0.4,0.42,0.61c1.38,2.08,2.68,4.19,3.93,6.31c0.29,0.49,0.58,0.98,0.86,1.47
		c1.19,2.08,2.33,4.18,3.4,6.3c0.21,0.42,0.41,0.84,0.61,1.26c0.94,1.91,1.82,3.83,2.67,5.76c0.18,0.42,0.38,0.85,0.56,1.27
		c0.89,2.11,1.72,4.24,2.5,6.38c0.23,0.62,0.45,1.25,0.67,1.87c0.74,2.11,1.44,4.24,2.08,6.38c0.16,0.52,0.29,1.05,0.44,1.57
		c0.51,1.79,0.99,3.59,1.44,5.39c0.17,0.68,0.34,1.35,0.5,2.03c0.48,2.06,0.91,4.12,1.31,6.2c0.16,0.82,0.3,1.65,0.45,2.47
		c0.31,1.75,0.59,3.5,0.84,5.26c0.15,1.04,0.28,2.09,0.41,3.13c0.19,1.54,0.36,3.08,0.52,4.62c0.1,0.98,0.2,1.96,0.28,2.94
		c0.16,1.91,0.29,3.83,0.39,5.75c0.06,1.1,0.1,2.21,0.14,3.32c0.04,1.21,0.07,2.42,0.1,3.63c0.03,1.81,0.05,3.62,0.03,5.44
		c-0.01,1.07-0.01,2.14-0.04,3.21c-0.03,1.32-0.06,2.64-0.11,3.96c-0.03,0.82-0.08,1.65-0.11,2.48c-0.11,2.35-0.25,4.71-0.43,7.07
		c-0.05,0.63-0.1,1.25-0.15,1.88c-0.24,2.97-0.53,5.93-0.87,8.9c-0.01,0.1-0.02,0.2-0.03,0.29c-0.58,5.07-1.29,10.15-2.11,15.22
		c11.23,22.09,6.98,55.39-10.51,77.65c-3.61,4.59-7.46,8.07-11.43,10.7c-1.11,3.75-2.2,7.45-3.27,11.09c0,0.01,0,0.01,0,0.02
		c-2.8,9.52-4.85,17.12-5.2,23.98c-2.9,18.87-3.31,38.06-3.13,57.2c0.22,23.93,21.69,41.58,43.2,50.27
		c11.23,4.54,24.26,7.33,31.44,17.08c5.78,7.85,6.21,18.7,3.15,27.95c-3.06,9.25-9.18,17.16-15.72,24.38
		c-27.93,30.83-65.27,52.26-104.89,64.96c-21.26,6.81-43.82,11.26-65.91,7.99c-25.75-3.8-49.73-18.44-64.87-39.62
		C689.36,511.04,685.09,501.66,688.6,493.48z"/>
	<path class="st17" d="M697.56,406.54c40.53-14.8,109.73-103.04,111.69-103.66c1.73-0.54-13.93,141.37-87.89,171.82l-14.86-60.21
		c0,0-26.08,5.99-77.99,4.99c-7.23-0.14-13.78-3.46-19.7-9.05C609.01,410.49,657.12,421.31,697.56,406.54z"/>
	<path class="st18" d="M955.1,337.13c-23.64-12.4-60.57-14.67-93.93,18.52c-33.36,33.18-81.07,79.19-119.96,83.92
		c-38.89,4.73-49.85-8.55-74.14-1.55c-24.29,7-43.45,43.97-18.05,87.38s102.99,80.36,210.01,15.21S1028.94,375.87,955.1,337.13z"/>
	<g>
		<polygon class="st19" points="90.06,502.19 76.2,513.99 98.71,512.34 112.57,500.54 		"/>
		<polygon class="st19" points="107.6,487.23 93.75,499.04 116.26,497.39 130.11,485.58 		"/>
		<polygon class="st19" points="120.98,502.93 134.83,491.12 129.64,513.09 115.79,524.89 		"/>
		<polygon class="st19" points="103.44,517.88 117.29,506.08 112.1,528.04 98.24,539.85 		"/>
		<path class="st20" d="M183.26,440.27l-90.09,76.8c-0.51,0.43,0.13,2.03,1.44,3.56s2.77,2.42,3.28,1.98l90.09-76.8
			c0.51-0.43-0.13-2.03-1.44-3.56S183.77,439.84,183.26,440.27z"/>
		
			<ellipse transform="matrix(0.761 -0.6487 0.6487 0.761 -242.5416 226.5795)" class="st19" cx="186.27" cy="442.49" rx="2.56" ry="6.4"/>
		<path class="st19" d="M201.38,422.62c-2.71-2.44-5.85-4.25-8.79-3.31c-1.22,0.39-2.24,1.37-3.19,2.18
			c-6.44,5.49-7.61,14.7-2.61,20.56c5,5.86,14.27,6.17,20.72,0.67c4.75-4.04,2.45-9.79-0.73-14.01
			C205.5,427.03,203.59,424.61,201.38,422.62z"/>
		<path class="st19" d="M202.68,421.35c-1.73-1.64-3.71-3.28-5.96-4.08c-1.63-0.58-4.92-1.3-4.46,1.41c0.14,0.82,0.6,1.55,1.06,2.25
			c3.31,4.97,7.32,9.43,11.35,13.84c1.71,1.88,3.48,3.79,5.7,4.98c2.78,1.5,3.38-1.14,2.68-3.3c-0.94-2.89-2.34-5.65-4.21-8.08
			C207.37,426.45,205.16,423.69,202.68,421.35z"/>
		
			<ellipse transform="matrix(0.761 -0.6487 0.6487 0.761 -314.398 186.2024)" class="st19" cx="95.54" cy="519.84" rx="1.21" ry="3.64"/>
	</g>
	<g>
		<polygon class="st19" points="201.88,482.21 190.51,496.42 212.3,490.54 223.67,476.33 		"/>
		<polygon class="st19" points="216.28,464.2 204.91,478.42 226.7,472.54 238.07,458.32 		"/>
		<polygon class="st19" points="232.39,477.09 243.75,462.87 242.81,485.42 231.44,499.64 		"/>
		<polygon class="st19" points="217.99,495.09 229.36,480.88 228.41,503.43 217.05,517.64 		"/>
		<path class="st20" d="M281.69,403.77l-73.93,92.46c-0.42,0.52,0.52,1.97,2.09,3.22c1.57,1.26,3.18,1.85,3.6,1.33l73.93-92.46
			c0.42-0.52-0.52-1.97-2.09-3.22S282.1,403.25,281.69,403.77z"/>
		
			<ellipse transform="matrix(0.6245 -0.781 0.781 0.6245 -209.5797 374.8602)" class="st19" cx="285.05" cy="405.39" rx="2.56" ry="6.4"/>
		<path class="st19" d="M296.14,383.02c-3.12-1.89-6.55-3.07-9.26-1.58c-1.12,0.61-1.94,1.77-2.73,2.74
			c-5.29,6.61-4.69,15.87,1.32,20.69c6.02,4.81,15.18,3.35,20.47-3.26c3.89-4.87,0.55-10.08-3.36-13.62
			C301.01,386.56,298.68,384.55,296.14,383.02z"/>
		<path class="st19" d="M297.17,381.52c-2.01-1.28-4.27-2.52-6.62-2.88c-1.71-0.26-5.07-0.35-4.11,2.23
			c0.29,0.78,0.88,1.41,1.47,2.01c4.19,4.25,8.98,7.87,13.77,11.44c2.04,1.52,4.14,3.06,6.54,3.81c3.01,0.94,3.11-1.76,2.01-3.75
			c-1.47-2.66-3.37-5.1-5.66-7.13C302.74,385.64,300.04,383.35,297.17,381.52z"/>
		
			<ellipse transform="matrix(0.6245 -0.781 0.781 0.6245 -310.2648 351.6749)" class="st19" cx="210.6" cy="498.5" rx="1.21" ry="3.64"/>
	</g>
	<g>
		
			<ellipse transform="matrix(0.9989 -0.0477 0.0477 0.9989 -6.065 27.8394)" class="st21" cx="580.67" cy="141.08" rx="38.4" ry="62.08"/>
		
			<ellipse transform="matrix(0.9989 -0.0477 0.0477 0.9989 -6.1038 27.5818)" class="st1" cx="575.25" cy="141.77" rx="28.19" ry="45.23"/>
		
			<ellipse transform="matrix(0.9905 -0.1374 0.1374 0.9905 -14.508 79.9913)" class="st21" cx="572.07" cy="145.07" rx="18.67" ry="29.51"/>
	</g>
	<g>
		<polygon class="st19" points="289.32,290.1 272.62,297.33 294.63,302.34 311.33,295.11 		"/>
		<polygon class="st19" points="310.48,280.93 293.78,288.17 315.78,293.18 332.48,285.94 		"/>
		<polygon class="st19" points="318.68,299.86 335.38,292.62 323.98,312.1 307.28,319.34 		"/>
		<polygon class="st19" points="297.52,309.02 314.22,301.79 302.83,321.27 286.13,328.51 		"/>
		<path class="st20" d="M396.57,258.17l-108.62,47.07c-0.61,0.27-0.47,1.98,0.33,3.82c0.8,1.84,1.95,3.12,2.56,2.86l108.62-47.07
			c0.61-0.27,0.47-1.98-0.33-3.82S397.19,257.9,396.57,258.17z"/>
		
			<ellipse transform="matrix(0.9176 -0.3976 0.3976 0.9176 -70.9665 180.0893)" class="st19" cx="398.79" cy="261.18" rx="2.56" ry="6.4"/>
		<path class="st19" d="M419.06,246.6c-1.87-3.13-4.35-5.78-7.44-5.74c-1.28,0.02-2.54,0.65-3.69,1.15
			c-7.77,3.37-11.58,11.83-8.52,18.9c3.06,7.07,11.84,10.07,19.61,6.71c5.72-2.48,5.21-8.64,3.41-13.61
			C421.71,252.01,420.59,249.15,419.06,246.6z"/>
		<path class="st19" d="M420.67,245.77c-1.18-2.07-2.59-4.23-4.5-5.65c-1.39-1.03-4.32-2.68-4.68,0.05
			c-0.11,0.82,0.12,1.66,0.36,2.47c1.71,5.72,4.24,11.16,6.81,16.56c1.09,2.3,2.22,4.64,4,6.43c2.22,2.24,3.57-0.1,3.53-2.37
			c-0.05-3.04-0.59-6.09-1.66-8.96C423.67,252.01,422.35,248.73,420.67,245.77z"/>
		
			<ellipse transform="matrix(0.9176 -0.3976 0.3976 0.9176 -98.8322 140.5022)" class="st19" cx="289.4" cy="308.58" rx="1.21" ry="3.64"/>
	</g>
	<g>
		<polygon class="st19" points="429.24,139.27 411.12,141.01 430.51,152.56 448.63,150.82 		"/>
		<polygon class="st19" points="452.19,137.07 434.07,138.81 453.46,150.35 471.58,148.61 		"/>
		<polygon class="st19" points="454.16,157.6 472.28,155.86 455.43,170.89 437.32,172.63 		"/>
		<polygon class="st19" points="431.21,159.8 449.33,158.06 432.49,173.09 414.37,174.83 		"/>
		<path class="st20" d="M541.11,141.94l-117.84,11.31c-0.67,0.06-1.05,1.74-0.86,3.74c0.19,2,0.89,3.57,1.56,3.51l117.84-11.31
			c0.67-0.06,1.05-1.74,0.86-3.74C542.47,143.45,541.77,141.88,541.11,141.94z"/>
		
			<ellipse transform="matrix(0.9954 -0.0956 0.0956 0.9954 -11.4211 52.4906)" class="st19" cx="542.29" cy="145.48" rx="2.56" ry="6.4"/>
		<path class="st19" d="M566.07,137.86c-0.82-3.55-2.36-6.84-5.31-7.75c-1.22-0.38-2.62-0.17-3.87-0.05
			c-8.43,0.81-14.66,7.68-13.93,15.35c0.74,7.67,8.16,13.23,16.59,12.42c6.21-0.6,7.62-6.62,7.44-11.9
			C566.92,143.83,566.73,140.75,566.07,137.86z"/>
		<path class="st19" d="M567.86,137.56c-0.48-2.33-1.16-4.82-2.54-6.76c-1-1.41-3.28-3.89-4.47-1.4c-0.36,0.75-0.4,1.62-0.42,2.46
			c-0.14,5.97,0.6,11.93,1.37,17.85c0.33,2.52,0.69,5.1,1.82,7.35c1.42,2.82,3.43,1,4.09-1.17c0.89-2.9,1.32-5.97,1.18-9.03
			C568.78,144.43,568.55,140.9,567.86,137.56z"/>
		
			<ellipse transform="matrix(0.9954 -0.0956 0.0956 0.9954 -13.0531 41.2012)" class="st19" cx="423.62" cy="156.88" rx="1.21" ry="3.64"/>
	</g>
	<path class="st4" d="M709.18,992.03c-15.65-1.1-29.94-3.52-44.8-7.73c-13.34-3.78-19.9-8.89-23.54,12.49
		c-3.12,18.36-6.25,36.72-9.37,55.07c-0.92,5.44-1.85,11.03-0.69,16.42c2.69,12.52,15.3,19.9,26.68,25.76
		c7.88,4.06,16.21,8.22,25.06,7.88c19.05-0.73,23.99-27.03,25.82-41.97C711.13,1037.27,712.09,1014.16,709.18,992.03z"/>
	<path class="st17" d="M876.47,284.05c-1.51,5.15-2.78,10.33-3.83,15.52c-22.95,3.38-41.86-14.88-45.55-24.2
		c-6.13-15.47-4.04-35.89,4.11-50.22c1.08-1.9,2.22-3.7,3.43-5.41c7.56-10.73,17.57-18.07,29.4-24.68
		c11.22-6.27,24.8-10.2,36.81-5.4C895.07,222.62,884.98,255.06,876.47,284.05z"/>
	<path class="st9" d="M816.68,208.41c4.7-12.26,12.62-21.82,22.47-31.12c10.92-10.31,25.75-18.37,40.91-12.6
		c34.15,12.99,35.73,66.24,11.11,97.58c-24.62,31.33-60.61,12.47-68.19,1.94c-9.73-13.5-12.7-33.81-8.3-49.7
		C815.26,212.4,815.93,210.37,816.68,208.41z"/>
</g>
</svg>
