<?xml version="1.0" encoding="utf-8"?>
<!-- Generator: Adobe Illustrator 24.0.0, SVG Export Plug-In . SVG Version: 6.00 Build 0)  -->
<svg version="1.1" id="Capa_1" xmlns="http://www.w3.org/2000/svg" xmlns:xlink="http://www.w3.org/1999/xlink" x="0px" y="0px"
	 viewBox="0 0 875.94 1339.8" style="enable-background:new 0 0 875.94 1339.8;" xml:space="preserve">
<style type="text/css">
	.st0{fill:#BFCDD5;}
	.st1{fill:#F1EFF0;}
	.st2{fill:#BACFD7;}
	.st3{fill:#91B2BE;}
	.st4{fill:#FF4D27;}
	.st5{fill:#FFFFFF;}
	.st6{fill:#73676D;}
	.st7{opacity:0.52;fill:#903E19;}
	.st8{fill:#F3F0F1;}
	.st9{fill:#6694A5;}
	.st10{fill:#261A37;}
	.st11{fill:#100424;}
	.st12{fill:#CEEEF0;}
	.st13{fill:#A26C32;}
	.st14{fill:#7F4D0E;}
	.st15{opacity:0.26;fill:#100424;}
	.st16{fill:#9D999E;}
</style>
<g>
	<path class="st0" d="M190.22,163.43c-9.93,12.42-18.08,26.37-23.95,41.83c-23.99,63.21-61.2,108.34-97.67,164.73
		C8.72,462.57-14.77,579.04,9.37,686.62s96.89,204.26,195.8,252.97c51.59,25.41,109.76,37.02,167.15,34.38
		c61.18-2.81,108.43-25.76,162.45-50.05c72.12-32.42,141.47-73.56,195.45-132.18c24.52-26.63,47.58-56.48,51.21-93.96
		c1.02-10.58-4.28-21.47-3.69-32.32c0.95-17.28,7.49-34.24,16.26-48.99c34.94-58.76,89.56-94.27,81.04-171.66
		c-7.37-66.91-53-128.89-109.35-163.81c-46.05-28.54-100.38-40.64-148.55-65.44c-64.03-32.96-116.14-87.79-183.71-112.69
		C353.34,73.38,244.82,95.16,190.22,163.43z"/>
	<path class="st0" d="M63.4,242.74c18.28-3.21,47.43-23.38,43.62-45.36c-3.4-19.63-32.69-24.01-48.3-16.81
		C32.86,192.51,23.46,249.76,63.4,242.74z"/>
	<g>
		<path class="st1" d="M806.5,954.23c0,10.1-1.07,20.06-1.42,30.1c-0.37,10.85,3.14,21.4,3.49,32.21
			c0.31,9.37-1.77,18.81-5.99,27.19c-3.54,7.02-9.1,13.11-12.22,20.31c-3.19,7.36-4.92,15.72-7.75,23.3
			c-9.12,24.47-20.78,47.99-34.72,70.07c-13.81,21.88-29.85,42.35-47.78,61c-2.67,2.77-5.38,5.51-8.12,8.2
			c-8.87,8.68-18.16,16.94-27.83,24.72c-4.83,3.89-9.76,7.67-14.78,11.32c-4.34,3.16-8.87,5.68-11.35,10.6
			c-1.56,3.1-3.56,5.96-5.56,8.8c-1.29,1.84-2.59,3.69-4.24,5.21c-1.63,1.51-3.57,2.66-5.54,3.69c-8.04,4.18-17.06,6.46-26.11,6.6
			c-8.62,0.14-16.12,5.08-23.95,8.37c-24.46,10.26-49.99,17.93-76.06,22.86c-13.33,2.52-26.79,4.33-40.31,5.41
			c-6.86,0.55-13.74,0.92-20.63,1.1c-3.33,0.09-6.67,0.14-10,0.1c-4.38-0.04-7.81,1.71-11.93,2.93c-2.97,0.88-6.09,1.12-9.18,1.27
			c-10.36,0.51-20.77,0.07-31.05-1.3c-2.94-0.39-5.88-0.87-8.69-1.8c-1.81-0.6-3.55-1.39-5.23-2.28c-3.43-1.83-6.62-5.21-10.21-6.48
			c-3.92-1.39-8.67-1.74-12.76-2.71c-8.9-2.12-17.72-4.57-26.44-7.32c-17.31-5.47-34.09-12.28-50.49-20.05
			c-20.77-10.03-40.61-21.97-59.22-35.59c-9.26-6.78-18.22-13.97-26.83-21.55c-10.11-8.9-17.44-12.44-30.31-16.84
			c-5.6-1.91-11.36-3.92-15.79-7.84c-3.06-2.71-5.32-6.2-7.53-9.65c-5.56-8.65-11.2-17.53-13.51-27.55
			c-2.02-8.77-2.5-17.42-6.57-25.62c-4.32-8.71-9.82-16.9-14.25-25.58c-8.83-17.28-16.33-35.24-22.41-53.67
			c-12.7-38.5-19.12-79-19.12-119.54c0-12.11,2.47-24.95,1.4-36.83c-1.23-13.75-2.67-27.41-1.11-41.21
			c1.03-9.15,3.28-18.13,5.8-26.99c2.99-10.51,6.48-21.09,12.77-30.03c7.43-10.57,13.91-20.33,19.59-31.96
			c5.29-10.83,11.09-21.41,17.38-31.69c12.51-20.44,26.95-39.7,43.07-57.45c6.38-7.03,11.87-11.85,15.93-20.28
			c4.08-8.47,10.57-15.58,17.33-21.99c3.08-2.92,6.3-5.77,10.07-7.71c6.53-3.36,13.97-4.6,20.63-7.76
			c6.14-2.91,11.69-6.54,17.47-10.13c14.22-8.84,29.01-16.74,44.27-23.63c22.97-10.36,48.1-20.03,73.03-24.32
			c10.88-1.87,20.08-7.7,30.7-11.07c12.06-3.83,24.72-5.82,37.37-5.82c6.08,0,12.25,0.47,18.01,2.43
			c6.68,2.28,12.47,5.81,19.65,6.28c7.94,0.52,15.86,0.77,23.82,1.73c16.13,1.96,32.14,4.95,47.89,8.93
			c31.53,7.98,62.04,19.99,90.5,35.75c22.38,12.39,42.61,27.41,64.83,40.18c4.57,2.63,9.21,5.31,12.86,9.13
			c4.1,4.3,6.71,9.78,9.05,15.24c4.32,10.07,16.53,18.8,23.6,27.39c9.05,11.01,17.49,22.53,25.25,34.48
			c5.63,8.67,10.91,17.57,15.82,26.68c4.95,9.19,7.7,19.69,15.12,26.97c7.77,7.62,13.28,17.52,15.66,28.14
			c1.34,5.96,1.71,12.1,2.08,18.2c1.04,17.37,5.92,33.92,8.46,51.18C805.13,916.67,806.5,935.45,806.5,954.23z"/>
		<path class="st2" d="M795.9,1014.6c-0.34-10.48-3.74-20.71-3.38-31.23c0.34-9.74,1.37-19.4,1.37-29.19
			c0-18.21-1.32-36.42-3.97-54.44c-2.46-16.73-7.18-32.79-8.18-49.63c-0.35-5.92-0.71-11.87-2.01-17.65
			c-2.31-10.3-7.63-19.89-15.14-27.28c-7.17-7.06-9.83-17.25-14.62-26.16c-4.74-8.83-9.85-17.46-15.29-25.87
			c-7.5-11.59-15.66-22.76-24.42-33.44c-6.83-8.33-18.64-16.8-22.81-26.56c-2.26-5.3-4.78-10.62-8.75-14.78
			c-3.52-3.7-8.01-6.3-12.43-8.85c-21.48-12.39-41.04-26.95-62.68-38.97c-27.51-15.28-57.01-26.92-87.5-34.67
			c-15.23-3.87-30.71-6.76-46.3-8.66c-7.7-0.94-15.35-1.18-23.03-1.68c-6.94-0.45-12.54-3.88-19-6.09
			c-5.57-1.91-11.53-2.36-17.41-2.36c-12.24,0-24.47,1.93-36.14,5.64c-10.27,3.27-19.16,8.92-29.68,10.73
			c-24.11,4.16-48.41,13.54-70.61,23.59c-0.68,0.31-1.36,0.63-2.04,0.94l-7.66,31.69c0,0,43.24,2.99,90.38-6.76
			c47.14-9.75,123.54,32.51,159.3,73.15s104.03,82.9,95.91,209.7c-8.13,126.79-27.63,178.81-76.4,216.2
			c-48.77,37.39-55.27,73.15-107.29,82.9s-100.78,22.76-147.92,17.88s-76.4-6.32-108.91-20.23c0,0,0,0,0,0
			c4.19,2.37,8.15,5.25,12.69,9.26c8.33,7.35,16.99,14.33,25.94,20.9c18,13.21,37.18,24.78,57.26,34.51
			c15.86,7.53,32.08,14.13,48.81,19.44c8.43,2.67,16.96,5.04,25.57,7.1c3.95,0.95,8.54,1.28,12.33,2.63
			c3.46,1.23,6.55,4.51,9.87,6.29c1.63,0.87,3.31,1.63,5.06,2.21c2.72,0.9,5.56,1.36,8.4,1.74c9.94,1.33,20,1.76,30.02,1.26
			c2.99-0.15,6.01-0.38,8.88-1.23c3.98-1.18,7.3-2.88,11.53-2.84c3.22,0.03,6.45-0.02,9.67-0.1c6.66-0.18,13.31-0.53,19.94-1.07
			c13.07-1.05,26.09-2.8,38.97-5.25c25.2-4.78,49.89-12.22,73.54-22.17c7.58-3.19,14.82-7.98,23.16-8.11
			c8.76-0.14,17.48-2.35,25.25-6.4c1.91-0.99,3.78-2.11,5.36-3.57c1.59-1.48,2.85-3.27,4.1-5.05c1.93-2.75,3.87-5.52,5.37-8.53
			c2.39-4.78,6.78-7.22,10.97-10.28c4.85-3.54,9.62-7.2,14.29-10.97c9.35-7.55,18.33-15.55,26.9-23.97
			c2.66-2.61,5.28-5.26,7.86-7.95c17.34-18.09,32.85-37.93,46.2-59.15c13.48-21.41,24.75-44.22,33.57-67.95
			c2.73-7.35,4.41-15.46,7.49-22.59c3.02-6.98,8.39-12.89,11.81-19.7C794.19,1032.85,796.2,1023.69,795.9,1014.6z"/>
		
			<ellipse transform="matrix(0.208 -0.9781 0.9781 0.208 -491.6839 1315.8281)" class="st2" cx="566.73" cy="961.55" rx="100.78" ry="90.22"/>
		
			<ellipse transform="matrix(0.5614 -0.8275 0.8275 0.5614 -525.2471 541.5388)" class="st2" cx="248.28" cy="766.3" rx="80.49" ry="52.48"/>
		<ellipse class="st2" cx="401.74" cy="855.89" rx="42.26" ry="48.77"/>
		
			<ellipse transform="matrix(0.9975 -0.0705 0.0705 0.9975 -69.0338 18.5106)" class="st2" cx="227.8" cy="987.56" rx="34.14" ry="43.89"/>
		
			<ellipse transform="matrix(0.1739 -0.9848 0.9848 0.1739 -842.954 862.9955)" class="st2" cx="92.88" cy="933.91" rx="34.14" ry="16.26"/>
		
			<ellipse transform="matrix(0.8965 -0.443 0.443 0.8965 -478.8 179.7644)" class="st2" cx="145.41" cy="1114.82" rx="19.88" ry="48.73"/>
		
			<ellipse transform="matrix(0.9289 -0.3704 0.3704 0.9289 -228.6826 241.2748)" class="st2" cx="513.9" cy="716.09" rx="48.77" ry="55.27"/>
		
			<ellipse transform="matrix(0.9722 -0.2342 0.2342 0.9722 -161.0151 179.216)" class="st2" cx="674.21" cy="767.68" rx="26.59" ry="39.01"/>
		<path class="st3" d="M665.93,782.62c-4.32-17.93,1.92-34.82,13.95-37.71c5.22-1.26,10.68,0.34,15.53,4.01
			c-7.11-13.72-19.15-21.86-30.34-19.16c-14.28,3.44-21.76,23.21-16.71,44.15c4.69,19.48,18.57,33.11,31.97,32.16
			C673.87,801.33,668.42,792.93,665.93,782.62z"/>
		
			<ellipse transform="matrix(0.9798 -0.1999 0.1999 0.9798 -162.6045 167.635)" class="st3" cx="748.8" cy="889.01" rx="14.4" ry="23.13"/>
		
			<ellipse transform="matrix(0.5 -0.866 0.866 0.5 -706.4842 1090.8324)" class="st3" cx="591.45" cy="1157.25" rx="38.6" ry="23.32"/>
		
			<ellipse transform="matrix(0.9975 -0.0712 0.0712 0.9975 -41.3222 30.3348)" class="st3" cx="404.99" cy="594.99" rx="45.52" ry="13.82"/>
		<path class="st3" d="M372.59,601.48c-0.54-7.61,19.34-15.23,44.42-17.02c9.78-0.7,18.89-0.4,26.41,0.67
			c-8.22-3.44-22.88-5.1-39.42-3.92c-25.07,1.79-44.96,9.41-44.42,17.02c0.33,4.64,8.2,8.21,19.97,9.88
			C375.31,606.32,372.78,604.07,372.59,601.48z"/>
		
			<ellipse transform="matrix(0.5 -0.866 0.866 0.5 -276.8256 805.0461)" class="st2" cx="558.78" cy="642.26" rx="11.97" ry="36.78"/>
		<path class="st3" d="M565.87,653.79c-14.04-8.11-23.28-18.39-20.63-22.97c1.98-3.43,10.08-2.69,19.93,1.32
			c-0.14-0.08-0.26-0.16-0.4-0.24c-17.59-10.16-34.53-13.75-37.84-8.03c-3.31,5.72,8.28,18.6,25.87,28.76
			c15.52,8.96,30.51,12.8,36.11,9.66C583.06,661.81,574.57,658.81,565.87,653.79z"/>
		<path class="st2" d="M465.13,1203.75c0,32.32-31.29,58.52-69.9,58.52s-69.9-26.2-69.9-58.52c0-31.57,27.27-49.85,54.43-58
			c4.29-1.29,8.6-2.58,13.03-3.31c12.33-2.04,25.5,0.57,35.75,7.73C447.28,1163.25,465.13,1178.97,465.13,1203.75z"/>
		<circle class="st2" cx="357.85" cy="1007.06" r="26.01"/>
		<g>
			<g>
				<path class="st2" d="M335.09,1149.3c-0.62,0-1.25-0.24-1.72-0.71l-24.38-24.38c-0.95-0.95-0.95-2.5,0-3.45
					c0.95-0.95,2.5-0.95,3.45,0l24.38,24.38c0.95,0.95,0.95,2.5,0,3.45C336.34,1149.06,335.71,1149.3,335.09,1149.3z"/>
				<path class="st2" d="M395.23,1123.29c-1.27,0-2.34-0.99-2.43-2.28l-1.63-24.38c-0.09-1.34,0.93-2.51,2.27-2.6
					c1.33-0.07,2.5,0.93,2.6,2.27l1.63,24.38c0.09,1.34-0.93,2.51-2.27,2.6C395.34,1123.29,395.29,1123.29,395.23,1123.29z"/>
				<path class="st2" d="M309.08,1188.31c-0.04,0-0.09,0-0.14,0l-29.26-1.63c-1.34-0.07-2.37-1.23-2.3-2.57
					c0.08-1.34,1.17-2.36,2.57-2.3l29.26,1.63c1.34,0.07,2.37,1.23,2.3,2.57C311.44,1187.31,310.37,1188.31,309.08,1188.31z"/>
				<path class="st2" d="M294.93,1234.87c-0.96,0-1.87-0.57-2.26-1.52c-0.51-1.25,0.09-2.67,1.34-3.18l25.05-10.21
					c1.25-0.51,2.67,0.09,3.18,1.34c0.51,1.25-0.09,2.67-1.34,3.18l-25.05,10.21C295.55,1234.81,295.24,1234.87,294.93,1234.87z"/>
				<path class="st2" d="M478.14,1167.18c-1.04,0-2-0.67-2.33-1.71c-0.4-1.29,0.31-2.65,1.6-3.05l26.01-8.13
					c1.29-0.41,2.65,0.32,3.05,1.6c0.4,1.29-0.31,2.65-1.6,3.05l-26.01,8.13C478.62,1167.14,478.38,1167.18,478.14,1167.18z"/>
				<path class="st2" d="M440.75,1134.67c-0.47,0-0.94-0.13-1.35-0.41c-1.12-0.75-1.42-2.26-0.68-3.38l16.26-24.38
					c0.75-1.12,2.26-1.42,3.38-0.68s1.42,2.26,0.68,3.38l-16.26,24.38C442.31,1134.29,441.53,1134.67,440.75,1134.67z"/>
				<path class="st2" d="M361.1,1129.79c-0.83,0-1.64-0.42-2.09-1.18l-4.88-8.13c-0.69-1.15-0.32-2.65,0.84-3.34
					c1.15-0.69,2.65-0.32,3.34,0.84l4.88,8.13c0.69,1.15,0.32,2.65-0.84,3.34C361.96,1129.68,361.53,1129.79,361.1,1129.79z"/>
			</g>
			<g>
				<path class="st2" d="M234.3,926.6c-0.42,0-0.84-0.11-1.23-0.33c-1.16-0.68-1.56-2.17-0.88-3.34l11.38-19.51
					c0.68-1.16,2.17-1.55,3.34-0.88c1.16,0.68,1.56,2.17,0.88,3.34l-11.38,19.51C235.96,926.16,235.14,926.6,234.3,926.6z"/>
				<path class="st2" d="M206.67,931.47c-1.12,0-2.13-0.77-2.38-1.91l-6.5-29.26c-0.29-1.31,0.54-2.62,1.85-2.91
					c1.31-0.29,2.62,0.54,2.91,1.85l6.5,29.26c0.29,1.31-0.54,2.62-1.85,2.91C207.02,931.45,206.84,931.47,206.67,931.47z"/>
				<path class="st2" d="M190.41,952.61c-0.44,0-0.89-0.12-1.29-0.37l-13-8.13c-1.14-0.71-1.49-2.22-0.78-3.36
					c0.71-1.14,2.22-1.49,3.36-0.78l13,8.13c1.14,0.71,1.49,2.22,0.78,3.36C192.02,952.2,191.23,952.61,190.41,952.61z"/>
				<path class="st2" d="M161.15,983.49c-1.09,0-2.09-0.74-2.36-1.85c-0.33-1.31,0.47-2.63,1.77-2.96l13-3.25
					c1.31-0.33,2.63,0.47,2.96,1.77c0.33,1.31-0.47,2.63-1.77,2.96l-13,3.25C161.55,983.47,161.35,983.49,161.15,983.49z"/>
				<path class="st2" d="M177.41,1037.13c-0.43,0-0.86-0.11-1.25-0.35c-1.16-0.69-1.53-2.19-0.84-3.34l9.75-16.26
					c0.69-1.16,2.19-1.53,3.34-0.84c1.16,0.69,1.53,2.19,0.84,3.34l-9.75,16.26C179.04,1036.71,178.24,1037.13,177.41,1037.13z"/>
				<path class="st2" d="M205.04,1063.14c-0.33,0-0.67-0.07-0.99-0.21c-1.23-0.55-1.78-1.99-1.24-3.22l6.5-14.63
					c0.55-1.23,1.98-1.79,3.22-1.24c1.23,0.55,1.78,1.99,1.24,3.22l-6.5,14.63C206.87,1062.6,205.98,1063.14,205.04,1063.14z"/>
				<path class="st2" d="M265.19,947.73c-0.7,0-1.39-0.3-1.87-0.88c-0.86-1.03-0.72-2.57,0.31-3.43l9.75-8.13
					c1.03-0.86,2.57-0.72,3.43,0.31c0.86,1.03,0.72,2.57-0.31,3.43l-9.75,8.13C266.3,947.54,265.74,947.73,265.19,947.73z"/>
				<path class="st2" d="M278.19,981.87c-1.27,0-2.34-0.99-2.43-2.28c-0.09-1.34,0.93-2.51,2.27-2.6l24.38-1.63
					c1.32-0.08,2.5,0.93,2.6,2.27c0.09,1.34-0.93,2.51-2.27,2.6l-24.38,1.63C278.3,981.86,278.25,981.87,278.19,981.87z"/>
				<path class="st2" d="M283.07,1033.88c-0.55,0-1.1-0.19-1.56-0.57l-9.75-8.13c-1.04-0.86-1.17-2.4-0.31-3.43
					c0.86-1.04,2.4-1.17,3.43-0.31l9.75,8.13c1.04,0.86,1.17,2.4,0.31,3.43C284.46,1033.58,283.77,1033.88,283.07,1033.88z"/>
				<path class="st2" d="M263.57,1072.9c-0.85,0-1.67-0.44-2.12-1.23l-13-22.76c-0.67-1.17-0.26-2.66,0.91-3.33
					c1.17-0.66,2.66-0.26,3.33,0.91l13,22.76c0.67,1.17,0.26,2.66-0.91,3.33C264.39,1072.79,263.98,1072.9,263.57,1072.9z"/>
			</g>
			<g>
				<path class="st2" d="M518.78,858.32c-0.93,0-1.82-0.53-2.22-1.44L493.8,806.5c-0.55-1.23-0.01-2.67,1.22-3.23
					c1.23-0.56,2.67-0.01,3.23,1.22L521,854.88c0.55,1.23,0.01,2.67-1.22,3.23C519.45,858.26,519.11,858.32,518.78,858.32z"/>
				<path class="st2" d="M487.89,882.71c-0.17,0-0.34-0.02-0.51-0.05l-22.76-4.88c-1.32-0.28-2.16-1.58-1.87-2.9
					c0.28-1.32,1.58-2.15,2.9-1.87l22.76,4.88c1.32,0.28,2.16,1.58,1.87,2.9C490.03,881.92,489.02,882.71,487.89,882.71z"/>
				<path class="st2" d="M437.49,952.61c-1.27,0-2.34-0.99-2.43-2.28c-0.09-1.34,0.93-2.5,2.27-2.6l24.38-1.63
					c1.3-0.1,2.5,0.93,2.6,2.27c0.09,1.34-0.93,2.5-2.27,2.6l-24.38,1.63C437.6,952.6,437.55,952.61,437.49,952.61z"/>
				<path class="st2" d="M578.92,843.69c-1.35,0-2.44-1.09-2.44-2.44V825c0-1.35,1.09-2.44,2.44-2.44s2.44,1.09,2.44,2.44v16.26
					C581.36,842.6,580.27,843.69,578.92,843.69z"/>
				<path class="st2" d="M444,1029.01c-0.77,0-1.54-0.37-2.01-1.06c-0.76-1.11-0.48-2.63,0.63-3.39l26.01-17.88
					c1.11-0.76,2.63-0.48,3.39,0.63c0.76,1.11,0.48,2.63-0.63,3.39l-26.01,17.88C444.96,1028.87,444.48,1029.01,444,1029.01z"/>
				<path class="st2" d="M517.15,1090.78c-0.26,0-0.52-0.04-0.77-0.13c-1.28-0.43-1.97-1.81-1.54-3.08l4.88-14.63
					c0.42-1.28,1.8-1.98,3.08-1.54c1.28,0.43,1.97,1.81,1.54,3.08l-4.88,14.63C519.12,1090.13,518.17,1090.78,517.15,1090.78z"/>
			</g>
			<g>
				<path class="st2" d="M218.05,705.52c-0.81,0-1.61-0.41-2.07-1.15l-8.13-13c-0.71-1.14-0.37-2.65,0.78-3.36
					c1.14-0.71,2.65-0.37,3.36,0.78l8.13,13c0.71,1.14,0.37,2.65-0.78,3.36C218.94,705.4,218.49,705.52,218.05,705.52z"/>
				<path class="st2" d="M183.92,751.04c-0.1,0-0.2-0.01-0.31-0.02l-13-1.63c-1.34-0.17-2.28-1.39-2.12-2.72
					c0.17-1.34,1.39-2.27,2.72-2.12l13,1.63c1.34,0.17,2.28,1.39,2.12,2.72C186.18,750.14,185.13,751.04,183.92,751.04z"/>
				<path class="st2" d="M164.4,801.43c-1.17,0-2.2-0.84-2.4-2.04c-0.22-1.33,0.68-2.59,2-2.81l9.75-1.63
					c1.33-0.22,2.59,0.67,2.81,2c0.22,1.33-0.68,2.59-2,2.81l-9.75,1.63C164.67,801.42,164.54,801.43,164.4,801.43z"/>
				<path class="st2" d="M174.16,845.32c-0.79,0-1.56-0.38-2.03-1.09c-0.75-1.12-0.44-2.63,0.68-3.38l9.75-6.5
					c1.12-0.75,2.64-0.45,3.38,0.68c0.75,1.12,0.44,2.63-0.68,3.38l-9.75,6.5C175.1,845.19,174.63,845.32,174.16,845.32z"/>
				<path class="st2" d="M226.18,881.08c-0.1,0-0.2-0.01-0.31-0.02c-1.34-0.17-2.28-1.39-2.12-2.72l3.25-26.01
					c0.17-1.34,1.39-2.27,2.72-2.12c1.34,0.17,2.28,1.39,2.12,2.72l-3.25,26.01C228.44,880.18,227.39,881.08,226.18,881.08z"/>
				<path class="st2" d="M268.44,686.02c-0.13,0-0.27-0.01-0.4-0.03c-1.33-0.22-2.23-1.48-2-2.81l1.63-9.75
					c0.22-1.33,1.46-2.23,2.81-2c1.33,0.22,2.23,1.48,2,2.81l-1.63,9.75C270.65,685.17,269.61,686.02,268.44,686.02z"/>
				<path class="st2" d="M315.58,703.9c-0.91,0-1.79-0.51-2.2-1.39c-0.58-1.22-0.06-2.67,1.16-3.25l30.89-14.63
					c1.22-0.58,2.67-0.06,3.25,1.16c0.58,1.22,0.06,2.67-1.16,3.25l-30.89,14.63C316.29,703.82,315.93,703.9,315.58,703.9z"/>
				<path class="st2" d="M335.09,759.17c-1.21,0-2.26-0.9-2.42-2.14c-0.17-1.34,0.78-2.56,2.12-2.72l13-1.63
					c1.33-0.16,2.56,0.78,2.72,2.12c0.17,1.34-0.78,2.56-2.12,2.72l-13,1.63C335.29,759.16,335.19,759.17,335.09,759.17z"/>
				<path class="st2" d="M299.33,850.2c-0.97,0-1.88-0.58-2.26-1.53l-6.5-16.26c-0.5-1.25,0.11-2.67,1.36-3.17
					c1.25-0.5,2.67,0.11,3.17,1.36l6.5,16.26c0.5,1.25-0.11,2.67-1.36,3.17C299.93,850.14,299.63,850.2,299.33,850.2z"/>
			</g>
			<g>
				<g>
					<path class="st2" d="M354.6,970.49c-1.35,0-2.44-1.09-2.44-2.44v-22.76c0-1.35,1.09-2.44,2.44-2.44c1.35,0,2.44,1.09,2.44,2.44
						v22.76C357.03,969.39,355.94,970.49,354.6,970.49z"/>
					<path class="st2" d="M323.71,993.24c-0.3,0-0.61-0.06-0.9-0.17l-8.13-3.25c-1.25-0.5-1.86-1.92-1.36-3.17
						c0.5-1.25,1.93-1.86,3.17-1.36l8.13,3.25c1.25,0.5,1.86,1.92,1.36,3.17C325.59,992.67,324.68,993.24,323.71,993.24z"/>
					<path class="st2" d="M312.33,1033.88c-0.62,0-1.25-0.24-1.72-0.71c-0.95-0.95-0.95-2.5,0-3.45l11.38-11.38
						c0.95-0.95,2.5-0.95,3.45,0c0.95,0.95,0.95,2.5,0,3.45l-11.38,11.38C313.58,1033.65,312.95,1033.88,312.33,1033.88z"/>
					<path class="st2" d="M382.23,983.49c-0.86,0-1.69-0.45-2.13-1.25c-0.65-1.18-0.23-2.66,0.95-3.32l14.63-8.13
						c1.17-0.65,2.66-0.23,3.32,0.95c0.65,1.18,0.23,2.66-0.95,3.32l-14.63,8.13C383.04,983.39,382.63,983.49,382.23,983.49z"/>
					<path class="st2" d="M390.36,996.5c-1.09,0-2.09-0.74-2.36-1.85c-0.33-1.31,0.47-2.63,1.77-2.96l6.5-1.63
						c1.3-0.33,2.63,0.47,2.96,1.77c0.33,1.31-0.47,2.63-1.77,2.96l-6.5,1.63C390.75,996.47,390.55,996.5,390.36,996.5z"/>
					<path class="st2" d="M396.86,1055.02c-0.74,0-1.47-0.34-1.95-0.97l-14.63-19.51c-0.81-1.08-0.59-2.61,0.49-3.41
						c1.08-0.8,2.61-0.59,3.41,0.49l14.63,19.51c0.81,1.08,0.59,2.61-0.49,3.41C397.88,1054.86,397.37,1055.02,396.86,1055.02z"/>
				</g>
				<path class="st2" d="M359.47,1056.64c-1.35,0-2.44-1.09-2.44-2.44v-13c0-1.35,1.09-2.44,2.44-2.44s2.44,1.09,2.44,2.44v13
					C361.91,1055.55,360.82,1056.64,359.47,1056.64z"/>
			</g>
		</g>
		
			<ellipse transform="matrix(0.3243 -0.9459 0.9459 0.3243 -766.6887 631.9088)" class="st2" cx="59" cy="852.65" rx="26.68" ry="4.89"/>
		
			<ellipse transform="matrix(0.8802 -0.4746 0.4746 0.8802 -551.0793 201.7285)" class="st2" cx="124.02" cy="1192.39" rx="4.09" ry="21.82"/>
		
			<ellipse transform="matrix(0.0469 -0.9989 0.9989 0.0469 -945.616 1645.6871)" class="st3" cx="389.54" cy="1318.35" rx="4.06" ry="18.69"/>
		
			<ellipse transform="matrix(0.866 -0.5 0.5 0.866 -552.2823 472.6367)" class="st3" cx="605.81" cy="1266.89" rx="18.69" ry="7.18"/>
		
			<ellipse transform="matrix(0.442 -0.897 0.897 0.442 -569.3828 1277.4937)" class="st3" cx="742.11" cy="1096.4" rx="45.52" ry="13.32"/>
		<path class="st4" d="M407.43,40.68C384.67-8.09,280.63,8.16,253,22.79s-63.4,21.13-73.15,13c-1.77-1.47,32.51,89.4,34.14,149.55
			c0,0,53.64,9.75,94.28-8.13s99.16-17.88,130.04,11.38C438.31,188.6,430.18,89.44,407.43,40.68z M191.23,47.18
			c-1.8,0-3.25-1.46-3.25-3.25s1.46-3.25,3.25-3.25c1.8,0,3.25,1.46,3.25,3.25S193.02,47.18,191.23,47.18z M220.49,183.72
			c-1.8,0-3.25-1.46-3.25-3.25c0-1.8,1.46-3.25,3.25-3.25c1.8,0,3.25,1.46,3.25,3.25C223.74,182.27,222.28,183.72,220.49,183.72z"/>
		<path class="st5" d="M333.3,121.09c-0.85,0.11-1.46,0.22-2.1,0.27c-2.36,0.19-5.17,0.57-7.21-0.57c-2.55-1.42-0.83-3.4-0.72-5.04
			c1.38-21.28,2.85-42.55,4.37-63.8c0.52-7.27,7.85-11.64,17.34-10.62c2.48,0.26,3.59,0.73,3.43,2.95
			c-1.65,22.15-3.12,44.34-4.68,66.51C343.34,116.31,339.5,119.59,333.3,121.09z"/>
		<path class="st5" d="M303.28,126.73c-0.88,0.12-1.29,0.18-1.71,0.22c-7.43,0.82-8.65-0.01-8.25-5.66
			c0.88-12.39,1.74-24.79,2.65-37.18c0.56-7.6,8.32-12.05,18.2-10.59c1.91,0.28,2.77,0.59,2.63,2.32
			c-1.09,13.6-1.97,27.26-3.03,40.87C313.35,122.23,309.29,125.38,303.28,126.73z"/>
		<path class="st5" d="M273.58,132.29c-2.81,0.47-5.52,0.48-8.39,0.02c-1.42-0.22-2.04-0.6-1.93-1.77
			c0.48-5.35,0.49-10.83,1.35-16.08c1.08-6.57,8.8-10.08,17.96-8.9c2.1,0.27,2.73,0.73,2.56,2.34c-0.49,4.85-0.59,9.79-1.14,14.62
			C283.38,127.74,279.61,130.93,273.58,132.29z"/>
		<path class="st6" d="M296.89,616.12c-1.48,0-2.82-1.02-3.17-2.52L155.69,14.22c-0.4-1.75,0.69-3.5,2.44-3.9
			c1.76-0.39,3.5,0.69,3.9,2.44l138.03,599.38c0.4,1.75-0.69,3.5-2.44,3.9C297.37,616.09,297.13,616.12,296.89,616.12z"/>
		<path class="st4" d="M290.49,496.14c0,0-5.8-1.13-7.42,8.63c-1.63,9.75-16.26,76.4-16.26,87.78c0,11.38,8.13,21.13,3.25,26.01
			c-4.88,4.88-24.38,22.76-17.88,27.63c6.5,4.88,14.63,8.13,35.76-11.38s24.38-21.13,24.38-26.01c0,0,13-6.5,19.51-22.76
			c6.5-16.26,35.76-74.78,22.76-81.28C341.59,498.27,290.49,496.14,290.49,496.14z"/>
		<path class="st7" d="M354.6,504.77c-5.76-2.88-19-4.9-31.97-6.26c4.12,4.17,6.84,8.55,3.52,15.2c-3.25,3.25-6.5,6.5-13,4.88
			c16.26,19.51,1.63,48.77-3.25,71.52c-3.25,11.38-11.38,21.13-24.38,19.51c4.88,4.88,4.88,11.38,1.63,14.63
			c-7.38,9.84-16.43,19.27-26.91,25.57c5.86,0.69,14.08-2.41,27.72-15c21.13-19.51,24.38-21.13,24.38-26.01c0,0,13-6.5,19.51-22.76
			C338.34,569.79,367.6,511.27,354.6,504.77z"/>
		<path class="st4" d="M533.16,490.93c0,0,6.14-1.42,8.78,7.47c2.64,8.89,32.58,72.65,33.61,83.14s-6.84,20.03-1.14,24.21
			s28.34,19.38,21.78,24.3c-6.56,4.93-15.03,8.47-39.57-8.12c-24.54-16.59-28.19-17.88-28.64-22.37c0,0-14.6-5.14-23.09-19.7
			c-8.48-14.56-45.32-66.6-31.9-73.46C486.42,499.53,533.16,490.93,533.16,490.93z"/>
		<path class="st7" d="M574.41,605.74c-5.7-4.17,2.18-13.71,1.14-24.21c-1.03-10.5-30.98-74.25-33.61-83.14
			c-2.64-8.89-8.78-7.46-8.78-7.46s-1.97,0.36-5.2,0.99c2.93,5.54,3.46,12.28-0.25,16.91c-3.25,4.88-6.5,11.38-13,13
			c14.63,4.88,22.76,19.51,29.26,30.89c9.75,14.63,13,32.51,6.5,48.77c-4.88,11.38,21.13,11.38,29.26,22.76
			c3.13,3.13,3.4,6.43,1.97,9.62c6.85,1.08,10.94-1.17,14.48-3.82C602.75,625.12,580.1,609.92,574.41,605.74z"/>
		<g>
			<path class="st8" d="M519.59,547.85c-2.69,0-4.88-2.18-4.88-4.88c0-2.69,2.18-4.87,4.86-4.88c0.28,0,18.28-0.3,24.91-13.56
				c1.21-2.41,4.14-3.38,6.54-2.18c2.41,1.2,3.38,4.13,2.18,6.54C543.84,547.63,520.57,547.85,519.59,547.85z"/>
			<path class="st8" d="M526.09,560.85c-2.69,0-4.88-2.18-4.88-4.88s2.18-4.88,4.88-4.88c2.8,0,17.15-0.67,25.08-13.89
				c1.38-2.31,4.38-3.06,6.69-1.67c2.31,1.39,3.06,4.38,1.67,6.69C548.9,559.95,529.81,560.85,526.09,560.85z"/>
			<path class="st8" d="M535.74,572.28c-1.09,0-1.77-0.05-1.92-0.07c-2.68-0.22-4.68-2.58-4.45-5.26c0.22-2.68,2.58-4.66,5.25-4.46
				c0.71,0.05,16.38,1.06,22.88-11.95c1.21-2.41,4.14-3.38,6.54-2.18c2.41,1.2,3.38,4.13,2.18,6.54
				C558.24,570.86,541.45,572.28,535.74,572.28z"/>
		</g>
		<g>
			<path class="st8" d="M309.06,549.01c-8.06,0-20.03-1.98-28.23-12.17c-1.69-2.1-1.36-5.17,0.74-6.86c2.1-1.69,5.17-1.36,6.86,0.74
				c9.32,11.58,27.05,8,27.22,7.96c2.63-0.55,5.22,1.12,5.78,3.75c0.56,2.63-1.1,5.21-3.73,5.78
				C317.34,548.29,313.91,549.01,309.06,549.01z"/>
			<path class="st8" d="M305.82,563.13c-7.71,0-19.04-2.02-28.33-11.92c-1.84-1.96-1.75-5.05,0.21-6.89
				c1.96-1.85,5.05-1.75,6.89,0.21c10.55,11.22,24.72,8.84,27.45,8.25c2.65-0.57,5.23,1.1,5.8,3.73c0.57,2.63-1.1,5.23-3.73,5.8
				C312.86,562.58,309.83,563.13,305.82,563.13z"/>
			<path class="st8" d="M298.57,576.42c-7.45,0-17.43-2.09-24.92-11.41c-1.69-2.1-1.36-5.17,0.74-6.86s5.17-1.36,6.86,0.74
				c9.13,11.34,24.26,7.01,24.9,6.81c2.58-0.77,5.29,0.69,6.07,3.26c0.78,2.57-0.66,5.28-3.23,6.07
				C308.59,575.17,304.34,576.42,298.57,576.42z"/>
		</g>
		<path class="st9" d="M358.66,152.84c0.91,2.11,8.13,29.26,61.77,35.76s69.9-16.26,112.16,6.5s69.9,43.89,125.17,26.01
			c55.27-17.88,65.02-40.64,45.52-63.4s-48.77-53.64-94.28-58.52c-45.52-4.88-87.78,8.13-126.79,1.63s-52.02-26.01-82.9-22.76
			C368.41,81.31,339.15,107.32,358.66,152.84z"/>
		<path class="st10" d="M358.66,152.84c0.91,2.11,8.13,29.26,61.77,35.76s69.9-16.26,112.16,6.5s69.9,43.89,125.17,26.01
			c55.27-17.88,65.02-40.64,45.52-63.4s-48.77-53.64-94.28-58.52c-45.52-4.88-87.78,8.13-126.79,1.63s-52.02-26.01-82.9-22.76
			C368.41,81.31,339.15,107.32,358.66,152.84z"/>
		<path class="st11" d="M677.48,162.28c-4.21,1.67-8.11,4.13-11.38,7.27c-3.09,2.96-5.64,6.47-8.99,9.14
			c-7.57,6.04-17.96,6.87-27.65,6.89c-7.51,0.02-15.26-0.35-22.07-3.53c-6.02-2.81-10.83-7.6-15.83-11.97
			c-15.59-13.63-35.06-24.15-55.78-24.21c-11.54-0.03-22.9,3.17-34.44,3.13c-12.97-0.04-25.48-4.21-36.93-10.06
			c-11.57-5.91-21.44-14.34-33.51-19.08c-12.58-4.93-26.48-9.51-39.33-5.34c4.47,12.11,0.7,25.61-4.02,37.62
			c-1.53,3.89-3.24,7.87-6.31,10.71c-3.79,3.51-13.31,5.08-17.04,0.18c6.93,9.07,22.27,21.46,56.22,25.57
			c53.64,6.5,69.9-16.26,112.16,6.5s69.9,43.89,125.17,26.01c1.99-0.64,3.96-1.31,5.93-2c15.7-5.52,35.31-13.02,44.78-27.74
			c5.44-8.45,6.23-27.2-5.59-31.36c-5.7-2-14.2-0.71-19.97,0.59C681.06,161.01,679.24,161.58,677.48,162.28z"/>
		<path class="st9" d="M360.81,185.4c0,0-4.59-10.62,16.54-17.12s47.14-1.63,47.14-1.63l-1.63,13l-17.88,11.38L360.81,185.4z"/>
		<path class="st8" d="M348.09,244.68c1.39-4.72-19.13,6.54-21.43,7.48c-11.33,4.59-22.1,9.22-34.37,10.77
			c-6.67,0.84-13.56,0.89-19.96-1.18c-5.12-1.65-9.93-4.78-13.03-9.23c-4.99-7.14-6.99-22.62-0.97-29.74
			c3.4-4.02,8.13-6.79,12.91-8.84c3.42-1.46,7.04-1.83,10.63-2.62c8.87-1.95,17.76-3.59,26.4-6.47
			c14.63-4.88,17.88-19.51,45.52-19.51c27.63,0,52.02,3.25,65.02-19.51c13-22.76,22.76-34.14,26.01-56.89
			c3.25-22.76,3.25-39.01,13-42.26c0,0,27.63,1.63,32.51,6.5c4.88,4.88,0,22.76-3.25,35.76c-3.25,13-8.13,17.88-13,47.14
			c-4.88,29.26-8.13,50.39-13,65.02c-4.88,14.63-14.63,47.14-6.5,79.65c8.13,32.51,27.63,42.26,34.14,74.78
			c4.03,20.15,14.53,39.14,23.92,57.19c12.17,23.41,37.47,61.06,6.79,80.5c-10.92,6.92-32.99,8.08-44,0.71
			c-12.73-8.53-17.04-22.83-23.31-36.12c-6.04-12.81-11.3-25.94-17.05-38.88c-6.5-14.63-14.63-29.26-17.88-34.14
			c-3.25-4.88-8.13-14.63-13-13s-14.63,42.26-17.88,53.64c-6.11,21.38-14.85,47.18-30.56,63.46c-14.07,14.59-48.46,14.7-60.47-3.32
			c-8.26-12.39-8.39-24.97-4.88-39.02c4.88-19.51,19.51-74.77,26.01-94.28c6.5-19.51,22.76-43.89,29.26-55.27
			c6.5-11.38,11.38-40.64,11.38-55.27C357.03,261.75,344.03,258.5,348.09,244.68z"/>
		<path class="st12" d="M254.76,238.49c0.48,5.37,2.16,10.64,4.53,14.03c3.11,4.45,7.91,7.58,13.03,9.23
			c6.39,2.06,13.29,2.02,19.96,1.18c12.27-1.55,23.04-6.18,34.37-10.77c1.89-0.76,15.94-8.43,20.25-8.62
			c3.73-10.04,6.38-20.44,8.5-28.93C328.77,234.98,285.51,261.38,254.76,238.49z"/>
		<path class="st12" d="M430.18,362.53c-4.88,6.5-13,13-19.51,16.26c-14.63,8.13-34.14-1.63-40.64-16.26
			c19.05,55.55-0.67,131.23-59.12,154.44c15.12,5.25,34.96,2.15,44.82-8.07c15.71-16.28,24.45-42.08,30.56-63.46
			c3.25-11.38,13-52.02,17.88-53.64s9.75,8.13,13,13c1.92,2.88,5.55,9.18,9.53,16.86C424.12,401.68,423.52,381.68,430.18,362.53z"/>
		<path class="st12" d="M512.62,432.73c-9.39-18.05-19.89-37.04-23.92-57.19c-6.5-32.51-26.01-42.27-34.14-74.78
			c-8.13-32.51,1.63-65.02,6.5-79.65c4.88-14.63,8.13-35.76,13-65.02c4.88-29.26,9.75-34.14,13-47.14c3.25-13,8.13-30.89,3.25-35.76
			c-1.09-1.09-3.31-2.01-6.1-2.79c2.69,41.82-27.51,80.16-37.79,119.83c-8.69,33.53-14.53,68-11.73,103.42
			c0.64,4.73,1.69,9.32,3.6,13.61c8.13,16.26,22.76,29.26,29.26,45.52c17.88,40.64,26.01,81.28,47.14,120.29
			c6.33,11.07,7.64,26.36,4.15,40.47c0.18-0.11,0.38-0.2,0.55-0.31C550.09,493.79,524.79,456.14,512.62,432.73z"/>
		<path class="st4" d="M461.57,67.99c-3.04-1.31-4.58-2.88-2.94-6.99c3.25-8.13,16.26-26.01,11.38-30.89
			c-4.88-4.88-13-3.25-11.38-9.75s4.88-6.5,6.5-8.13c1.63-1.63-3.25-9.75,3.25-11.38c6.5-1.63,27.63-1.63,27.63,6.5
			s-4.88,24.38-4.88,24.38s3.25,34.14,1.63,37.39c-2.16,4.32-9.49,3.78-13.33,3.41c-5.49-0.54-10.84-1.94-15.99-3.81
			C462.77,68.47,462.14,68.24,461.57,67.99z"/>
		<path class="st4" d="M475.7,32.55c0.89,0,1.78-0.13,2.63-0.34C477.58,32.01,476.72,32.04,475.7,32.55z"/>
		<path class="st7" d="M496.02,7.35c0-8.13-21.13-8.13-27.63-6.5c-0.3,0.08-0.56,0.18-0.81,0.28c0,2.87,0,5.59,0,7.03
			c9.75,4.88,17.88,9.75,16.26,21.13c-1.18,1.18-3.22,2.35-5.5,2.91c1.64,0.44,2.76,1.97,3.87,1.97
			c6.44,15.02,0.84,27.91-9.32,37.28c2.16,0.47,4.34,0.86,6.55,1.08c3.84,0.38,11.17,0.91,13.33-3.41
			c1.63-3.25-1.63-37.39-1.63-37.39S496.02,15.48,496.02,7.35z"/>
		<path class="st13" d="M399.79,101.05c-0.49,0.04-1.05,0.17-1.73,0.37c-3.84,1.09-6.57,4.32-9.56,6.75
			c-4.41,3.6-9.67,6.01-15.21,7.28c-10.14,2.34,0,48.77,19.51,47.14c19.51-1.63,24.38-22.76,24.38-37.39
			c0-8.03-5.95-13.05-11.05-18.39c-1.26-1.32-2.48-2.69-3.54-4.18C401.68,101.35,400.93,100.95,399.79,101.05z"/>
		<path class="st14" d="M417.26,125.52c0.11-8.03-5.78-13.13-10.81-18.54c-1.25-1.34-2.44-2.72-3.48-4.23
			c-0.89-1.29-1.64-1.7-2.79-1.62c-0.01,0-0.02,0-0.03,0c2.35,18.99,6.76,44.18-2.5,60.51
			C412.87,157.19,417.09,138.73,417.26,125.52z"/>
		<path class="st4" d="M375.95,229.6c-2.49,0-4.91-0.99-6.71-2.77c-2.07-2.07-3.01-4.86-2.56-7.67l2.26-14.19
			c0.49-3.09,2.68-5.68,5.7-6.75c4.67-1.66,14.7-4.41,29.04-4.32c4.98,0.04,9.15,4,9.3,8.84l0.41,13.76c0.13,4.4-3.13,8.18-7.6,8.8
			c-7.96,1.1-19.33,2.72-28.33,4.19C376.96,229.56,376.46,229.6,375.95,229.6z M402.87,198.77c-13.23,0-22.31,2.52-26.59,4.04
			c-1.36,0.48-2.3,1.58-2.51,2.93l-2.26,14.19l0,0c-0.2,1.24,0.23,2.5,1.19,3.44c1.05,1.04,2.54,1.52,3.99,1.29
			c9.05-1.47,20.47-3.1,28.45-4.21c2.02-0.28,3.45-1.88,3.39-3.82l-0.41-13.76c-0.07-2.25-2.07-4.09-4.46-4.11
			C403.39,198.77,403.12,198.77,402.87,198.77z M369.1,219.55h0.02H369.1z"/>
		<path class="st4" d="M385.47,277.32c-8.35,0-14.14-1.87-14.53-2.01c-2.56-0.85-3.94-3.61-3.08-6.17c0.85-2.55,3.59-3.93,6.15-3.09
			c0.2,0.07,13.3,4.18,27.55-1.52c2.5-1,5.34,0.22,6.34,2.72c1,2.5-0.22,5.34-2.72,6.34C398.01,276.46,391.15,277.32,385.47,277.32z
			"/>
		<path class="st4" d="M384.08,293.28c-7.32,0-12.61-1.54-13.01-1.66c-2.58-0.77-4.04-3.49-3.27-6.07c0.77-2.57,3.48-4.05,6.06-3.27
			l0,0c0.14,0.04,14.56,4.14,27.13-2.84c2.36-1.31,5.33-0.46,6.63,1.89c1.31,2.35,0.46,5.32-1.89,6.63
			C398.21,292.13,390.39,293.28,384.08,293.28z"/>
		<path class="st4" d="M499.42,495.22c-1.59,0.26-3.2,0.21-4.79-0.16c-9.19-2.14-14.84-11.53-17.4-16.94
			c-3.62-7.66-5.19-19.41-0.56-28.4c1.72-3.34,4.45-6.17,7.67-7.97l0,0c5.87-3.28,12.13-2.63,16.73,1.72
			c6.59,6.22,10.76,17.1,12.39,32.33c0.56,5.28-2.19,11.75-6.71,15.75C504.5,493.55,501.99,494.79,499.42,495.22z M490.07,443.11
			c-1.38,0.23-2.77,0.72-4.14,1.48l0,0c-2.67,1.49-4.93,3.84-6.37,6.62c-4.13,8-2.67,18.58,0.61,25.52
			c2.3,4.88,7.34,13.33,15.19,15.16c3.12,0.73,6.4-0.26,9.24-2.77c3.77-3.34,6.09-8.67,5.63-12.96
			c-1.54-14.44-5.38-24.64-11.39-30.31C496.38,443.51,493.27,442.59,490.07,443.11z M485.14,443.18l0.02,0L485.14,443.18z"/>
		<path class="st4" d="M323.57,494.47c-2.89,0-5.73-0.66-8.23-2.05c-7.28-4.04-10.19-12.67-11.34-19.2
			c-0.67-3.78-0.86-6.88-0.59-9.76c0.66-7.1,4.36-13.58,10.15-17.79l0,0c5.39-3.92,11.94-5.28,17.53-3.63
			c3.88,1.14,9.17,4.23,12.36,12.49c3.61,9.32,3.97,22.79-3.33,31.87C335.94,491.58,329.62,494.47,323.57,494.47z M315.47,448.29
			c-5.04,3.66-8.25,9.3-8.82,15.47c-0.24,2.58-0.07,5.41,0.55,8.89c1.03,5.83,3.56,13.5,9.72,16.92c6.28,3.48,15.55,1.14,20.66-5.22
			c6.49-8.08,6.1-20.21,2.83-28.66c-2.15-5.56-5.69-9.2-10.25-10.54C325.54,443.78,320.05,444.97,315.47,448.29L315.47,448.29z"/>
		<ellipse class="st11" cx="381.42" cy="126.83" rx="3.25" ry="4.88"/>
		<ellipse class="st11" cx="405.8" cy="126.83" rx="3.25" ry="4.88"/>
		<path class="st11" d="M374.91,121.95c-0.31,0-0.62-0.09-0.9-0.27c-0.75-0.5-0.95-1.51-0.45-2.25c0.16-0.24,3.97-5.81,11.5-3.93
			c0.87,0.22,1.4,1.1,1.18,1.97c-0.22,0.87-1.1,1.4-1.97,1.18c-5.34-1.33-7.98,2.54-8.01,2.58
			C375.95,121.7,375.44,121.95,374.91,121.95z"/>
		<path class="st11" d="M410.68,120.33c-0.53,0-1.04-0.25-1.35-0.72c-2.43-3.64-7.62-1.1-7.67-1.07c-0.8,0.4-1.78,0.08-2.18-0.73
			c-0.4-0.8-0.08-1.78,0.73-2.18c2.69-1.35,8.63-2.62,11.83,2.18c0.5,0.75,0.3,1.76-0.45,2.25
			C411.3,120.24,410.99,120.33,410.68,120.33z"/>
		<path class="st15" d="M390.36,136.58c-0.45,0-0.81-0.36-0.81-0.81s0.36-0.81,0.81-0.81c0.79,0,2.27,0,3.26-1.17
			c1.14-1.35,1.42-3.99,0.82-7.64c-0.07-0.44,0.23-0.86,0.67-0.94c0.43-0.08,0.86,0.23,0.94,0.67c0.7,4.19,0.3,7.2-1.18,8.95
			C393.38,136.58,391.26,136.58,390.36,136.58z"/>
		<path class="st11" d="M380.42,141.21c0,0,18,2.52,27.48-4.37c0,0-2.59,16.37-13.96,16.84
			C382.57,154.14,380.42,141.21,380.42,141.21z"/>
		<path class="st5" d="M383.85,142.27c0,0,11.38,1.63,21.13-1.63C404.99,140.65,395.23,153.65,383.85,142.27z"/>
		<path class="st5" d="M385.48,148.77c0,0,9.75-6.5,16.26,0C401.74,148.77,391.98,156.9,385.48,148.77z"/>
		<path class="st13" d="M369.23,143.9c0,0,0-13-4.88-13C359.47,130.89,359.47,143.9,369.23,143.9z"/>
		<path class="st13" d="M417.99,143.9c0,0,0-13,4.88-13C427.74,130.89,427.74,143.9,417.99,143.9z"/>
		<circle class="st4" cx="158.72" cy="13.04" r="13"/>
		<path class="st16" d="M191.23,44.42c-0.16,0-0.33-0.05-0.47-0.15c-13.6-9.54-29.25-16.13-29.41-16.2
			c-0.41-0.17-0.61-0.65-0.43-1.06c0.17-0.41,0.65-0.61,1.06-0.43c0.16,0.07,15.96,6.72,29.71,16.37c0.37,0.26,0.46,0.77,0.2,1.13
			C191.74,44.3,191.48,44.42,191.23,44.42z"/>
		<path class="st16" d="M203.52,204.06c-0.06,0-0.13,0-0.2-0.01c-0.44-0.09-0.73-0.51-0.64-0.95c4.09-20.81,16.49-24.12,17.01-24.25
			c0.44-0.12,0.87,0.16,0.98,0.59c0.11,0.43-0.15,0.88-0.59,0.99c-0.12,0.03-11.93,3.26-15.81,22.99
			C204.2,203.78,203.88,204.05,203.52,204.06z"/>
		<path class="st4" d="M261.41,228.91c-1.13-1.73-3.11-4.28-6.34-2.77c-3.22,1.52-22.68,16.41-24.25,14.99
			c-1.57-1.42,0.14-7.25-4.63-8.6s-7.99,0.17-7.99,0.17s-12.76-1.19-14.39,0.3c-1.63,1.48-8.02,1.62-4.96,8.8
			c3.06,7.18,1.35,13.01,4.47,17.3c3.11,4.28,15.9,4.02,19.13,2.5c3.22-1.52,31.94,0.79,38.37-0.79c6.42-1.58,8.08-4.51,8.1-5.96
			S270.73,243.21,261.41,228.91z"/>
		<path class="st7" d="M254.62,243.87c-2.45-7.36-7.68-7.32-13.59-8.25c-4.98,3.36-9.49,6.17-10.21,5.52
			c-1.57-1.42,0.14-7.25-4.63-8.6c-4.77-1.35-7.99,0.17-7.99,0.17s-0.3-0.03-0.77-0.07c7.35,8,8.52,21.22,2.3,29.66
			c1.16-0.17,2.1-0.42,2.71-0.7c2.37-1.11,18.5-0.17,29.44-0.21C255.06,257.44,255.98,250.66,254.62,243.87z"/>
	</g>
</g>
</svg>
