<?xml version="1.0" encoding="utf-8"?>
<!-- Generator: Adobe Illustrator 23.0.6, SVG Export Plug-In . SVG Version: 6.00 Build 0)  -->
<svg version="1.1" id="Capa_1" xmlns="http://www.w3.org/2000/svg" xmlns:xlink="http://www.w3.org/1999/xlink" x="0px" y="0px"
	 viewBox="0 0 424 93" style="enable-background:new 0 0 424 93;" xml:space="preserve">
<style type="text/css">
	.st0{fill:#D3503A;}
	.st1{fill:#343032;}
</style>
<g>
	<g>
		<g>
			<path class="st0" d="M127.53,8.09c-7.89-4.55-17.94-2.01-22.75,5.62L63.77,84.84l0,0l0,0c0.04,0.02,0.07,0.04,0.11,0.07
				c7.89,4.55,17.94,2.01,22.75-5.62l0.32-0.56l40.69-70.57C127.64,8.16,127.57,8.11,127.53,8.09z"/>
			<path class="st0" d="M82.92,35.2c-7.89-4.55-17.94-2.01-22.75,5.62l-0.32,0.56L34.7,84.84l0,0l0,0c0.04,0.02,0.07,0.04,0.11,0.07
				c7.89,4.55,17.94,2.01,22.75-5.62l25.47-44.02C83.03,35.27,82.96,35.22,82.92,35.2z"/>
			<path class="st0" d="M38.39,62.38L38.39,62.38c-0.04-0.02-0.08-0.04-0.11-0.06c-7.89-4.55-17.94-2.01-22.75,5.62l-9.8,16.9l0,0
				l0,0c0.04,0.02,0.07,0.04,0.11,0.07c7.89,4.55,17.94,2.01,22.75-5.62L38.39,62.38L38.39,62.38z"/>
		</g>
	</g>
	<path class="st1" d="M293.39,44.92c1.83,0,3.56-0.76,4.88-2.02c1.89-1.8,5.11-2.91,8.37-2.91c5.26,0,8.38,1.96,8.38,4.37
		c0,3.74-5.44,4.64-13.1,5.35c-10.16,0.89-18.81,3.57-18.81,13.91c0,9.98,8.91,14.89,18.63,14.89c6.42,0,11.05-1.96,14.08-5.17
		c0.87,2.47,3.86,5.13,7.02,5.13l3.66,0c0,0,0-7.73,0-8.34V46.23c0-3.65-1.5-15.69-20.13-15.69c-12.16,0-19.94,6.57-21.37,14.38
		L293.39,44.92z M315.47,59.78c0,5.88-5.71,8.29-12.75,8.29c-4.72,0-7.76-1.78-7.76-4.37c0-3.39,3.56-4.73,9.36-5.26
		c6.38-0.58,8.65-2.38,11.14-3.98L315.47,59.78z"/>
	<path class="st1" d="M216.92,44.92c-1.66,0-3.28-0.57-4.52-1.68c-1.59-1.43-3.92-2.22-6.5-2.22c-5.41,0-7.63,1.95-7.63,3.64
		c0,2.39,3.37,3.19,9.04,4.08c11.35,1.86,19.51,4.34,19.51,14.28c0,9.04-8.33,15.43-20.04,15.43c-11,0-19.29-5.48-21.35-14.42
		l9.68,0c1.55,0,3.04,0.54,4.27,1.48c2.13,1.64,5.05,2.29,7.4,2.29c4.7,0,8.25-1.42,8.25-4.08c0-2.57-1.6-3.64-9.58-4.88
		c-8.16-1.24-19.06-3.46-19.06-13.66c0-7.18,6.3-14.63,19.51-14.63c9.86,0,16.89,3.34,19.71,14.36L216.92,44.92z"/>
	<path class="st1" d="M244.26,54.58c0-7.31,5.22-13.23,11.65-13.23c2.36,0,4.55,0.8,6.39,2.17c1.2,0.9,2.66,1.4,4.16,1.4l10.96,0
		c-3.62-8.47-11.89-14.38-21.51-14.38c-12.96,0-23.46,10.73-23.46,23.96s10.51,23.96,23.46,23.96c9.65,0,17.93-5.94,21.54-14.44
		l-10.69,0c-1.55,0-3.05,0.53-4.27,1.48c-1.87,1.46-4.14,2.31-6.58,2.31C249.47,67.81,244.26,61.89,244.26,54.58"/>
	<path class="st1" d="M344.57,14.52c-0.03,0-0.05,0-0.08,0c-5.88,0-10.68,4.66-10.9,10.48l0,53.53v0l0,0c0.03,0,0.05,0,0.08,0
		c5.88,0,10.68-4.66,10.9-10.48L344.57,14.52L344.57,14.52L344.57,14.52z"/>
	<path class="st1" d="M169.46,64.02c-1.56,0-3.1,0.5-4.31,1.5c-2.24,1.84-6,2.77-8.46,2.77l-0.02,0c-5.49,0-9.92-3.46-11.42-9.04
		l34.45,0c1.68-18.08-9.47-28.69-22.93-28.69c-12.84,0-23.38,10.96-23.38,24.17c0,13.21,10.54,23.71,23.38,23.71l0.02,0
		c11.1,0,20.06-5.34,22.08-14.42H169.46z M145.43,49.67c1.68-5.32,5.93-8.69,11.25-8.69c5.58,0,10.01,3.37,11.42,8.69L145.43,49.67z
		"/>
	<path class="st1" d="M361.93,44.92c1.83,0,3.56-0.76,4.88-2.02c1.89-1.8,5.11-2.91,8.37-2.91c5.26,0,8.38,1.96,8.38,4.37
		c0,3.74-5.44,4.64-13.1,5.35c-10.16,0.89-18.81,3.57-18.81,13.91c0,9.98,8.91,14.89,18.63,14.89c6.42,0,11.05-1.96,14.08-5.17
		c0.87,2.47,3.86,5.13,7.02,5.13l3.66,0c0,0,0-7.73,0-8.34V46.23c0-3.65-1.5-15.69-20.13-15.69c-12.16,0-19.94,6.57-21.37,14.38
		L361.93,44.92z M384.01,59.78c0,5.88-5.71,8.29-12.75,8.29c-4.72,0-7.76-1.78-7.76-4.37c0-3.39,3.56-4.73,9.36-5.26
		c6.38-0.58,8.65-2.38,11.14-3.98L384.01,59.78z"/>
	<g>
		<polygon class="st1" points="400.8,32.26 403.29,32.26 403.29,38.76 405.37,38.76 405.37,32.26 407.86,32.26 407.86,30.55 
			400.8,30.55 		"/>
		<polygon class="st1" points="409.29,30.55 409.29,38.76 411.35,38.76 411.35,34.12 413.2,38.76 414.36,38.76 416.2,34.14 
			416.2,38.76 418.27,38.76 418.27,30.55 415.81,30.55 413.78,35.97 411.74,30.55 		"/>
	</g>
</g>
</svg>
