<?xml version="1.0" encoding="utf-8"?>
<!-- Generator: Adobe Illustrator 24.0.0, SVG Export Plug-In . SVG Version: 6.00 Build 0)  -->
<svg version="1.1" id="Capa_1" xmlns="http://www.w3.org/2000/svg" xmlns:xlink="http://www.w3.org/1999/xlink" x="0px" y="0px"
	 viewBox="0 0 317.87 349.36" style="enable-background:new 0 0 317.87 349.36;" xml:space="preserve">
<style type="text/css">
	.st0{fill:#D0DAE0;}
	.st1{fill:#93B3BF;}
	.st2{fill:#FFFFFF;}
	.st3{fill:#A2BEC8;}
	.st4{enable-background:new    ;}
	.st5{fill:#DF502F;}
	.st6{fill:#FF4F28;}
	.st7{fill:#73676D;}
	.st8{fill:#999094;}
	.st9{fill:#CB4835;}
</style>
<g>
	<path class="st0" d="M34.36,272.83c31.77,38.84,87.3,45.65,134.29,44.58c24.06-0.55,44.76-0.86,64.67-14.52
		c24.46-16.78,48.33-31.47,63.93-57.78c7.26-12.24,12.08-26.18,12.54-41.16c1.04-34.06-8.35-111.72-37.67-98.24
		c-51.41,23.64-37.5-29.69-57.65-38.85c-24.02-10.92-43.22-3.63-66.17,0.89c-39.02,7.68-73.76,28.73-96.95,59.6
		c-20.26,26.97-38.33,62.35-35.34,99.58C17.52,245.7,24.32,260.55,34.36,272.83z"/>
	<path class="st0" d="M260.92,92.74c-1.43,2.34-3.85,3.74-7.32,2.93c-8.13-1.9-12.28-12.16-15.62-18.82
		c-3.66-7.3-3.61-21.94,7.83-15.58c8.03,4.46,13.39,12.55,16.06,21.11C262.93,85.72,262.64,89.92,260.92,92.74z"/>
	<path class="st0" d="M277.25,325.75c2.02,0.03,3.76,0.1,5.16,0.2c1.41,0.1,2.5,0.23,3.2,0.38c0.71,0.15,1.04,0.32,0.94,0.51
		c-0.1,0.18-0.62,0.38-1.61,0.58l-68.93,13.84c-1.06,0.21-2.47,0.4-4.12,0.56c-1.64,0.16-3.51,0.29-5.49,0.38
		c-1.98,0.09-4.06,0.15-6.12,0.16c-2.06,0.01-4.1-0.01-6.01-0.09l-165.92-6.33c-1.21-0.05-2.17-0.12-2.88-0.22
		c-0.71-0.1-1.16-0.22-1.35-0.36c-0.19-0.14-0.12-0.29,0.22-0.44c0.34-0.16,0.96-0.32,1.85-0.48l58.67-10.61
		c0.85-0.15,1.91-0.3,3.11-0.42c1.2-0.12,2.54-0.23,3.93-0.32c1.39-0.09,2.84-0.15,4.27-0.19c1.43-0.04,2.84-0.05,4.13-0.03
		L277.25,325.75z"/>
	<g>
		<path class="st1" d="M291.23,161.5c0.01-0.41,0.02-0.82,0-1.22c0-0.02,0-0.04,0-0.05c0,0,0-0.01,0-0.01
			c-0.02-0.36-0.05-0.71-0.09-1.06c-0.01-0.06-0.02-0.12-0.03-0.19c-0.01-0.04-0.01-0.09-0.01-0.13c-0.02-0.15-0.05-0.29-0.07-0.44
			c-0.01-0.07-0.03-0.14-0.04-0.21c-0.01-0.03-0.01-0.06-0.02-0.09c-0.01-0.04-0.02-0.09-0.03-0.13c-0.03-0.14-0.07-0.29-0.1-0.43
			c-0.03-0.12-0.06-0.23-0.09-0.34c0-0.01-0.01-0.03-0.01-0.04c0-0.01-0.01-0.02-0.01-0.03c-0.03-0.1-0.06-0.2-0.09-0.3
			c-0.03-0.1-0.07-0.2-0.1-0.3c-0.03-0.1-0.07-0.19-0.1-0.28c0,0,0,0,0-0.01c0,0,0,0,0-0.01c-0.04-0.1-0.08-0.19-0.11-0.29
			c-0.03-0.08-0.07-0.16-0.1-0.24c-0.03-0.08-0.07-0.16-0.11-0.24c-0.02-0.04-0.03-0.07-0.05-0.1c0-0.01,0-0.01-0.01-0.02
			c0-0.01-0.01-0.01-0.01-0.02c-0.02-0.03-0.03-0.07-0.05-0.1c-0.04-0.08-0.08-0.15-0.12-0.23c-0.04-0.07-0.07-0.14-0.11-0.2
			c-0.04-0.07-0.07-0.13-0.11-0.2c-0.02-0.03-0.03-0.06-0.05-0.09c0-0.01-0.01-0.02-0.01-0.02c-0.02-0.03-0.03-0.06-0.05-0.08
			c-0.04-0.07-0.08-0.13-0.12-0.19c-0.04-0.06-0.08-0.12-0.12-0.18c-0.04-0.06-0.08-0.12-0.12-0.18c-0.03-0.05-0.07-0.1-0.1-0.15
			c0,0,0-0.01-0.01-0.01c0-0.01-0.01-0.01-0.01-0.02c-0.04-0.06-0.08-0.11-0.12-0.17c-0.04-0.05-0.08-0.11-0.12-0.16
			c-0.04-0.05-0.08-0.11-0.12-0.16s-0.08-0.1-0.13-0.16c-0.02-0.03-0.04-0.05-0.06-0.07c0-0.01-0.01-0.01-0.01-0.02
			c-0.02-0.02-0.04-0.04-0.05-0.06c-0.04-0.05-0.08-0.1-0.13-0.14c-0.04-0.05-0.09-0.1-0.13-0.14c-0.04-0.05-0.09-0.09-0.13-0.14
			c-0.05-0.05-0.09-0.09-0.14-0.14c0,0-0.01-0.01-0.01-0.01l-0.01-0.01c0,0-0.01-0.01-0.01-0.01c0,0-0.01-0.01-0.01-0.01l-3.87-3.79
			c0,0,0,0,0,0c0,0-0.01-0.01-0.01-0.01c0.05,0.05,0.1,0.11,0.15,0.16c-0.29-0.29-0.58-0.57-0.9-0.83
			c-1.41-1.13-3.14-1.94-5.16-2.31l-176.93-32.52c-1.3-0.24-2.7-0.11-4.13,0.32c-1.43,0.43-2.88,1.16-4.27,2.14
			c-1.39,0.98-2.73,2.2-3.93,3.61c-1.2,1.41-2.26,3.01-3.11,4.75L26.97,243.64c-0.9,1.83-1.51,3.67-1.85,5.44
			c-0.34,1.77-0.41,3.47-0.22,5.01c0.19,1.54,0.64,2.92,1.35,4.04c0.71,1.13,1.67,2,2.88,2.52c-0.03-0.01-0.05-0.02-0.08-0.03
			c-0.03-0.01-0.05-0.02-0.08-0.04c-0.03-0.01-0.05-0.02-0.08-0.04c-0.03-0.01-0.05-0.02-0.08-0.04l4.84,2.42
			c0.03,0.01,0.05,0.03,0.08,0.04c0.03,0.01,0.05,0.02,0.08,0.04c0.03,0.01,0.05,0.02,0.08,0.04c0.03,0.01,0.05,0.02,0.08,0.03
			l165.81,71.53c0.34,0.15,0.68,0.27,1.03,0.39c0.07,0.02,0.15,0.05,0.22,0.07c0.34,0.1,0.68,0.2,1.03,0.27
			c0.02,0,0.03,0.01,0.05,0.01c0.04,0.01,0.08,0.01,0.12,0.02c0.32,0.06,0.64,0.12,0.96,0.15c0.06,0.01,0.12,0.02,0.18,0.02
			c0.35,0.04,0.71,0.06,1.06,0.07c0.03,0,0.07,0.01,0.1,0.01c0.04,0,0.09,0,0.13,0c0.36,0,0.72,0,1.08-0.03c0.01,0,0.01,0,0.02,0
			c0,0,0,0,0.01,0c0.01,0,0.03,0,0.04-0.01c0.39-0.03,0.79-0.08,1.18-0.14c0.06-0.01,0.12-0.03,0.19-0.04
			c0.15-0.03,0.3-0.06,0.45-0.09c0.33-0.07,0.65-0.14,0.98-0.23c0.16-0.05,0.33-0.09,0.49-0.14c0.12-0.04,0.24-0.06,0.35-0.1
			c0.13-0.04,0.26-0.09,0.39-0.14c0.13-0.05,0.26-0.1,0.39-0.15c0.04-0.02,0.08-0.03,0.12-0.05c0.02-0.01,0.03-0.01,0.05-0.02
			c0.07-0.03,0.15-0.06,0.22-0.09c0.13-0.05,0.26-0.11,0.39-0.17c0.1-0.05,0.21-0.09,0.31-0.14c0.1-0.05,0.21-0.1,0.31-0.15
			c0.08-0.04,0.15-0.08,0.23-0.12c0,0,0.01,0,0.01-0.01c0,0,0.01,0,0.01-0.01c0.02-0.01,0.04-0.02,0.06-0.03
			c0.1-0.05,0.2-0.11,0.31-0.16c0.09-0.05,0.18-0.1,0.27-0.15c0.09-0.05,0.18-0.1,0.26-0.15c0.09-0.05,0.18-0.1,0.26-0.16
			c0.09-0.05,0.17-0.11,0.26-0.16c0.01-0.01,0.02-0.01,0.03-0.02c0,0,0.01,0,0.01-0.01c0.07-0.04,0.13-0.09,0.2-0.13
			c0.08-0.05,0.16-0.1,0.23-0.16c0.08-0.05,0.16-0.11,0.23-0.16c0.08-0.05,0.15-0.11,0.23-0.16c0.07-0.05,0.14-0.1,0.21-0.16
			c0.07-0.05,0.14-0.11,0.21-0.16c0.02-0.02,0.04-0.03,0.07-0.05c0.01,0,0.01-0.01,0.02-0.01c0.04-0.03,0.09-0.07,0.13-0.1
			c0.07-0.05,0.14-0.11,0.21-0.17c0.07-0.05,0.13-0.11,0.2-0.16c0.07-0.05,0.13-0.11,0.2-0.16s0.13-0.11,0.19-0.17
			c0.06-0.06,0.13-0.11,0.19-0.17c0.06-0.06,0.12-0.11,0.19-0.17c0.01-0.01,0.02-0.02,0.03-0.03l0.01-0.01
			c0.05-0.05,0.1-0.09,0.15-0.14c0.06-0.06,0.12-0.11,0.18-0.17c0.06-0.06,0.12-0.12,0.18-0.18c0.06-0.06,0.12-0.12,0.18-0.17
			c0.06-0.06,0.12-0.12,0.17-0.18c0.06-0.06,0.12-0.12,0.17-0.18c0.06-0.06,0.11-0.12,0.17-0.18c0.02-0.02,0.03-0.04,0.05-0.05
			c0,0,0,0,0.01-0.01c0,0,0,0,0-0.01c0.04-0.04,0.07-0.08,0.11-0.12c0.06-0.06,0.11-0.12,0.17-0.18c0.05-0.06,0.11-0.12,0.16-0.19
			c0.05-0.06,0.11-0.13,0.16-0.19c0.05-0.06,0.11-0.13,0.16-0.19c0.05-0.06,0.11-0.13,0.16-0.19c0.05-0.07,0.11-0.13,0.16-0.2
			c0.03-0.04,0.06-0.08,0.09-0.12c0,0,0.01-0.01,0.01-0.01c0.02-0.02,0.03-0.04,0.05-0.07c0.05-0.07,0.1-0.13,0.15-0.2
			c0.05-0.07,0.1-0.14,0.15-0.2c0.05-0.07,0.1-0.14,0.15-0.21c0.05-0.07,0.1-0.14,0.15-0.21c0.05-0.07,0.1-0.15,0.15-0.22
			c0.05-0.07,0.1-0.15,0.15-0.22c0.04-0.06,0.07-0.11,0.11-0.17c0,0,0.01-0.01,0.01-0.01c0.01-0.02,0.02-0.03,0.03-0.04
			c0.05-0.08,0.1-0.15,0.15-0.23c0.05-0.08,0.1-0.16,0.15-0.24c0.05-0.08,0.1-0.16,0.15-0.24c0.05-0.08,0.1-0.16,0.14-0.24
			c0.05-0.08,0.1-0.16,0.14-0.25c0.05-0.09,0.1-0.18,0.15-0.27c0.02-0.03,0.04-0.07,0.05-0.1c0-0.01,0.01-0.01,0.01-0.02
			c0.03-0.05,0.05-0.1,0.08-0.15c0.05-0.09,0.1-0.18,0.14-0.27c0.05-0.09,0.09-0.18,0.14-0.27c0.04-0.08,0.08-0.17,0.13-0.26
			c0.04-0.09,0.08-0.17,0.12-0.26c0.04-0.09,0.08-0.17,0.12-0.26c0.04-0.09,0.08-0.17,0.12-0.26l68.24-155.18
			c0.01-0.02,0.01-0.03,0.02-0.05c0.01-0.02,0.01-0.03,0.02-0.05c0.01-0.02,0.01-0.03,0.02-0.05c0.01-0.02,0.01-0.03,0.02-0.05
			c0.05-0.12,0.1-0.23,0.15-0.35c0.05-0.12,0.09-0.23,0.14-0.35c0.03-0.09,0.07-0.17,0.1-0.26c0-0.01,0.01-0.02,0.01-0.03
			c0.01-0.02,0.01-0.04,0.02-0.05c0.04-0.12,0.08-0.23,0.12-0.35c0.06-0.16,0.11-0.32,0.16-0.48c0.02-0.07,0.04-0.14,0.07-0.22
			c0.01-0.03,0.02-0.07,0.03-0.1c0.02-0.06,0.03-0.11,0.05-0.17c0.05-0.16,0.09-0.32,0.13-0.48c0.04-0.15,0.08-0.31,0.11-0.46
			l0-0.01c0,0,0-0.01,0-0.01c0-0.01,0-0.02,0.01-0.03c0.08-0.37,0.16-0.74,0.21-1.1c0.01-0.08,0.02-0.15,0.03-0.22
			c0.01-0.05,0.02-0.1,0.03-0.15c0.01-0.08,0.01-0.17,0.02-0.25c0.04-0.33,0.07-0.65,0.09-0.97c0-0.08,0.02-0.17,0.02-0.25
			C291.23,161.59,291.23,161.55,291.23,161.5z M284.31,148.83c0.09,0.1,0.19,0.19,0.28,0.29c0,0.01,0.01,0.01,0.01,0.02
			c0.12,0.14,0.22,0.29,0.34,0.43C284.73,149.32,284.53,149.07,284.31,148.83z M285.1,149.79c0.02,0.03,0.05,0.06,0.07,0.09
			c0,0,0,0.01,0.01,0.01c0.18,0.25,0.35,0.52,0.51,0.78c0,0.01,0.01,0.02,0.01,0.02c0.02,0.03,0.03,0.06,0.05,0.09
			C285.55,150.44,285.33,150.11,285.1,149.79z M286.21,163.2c0,0.01-0.01,0.02-0.01,0.03c-0.01,0.04-0.03,0.07-0.04,0.11
			c0.04-0.1,0.07-0.2,0.11-0.29C286.24,163.1,286.23,163.15,286.21,163.2z M285.87,151.03c0.09,0.16,0.18,0.32,0.26,0.49
			c0.01,0.01,0.01,0.02,0.02,0.03c0.06,0.12,0.1,0.24,0.16,0.36C286.17,151.61,286.03,151.32,285.87,151.03z M286.61,162
			c-0.01,0.03-0.02,0.07-0.03,0.1c-0.01,0.04-0.03,0.07-0.04,0.11c0.02-0.07,0.05-0.15,0.07-0.22
			C286.61,161.99,286.61,161.99,286.61,162z M286.43,152.22c0.03,0.07,0.06,0.14,0.09,0.21c0,0,0,0,0,0.01
			c0.11,0.3,0.21,0.61,0.31,0.92c0,0.01,0.01,0.03,0.01,0.04C286.73,153,286.59,152.61,286.43,152.22z M286.91,160.84
			c0,0.01,0,0.02-0.01,0.04c0,0,0,0.01,0,0.01c-0.01,0.02-0.01,0.04-0.02,0.07c0.02-0.06,0.03-0.13,0.04-0.19
			C286.92,160.79,286.92,160.82,286.91,160.84z M286.87,153.51c0.07,0.26,0.14,0.53,0.2,0.81c0.01,0.03,0.01,0.06,0.02,0.09
			c0.02,0.08,0.03,0.17,0.04,0.26C287.05,154.27,286.97,153.88,286.87,153.51z M287.18,155.02c0.01,0.06,0.02,0.11,0.03,0.17
			c0.03,0.22,0.04,0.44,0.06,0.67C287.25,155.57,287.22,155.29,287.18,155.02z M287.33,157.58c0.01-0.41,0.01-0.81-0.01-1.2
			c0,0.02,0,0.04,0.01,0.06c0,0.02,0,0.04,0,0.06C287.34,156.85,287.34,157.21,287.33,157.58z"/>
		<g>
			<path class="st2" d="M278.02,145.46c2.02,0.37,3.76,1.17,5.16,2.31c1.41,1.14,2.5,2.61,3.2,4.32c0.71,1.72,1.04,3.67,0.94,5.75
				c-0.1,2.09-0.62,4.31-1.61,6.56l-68.93,156.33c-1.06,2.4-2.47,4.53-4.12,6.32c-1.64,1.78-3.51,3.22-5.49,4.25
				c-1.98,1.03-4.06,1.65-6.12,1.81c-2.06,0.16-4.1-0.15-6.01-0.97L29.13,260.65c-1.21-0.52-2.17-1.39-2.88-2.52
				c-0.71-1.12-1.16-2.5-1.35-4.04c-0.19-1.54-0.12-3.24,0.22-5.01c0.34-1.77,0.96-3.61,1.85-5.44l58.67-119.88
				c0.85-1.74,1.91-3.34,3.11-4.75c1.2-1.41,2.54-2.64,3.93-3.61c1.39-0.98,2.84-1.71,4.27-2.14c1.43-0.43,2.84-0.56,4.13-0.32
				L278.02,145.46z"/>
		</g>
		<path class="st3" d="M90.09,136.92l27.18,80.89c2.32,6.91,10.07,10.36,16.76,7.45l134.33-58.37l-135.86,64.43
			c-6.93,3.29-15.15-0.41-17.29-7.78L90.09,136.92z"/>
		<polygon class="st3" points="33.23,251.41 109.11,202.49 110.55,207.44 		"/>
		<polygon class="st3" points="163.84,216.45 199.21,322.87 167.42,214.76 		"/>
		<g>
			<g class="st4">
				<g>
					<path class="st5" d="M125.32,156.99c2.21-3.96,5.03-7.54,8.26-10.65c3.2-3.09,6.84-5.76,10.7-7.89
						c3.88-2.14,8.02-3.77,12.24-4.76c4.28-1,8.68-1.37,12.99-0.93c4.42,0.44,8.36,1.68,11.71,3.57c3.45,1.95,6.28,4.6,8.34,7.79
						c2.12,3.29,3.43,7.16,3.74,11.42c0.32,4.38-0.41,9.15-2.37,14.07c-2,5.03-5.07,9.67-8.9,13.72c-3.86,4.09-8.45,7.52-13.43,10.1
						c-4.95,2.57-10.22,4.27-15.46,4.94c-5.15,0.66-10.22,0.33-14.88-1.11c-4.53-1.4-8.23-3.7-11.04-6.62
						c-2.72-2.83-4.61-6.24-5.64-9.97c-1-3.63-1.19-7.57-0.55-11.62C121.65,165.1,123.07,161.02,125.32,156.99 M172.25,127.08
						c-5.16-0.43-10.39,0.06-15.46,1.29c-4.99,1.21-9.88,3.16-14.45,5.7c-4.55,2.53-8.84,5.67-12.63,9.3
						c-3.83,3.67-7.2,7.88-9.87,12.55c-2.73,4.77-4.49,9.62-5.33,14.33c-0.86,4.86-0.75,9.62,0.33,14.03
						c1.12,4.57,3.27,8.77,6.46,12.31c3.31,3.67,7.72,6.61,13.19,8.45c5.67,1.91,11.87,2.44,18.22,1.71
						c6.48-0.74,13.02-2.79,19.16-5.95c6.18-3.18,11.87-7.44,16.63-12.54c4.71-5.04,8.43-10.82,10.79-17.06
						c2.3-6.07,3.05-11.92,2.51-17.26c-0.53-5.16-2.26-9.81-4.98-13.74c-2.62-3.78-6.14-6.88-10.38-9.13
						C182.34,128.91,177.56,127.53,172.25,127.08"/>
					<path class="st2" d="M131,158.09c1.75-3.21,4.01-6.13,6.62-8.66c2.59-2.52,5.54-4.68,8.68-6.41c3.15-1.73,6.52-3.03,9.94-3.8
						c3.46-0.78,7-1.03,10.45-0.62c3.52,0.41,6.64,1.47,9.26,3.05c2.68,1.61,4.85,3.78,6.4,6.36c1.59,2.65,2.52,5.73,2.67,9.09
						c0.16,3.44-0.5,7.16-2.09,10.98c-1.62,3.88-4.04,7.46-7.03,10.59c-3.01,3.14-6.55,5.79-10.39,7.8c-3.82,2-7.89,3.35-11.95,3.92
						c-4.01,0.57-7.97,0.38-11.64-0.66c-3.59-1.01-6.56-2.74-8.84-4.97c-2.23-2.17-3.81-4.81-4.7-7.74
						c-0.88-2.85-1.11-5.98-0.66-9.22C128.14,164.63,129.22,161.35,131,158.09 M169.5,132.76c-4.31-0.43-8.71-0.07-12.99,0.93
						c-4.22,0.99-8.37,2.62-12.24,4.76c-3.86,2.13-7.49,4.8-10.7,7.89c-3.22,3.11-6.05,6.69-8.26,10.65
						c-2.25,4.03-3.67,8.11-4.29,12.06c-0.64,4.05-0.45,7.99,0.55,11.62c1.03,3.73,2.92,7.14,5.64,9.97
						c2.81,2.92,6.5,5.22,11.04,6.62c4.66,1.44,9.73,1.78,14.88,1.11c5.24-0.67,10.51-2.37,15.46-4.94
						c4.97-2.58,9.56-6.01,13.43-10.1c3.83-4.05,6.9-8.7,8.9-13.72c1.96-4.92,2.69-9.69,2.37-14.07c-0.31-4.26-1.62-8.13-3.74-11.42
						c-2.06-3.19-4.89-5.84-8.34-7.79C177.87,134.44,173.92,133.2,169.5,132.76"/>
					<path class="st5" d="M137.75,159.38c1.22-2.32,2.83-4.43,4.7-6.26c1.86-1.83,3.99-3.39,6.26-4.63c2.28-1.24,4.71-2.17,7.17-2.7
						c2.48-0.53,5.02-0.67,7.47-0.33c2.49,0.34,4.67,1.15,6.48,2.32c1.84,1.19,3.31,2.76,4.33,4.62c1.04,1.89,1.61,4.06,1.65,6.41
						c0.04,2.39-0.48,4.96-1.63,7.58c-1.16,2.65-2.85,5.09-4.91,7.21c-2.07,2.13-4.49,3.94-7.1,5.31c-2.61,1.38-5.39,2.32-8.17,2.76
						c-2.76,0.43-5.5,0.35-8.06-0.3c-2.52-0.64-4.63-1.78-6.27-3.27c-1.62-1.47-2.79-3.27-3.49-5.3c-0.69-1.99-0.92-4.19-0.66-6.48
						C135.78,164.08,136.51,161.73,137.75,159.38 M166.68,138.59c-3.45-0.41-7-0.16-10.45,0.62c-3.42,0.77-6.79,2.07-9.94,3.8
						c-3.14,1.73-6.09,3.89-8.68,6.41c-2.6,2.53-4.87,5.44-6.62,8.66c-1.77,3.26-2.86,6.55-3.29,9.72
						c-0.44,3.23-0.21,6.36,0.66,9.22c0.9,2.92,2.48,5.57,4.7,7.74c2.28,2.22,5.24,3.95,8.84,4.97c3.67,1.04,7.64,1.23,11.64,0.66
						c4.06-0.58,8.13-1.92,11.95-3.92c3.84-2.01,7.38-4.65,10.39-7.8c2.99-3.12,5.41-6.7,7.03-10.59c1.59-3.82,2.25-7.54,2.09-10.98
						c-0.15-3.36-1.09-6.45-2.67-9.09c-1.55-2.58-3.72-4.75-6.4-6.36C173.32,140.06,170.2,139.01,166.68,138.59"/>
					<path class="st2" d="M144.8,160.74c0.7-1.38,1.65-2.64,2.75-3.73c1.1-1.09,2.36-2.02,3.72-2.76c1.35-0.73,2.8-1.27,4.26-1.57
						c1.47-0.3,2.96-0.36,4.39-0.13c1.45,0.23,2.7,0.73,3.73,1.45c1.04,0.72,1.85,1.66,2.4,2.76c0.56,1.1,0.84,2.37,0.82,3.72
						c-0.02,1.37-0.35,2.83-1.03,4.31c-0.68,1.49-1.65,2.86-2.82,4.05c-1.17,1.19-2.53,2.2-4,2.98c-1.46,0.78-3.03,1.32-4.59,1.59
						c-1.56,0.26-3.12,0.25-4.59-0.08c-1.46-0.33-2.69-0.94-3.66-1.77c-0.97-0.81-1.68-1.83-2.12-2.98
						c-0.44-1.14-0.61-2.41-0.49-3.74C143.69,163.52,144.09,162.13,144.8,160.74 M163.35,145.46c-2.45-0.34-4.99-0.2-7.47,0.33
						c-2.46,0.53-4.9,1.45-7.17,2.7c-2.27,1.24-4.4,2.81-6.26,4.63c-1.87,1.83-3.48,3.94-4.7,6.26c-1.24,2.35-1.96,4.7-2.22,6.95
						c-0.26,2.29-0.03,4.49,0.66,6.48c0.7,2.02,1.87,3.83,3.49,5.3c1.65,1.49,3.75,2.63,6.27,3.27c2.56,0.65,5.3,0.73,8.06,0.3
						c2.78-0.43,5.56-1.38,8.17-2.76c2.61-1.38,5.04-3.18,7.1-5.31c2.06-2.12,3.75-4.56,4.91-7.21c1.15-2.62,1.67-5.19,1.63-7.58
						c-0.04-2.35-0.61-4.53-1.65-6.41c-1.02-1.85-2.49-3.43-4.33-4.62C168.02,146.61,165.84,145.81,163.35,145.46"/>
					<path class="st5" d="M159.91,152.55c-1.43-0.23-2.92-0.17-4.39,0.13c-1.46,0.3-2.91,0.84-4.26,1.57
						c-1.35,0.73-2.62,1.67-3.72,2.76c-1.1,1.09-2.05,2.35-2.75,3.73c-0.71,1.39-1.11,2.78-1.22,4.1c-0.12,1.33,0.05,2.6,0.49,3.74
						c0.44,1.15,1.16,2.17,2.12,2.98c0.97,0.82,2.2,1.44,3.66,1.77c1.47,0.33,3.03,0.35,4.59,0.08c1.57-0.27,3.13-0.81,4.59-1.59
						c1.47-0.78,2.83-1.79,4-2.98c1.17-1.19,2.13-2.56,2.82-4.05c0.68-1.48,1.01-2.94,1.03-4.31c0.02-1.36-0.27-2.62-0.82-3.72
						c-0.55-1.09-1.36-2.03-2.4-2.76C162.61,153.29,161.36,152.79,159.91,152.55"/>
				</g>
			</g>
		</g>
		<g>
			<polygon class="st6" points="91.6,23.55 81.09,7 79.46,31.26 89.98,47.82 			"/>
			<polygon class="st6" points="104.92,44.52 94.41,27.97 92.78,52.23 103.29,68.78 			"/>
			<polygon class="st6" points="86.82,55.42 97.23,71.81 74.8,63.05 64.39,46.66 			"/>
			<polygon class="st6" points="74.53,34.74 84.94,51.13 62.5,42.37 52.09,25.98 			"/>
			<path class="st7" d="M160.96,159.29L74.29,23.11c-0.33-0.52-1.85-0.14-3.39,0.85c-1.55,0.98-2.54,2.2-2.21,2.71l86.67,136.18
				c0.33,0.52,1.85,0.14,3.39-0.85C160.3,161.02,161.29,159.81,160.96,159.29z"/>
			
				<ellipse transform="matrix(0.8442 -0.5361 0.5361 0.8442 -2.2024 42.2031)" class="st8" cx="71.49" cy="24.89" rx="3.32" ry="1.11"/>
		</g>
		<g>
			<polygon class="st9" points="37.31,109.73 18.76,103.39 32.66,123.33 51.22,129.67 			"/>
			<polygon class="st9" points="60.82,117.76 42.26,111.42 56.17,131.36 74.72,137.7 			"/>
			<polygon class="st9" points="53.51,137.58 71.89,143.86 48.91,151.06 30.53,144.78 			"/>
			<polygon class="st9" points="30.98,129.13 49.36,135.41 26.38,142.61 8,136.33 			"/>
			<path class="st7" d="M152.51,164.57L23.53,120.21c-0.58-0.2-1.53,1.05-2.12,2.78c-0.59,1.73-0.6,3.3-0.03,3.5l128.98,44.35
				c0.58,0.2,1.53-1.05,2.12-2.78S153.09,164.76,152.51,164.57z"/>
			
				<ellipse transform="matrix(0.3233 -0.9463 0.9463 0.3233 -101.5342 104.72)" class="st8" cx="22.45" cy="123.35" rx="3.32" ry="1.11"/>
		</g>
	</g>
</g>
</svg>
