<?xml version="1.0" encoding="utf-8"?>
<!-- Generator: Adobe Illustrator 24.0.0, SVG Export Plug-In . SVG Version: 6.00 Build 0)  -->
<svg version="1.1" id="Capa_1" xmlns="http://www.w3.org/2000/svg" xmlns:xlink="http://www.w3.org/1999/xlink" x="0px" y="0px"
	 viewBox="0 0 287.48 314.42" style="enable-background:new 0 0 287.48 314.42;" xml:space="preserve">
<style type="text/css">
	.st0{fill:#D0DAE0;}
	.st1{fill:#99B7C3;}
	.st2{fill:#F3F2F3;}
	.st3{fill:#BCD0D7;}
	.st4{fill:#33758B;}
	.st5{opacity:0.91;fill:url(#SVGID_1_);}
	.st6{opacity:0.91;fill:#E0E0E0;}
	.st7{fill:#1A152A;}
	.st8{fill:#272337;}
	.st9{fill:#100424;}
	.st10{fill:#FFFFFF;}
	.st11{fill:#B8E6EA;}
	.st12{fill:url(#SVGID_2_);}
	.st13{fill:#FF795D;}
	.st14{fill:#EFC9AB;}
	.st15{fill:url(#SVGID_3_);}
	.st16{fill:#D7F1F3;}
	.st17{fill:#FF4D27;}
	.st18{fill:url(#SVGID_4_);}
	.st19{fill:url(#SVGID_5_);}
	.st20{fill:url(#SVGID_6_);}
	.st21{fill:#F4E5E4;}
	.st22{fill:#FFCFC5;}
	.st23{clip-path:url(#SVGID_8_);}
	.st24{fill:#73676D;}
</style>
<g>
	<path class="st0" d="M73.18,39.04C58.09,36.96,37.18,47.45,27,58.22c-11.72,12.4-15.52,30.25-16.87,47.26
		c-1.55,19.58-0.41,39.78,7.06,57.94c2.58,6.27,6.02,12.39,11.32,16.62c5.78,4.61,13.54,6.78,18.12,12.58
		c2.43,3.09,4.76,7.52,6.17,11.17c1.07,2.8,2.73,5.33,4.44,7.78c1.97,2.81,4.07,5.58,6.76,7.7c15.36,12.13,43.32,7.23,60.32,2.09
		c15.19-4.59,20.7-16.31,29.74-28.19c7.59-9.96,17.31-14.04,29.31-16.84c12.12-2.83,25.53,2.7,37.08-3.04
		c5.62-2.8,9.84-7.74,13.73-12.68c7.89-10.03,15.16-20.82,18.97-32.99s3.8-26-2.38-37.16c-5.76-10.41-16.07-17.37-24.1-26.15
		c-6.01-6.57-11.56-14.76-14.32-23.3c-2.57-7.98-2.06-14.78-7.75-21.42c-4.09-4.78-8.98-7.64-15-9.42
		C178.73,6.96,167.85,4.92,156.47,5c-7.17,0.05-14.46,0.89-21,3.82c-6.27,2.81-11.55,7.41-16.75,11.91
		c-10.57,9.14-22.44,18.61-36.41,19C79.25,39.82,76.21,39.46,73.18,39.04z"/>
	<path class="st0" d="M88.92,8.52c-4.18,1.1-8.4,2.94-10.97,6.42c-2.57,3.48-2.84,8.92,0.37,11.82c1.35,1.22,3.13,1.87,4.92,2.23
		c5.58,1.13,11.68-0.41,15.93-4.2C111.88,13.46,102.78,4.88,88.92,8.52z"/>
	<path class="st0" d="M262.35,288.71L130,309.35c-0.86,0.13-2.27,0.08-3.13-0.13L43.8,289.2c-0.86-0.21-0.86-0.49,0-0.62
		l132.35-20.64c0.86-0.13,2.27-0.08,3.13,0.13l83.07,20.02C263.22,288.3,263.22,288.57,262.35,288.71z"/>
	<polygon class="st1" points="281.48,212.79 41.5,243.88 41.5,249.58 281.48,218.49 	"/>
	<path class="st1" d="M280.77,219.5L136.3,302.92c-0.94,0.54-2.47,0.54-3.42,0l-90.67-52.35c-0.94-0.54-0.94-1.43,0-1.97
		l144.47-83.41c0.94-0.54,2.47-0.54,3.42,0l90.67,52.35C281.72,218.08,281.72,218.96,280.77,219.5z"/>
	<path class="st2" d="M280.77,213.81L136.3,297.23c-0.94,0.54-2.47,0.54-3.42,0l-90.67-52.35c-0.94-0.54-0.94-1.43,0-1.97
		l144.47-83.41c0.94-0.54,2.47-0.54,3.42,0l90.67,52.35C281.72,212.38,281.72,213.27,280.77,213.81z"/>
	<path class="st3" d="M211.5,242.18l-8.68-5.01c-0.8-0.46-2.11-0.46-2.91,0L175.96,251c-0.8,0.46-0.8,1.22,0,1.68l8.68,5.01
		L211.5,242.18z"/>
	<path class="st3" d="M185.36,258.11l3.38,1.95c0.8,0.46,2.11,0.46,2.91,0l11.56-6.68l-4.83-2.79L185.36,258.11z"/>
	<path class="st3" d="M199.21,250.12l4.83,2.79l11.56-6.68c0.8-0.46,0.8-1.22,0-1.68l-3.38-1.95L199.21,250.12z"/>
	<path class="st1" d="M156.25,39.08l-1.95-0.68c-0.51-0.08-0.95,0.01-1.3,0.25c0-0.01-146.07,84.4-146.07,84.4
		c-0.84,0.52-1.17,1.82-0.74,3.48L35.48,238.9c0.7,2.68,4.32,5.08,6.59,4.22l0.9-0.52l-22.45-95.1l139.01-80.37l-1.76-9.76
		l25.12,96.35c0.6,2.31,2.46,4.41,4.15,4.69l0.83-1.47L156.25,39.08z"/>
	<path class="st2" d="M157.51,40.51l30.35,116.43c0.26,0.99-0.18,2.04-1.07,2.55L42.07,243.12c-0.59,0.34-1.33,0.03-1.5-0.63
		L9.91,124.9c-0.28-1.09,0.19-2.23,1.17-2.79l143.4-82.87C155.66,38.56,157.17,39.19,157.51,40.51z"/>
	<polyline class="st4" points="181.41,155.72 44.69,234.78 44.32,233.34 16.32,125.95 151.85,47.59 153.04,46.9 	"/>
	<linearGradient id="SVGID_1_" gradientUnits="userSpaceOnUse" x1="78.051" y1="75.7608" x2="119.1731" y2="204.3326">
		<stop  offset="0.0386" style="stop-color:#100424;stop-opacity:0.5"/>
		<stop  offset="1" style="stop-color:#100424;stop-opacity:0"/>
	</linearGradient>
	<polyline class="st5" points="181.41,155.72 44.69,234.78 44.32,233.34 16.32,125.95 151.85,47.59 153.04,46.9 	"/>
	<polygon class="st6" points="153.04,46.9 151.85,47.59 16.32,125.95 20.49,141.73 157.21,62.68 	"/>
	<path class="st1" d="M221.9,207.06l-47.75-26.36c-4.01-2.22-9.7-2.38-13.23-0.38l-70.67,41.02c-2.03,1.15-3.18,2.94-3.17,4.93
		c0.01,2.22,1.48,4.3,4.03,5.71l47.75,26.36c2.14,1.18,4.75,1.78,7.26,1.78c2.2,0,4.33-0.46,5.98-1.4l70.67-41.02v0
		c2.03-1.15,3.18-2.94,3.17-4.92C225.92,210.55,224.45,208.47,221.9,207.06z"/>
	<g>
		<path class="st7" d="M221.27,211.67c0.41-1.35-0.46-2.88-2.53-4.03l-47.75-26.36c-3.16-1.74-7.9-1.92-10.6-0.39L93.4,219.15
			c-1.5,0.85-2.04,2.05-1.69,3.24c-0.13,0.44-0.13,0.89,0,1.35c-0.41,1.35,0.46,2.88,2.53,4.03l47.75,26.36
			c3.16,1.74,7.9,1.92,10.6,0.39l66.99-38.26c1.5-0.85,2.04-2.04,1.69-3.24C221.4,212.59,221.4,212.13,221.27,211.67z"/>
		<path class="st8" d="M219.57,213.56l-66.99,38.26c-2.69,1.53-7.44,1.35-10.6-0.39l-47.75-26.36c-3.16-1.74-3.53-4.39-0.84-5.92
			l66.99-38.26c2.69-1.53,7.44-1.35,10.6,0.39l47.75,26.36C221.89,209.39,222.27,212.03,219.57,213.56z"/>
	</g>
	<path class="st9" d="M105.1,96.9c0,0,1.09,4.58,8.15,14.39s18.48,10.01,26.15,6.58c7.28-3.26,12.41-10.32,14.6-17.02
		s-12.49-7.17-14.91-10.09s-11.17-5.98-11.17-5.98l-5.1-0.08l-5.72,2.03l-5.43,3.58L105.1,96.9z"/>
	<path class="st10" d="M178.93,21.7c-5.36-5.43-35.1,4.41-52.19,27.52s-29.6,48.15-29.6,48.15c-2.38,4.39,3.65,3.44,11,1.3
		c7.36-2.14,6.03-1.9,11.48-8.33c5.45-6.43,14.12,6.59,18.05,13c3.93,6.42,9.77,2.69,11.83-0.41c0.65-0.97,1.21-1.36,1.68-1.42l0,0
		c0,0,0.05-0.01,0.12-0.01c0.01,0,0.01,0,0.02,0c0.43-0.02,1.8,0.07,2.47,1.81c0.44,1.16,0.54,2.21,0.47,2.87l0.01,0.03
		c8.33-10.3,16.72-28.19,16.72-28.19C185.11,42.23,184.3,27.13,178.93,21.7z"/>
	<path class="st9" d="M111.05,102.1l-0.03-0.02l-0.1,0.2c-0.21,0.32-0.38,0.66-0.49,1.03l-3.41,6.15
		c-2.11,2.78,0.35,8.01,5.49,11.69c5.06,3.61,10.82,4.37,13.01,1.75l0.01,0l5.19-5.16c0.3-0.21,0.57-0.45,0.81-0.72l0.17-0.16
		l-0.03-0.02c2.34-3.08-0.39-8.88-6.08-12.95S113.39,99.02,111.05,102.1z"/>
	<path class="st9" d="M170.87,20.46c-4.77,0.66-11,2.76-17.58,6.23c1.64-0.25,3.86-0.21,6.23,0.95
		C163.25,29.46,171.58,22.86,170.87,20.46z"/>
	<path class="st11" d="M153.29,26.69c0.39-0.06,0.82-0.1,1.28-0.12c2.49-1.34,9.08-4.57,16.32-5.55c0.03-0.21,0.03-0.4-0.02-0.56
		C166.1,21.12,159.87,23.22,153.29,26.69z"/>
	
		<linearGradient id="SVGID_2_" gradientUnits="userSpaceOnUse" x1="1050.8447" y1="-894.3372" x2="1077.9858" y2="-816.3395" gradientTransform="matrix(0.9197 -0.3925 0.3925 0.9197 -491.3055 1283.2065)">
		<stop  offset="0.1583" style="stop-color:#D8F1F3"/>
		<stop  offset="1" style="stop-color:#D4E5E8;stop-opacity:0"/>
	</linearGradient>
	<path class="st12" d="M181.51,31.67c-0.88-4.66-3.43-5.41-4.35-4.37c-0.92,1.04-7.54,13.8-17.28,35.25
		c-9.74,21.45-19.27,29.33-22.34,30.89c-3.07,1.56-5.39-1.16-5.39-1.16s-4.04-4.72-8.01-5.92c-3.97-1.2-7.26,2.81-9.22,5.64
		c-1.96,2.83-3.29,3.53-4.62,4.24c-1.33,0.71-7.97,2.35-10.52,2.55c-2.55,0.19-2.64-1.43-2.64-1.43c-2.38,4.39,3.65,3.44,11,1.3
		c7.36-2.14,6.03-1.9,11.48-8.33c5.45-6.43,14.12,6.59,18.05,13c3.93,6.42,9.77,2.69,11.83-0.41c0.65-0.97,1.21-1.36,1.68-1.42l0,0
		c0,0,0.05-0.01,0.12-0.01c0.01,0,0.01,0,0.02,0c0.43-0.02,1.8,0.07,2.47,1.81c0.2,0.53,0.33,1.04,0.41,1.5
		c4.8-5.87,10.33-14.2,15.05-25.45C180.34,52.92,182.4,36.33,181.51,31.67z"/>
	<path class="st11" d="M137.89,101.36c-1.21-1.94-3.22-5.96-10.11-12.04c-6.89-6.08-11.33,2.37-12.36,3.68
		c-1.03,1.31-2.26,2.7-3.8,3.48c-1.53,0.78-6.34,2.25-10.83,2.9c-4.49,0.65-3.94-1.42-3.94-1.43c-1.52,3.71,4.28,2.75,11.28,0.71
		c7.36-2.14,6.03-1.9,11.48-8.33c5.45-6.43,14.12,6.59,18.05,13c2.75,4.48,6.42,4.01,9.09,2.27l0,0
		C141.68,108.88,139.1,103.3,137.89,101.36z"/>
	<path class="st11" d="M153.78,103.3c-0.67-1.74-2.04-1.83-2.47-1.81c-0.01,0-0.01,0-0.02,0c-0.07,0-0.12,0.01-0.12,0.01l0,0
		c-0.1,0.01-0.2,0.04-0.3,0.09c0.09,0.02,2.5,0.51,2.58,4.43l0.81,0.18l-0.01-0.03C154.32,105.51,154.23,104.45,153.78,103.3z"/>
	
		<ellipse transform="matrix(0.5716 -0.8205 0.8205 0.5716 -45.4459 145.1972)" class="st13" cx="116.33" cy="116.12" rx="6.31" ry="11.44"/>
	
		<ellipse transform="matrix(0.5726 -0.8199 0.8199 0.5726 -45.618 144.8732)" class="st14" cx="116.13" cy="116.19" rx="5.63" ry="10.58"/>
	
		<ellipse transform="matrix(0.5726 -0.8199 0.8199 0.5726 -45.7648 144.7366)" class="st10" cx="115.92" cy="116.26" rx="5.04" ry="9.47"/>
	
		<linearGradient id="SVGID_3_" gradientUnits="userSpaceOnUse" x1="1066.6018" y1="-849.6463" x2="1071.0413" y2="-828.7544" gradientTransform="matrix(0.9197 -0.3925 0.3925 0.9197 -491.3055 1283.2065)">
		<stop  offset="0.1583" style="stop-color:#D8F1F3"/>
		<stop  offset="1" style="stop-color:#D4E5E8;stop-opacity:0"/>
	</linearGradient>
	<path class="st15" d="M153.28,94.84c0,0,2.89,2.67,4.69,6.34c3.65-5.36,7.06-11.49,9.47-16.09l-0.17-0.65l-2.26-4.65l-1.32-0.72
		L153.28,94.84z"/>
	<path class="st10" d="M153.21,94.91c0,0,7.71-15.16,12.85-23.3c0,0,7.78,10.35,7.66,13.11c-0.12,2.75-3.45,7.65-3.45,7.65
		L153.21,94.91z"/>
	<path class="st10" d="M153.21,94.91c0,0,7.71-15.16,12.85-23.3c0,0,7.78,10.35,7.66,13.11c-0.12,2.75-3.45,7.65-3.45,7.65
		L153.21,94.91z"/>
	<path class="st16" d="M153.21,94.91c0,0,7.71-15.16,12.85-23.3c0,0,7.78,10.35,7.66,13.11c-0.12,2.75-3.45,7.65-3.45,7.65
		L153.21,94.91z"/>
	<path class="st10" d="M152.75,94.13c0,0,7.71-15.16,12.85-23.3c0,0,7.78,10.35,7.66,13.11c-0.12,2.75-3.45,7.65-3.45,7.65
		L152.75,94.13z"/>
	<polygon class="st11" points="152.75,94.13 169.82,91.58 170.27,92.36 153.21,94.91 	"/>
	<path class="st17" d="M160.21,52.61c-0.19-0.28-0.32-0.26-0.58-0.08c-1.19,0.84-1.47,2.33-0.64,3.55c1.33,1.97,1.92,2.65,3.25,4.61
		c0.63,0.92,0.86,0.92,1.54-0.01c0.04-0.05,0.07-0.1,0.15-0.21c0.48-0.88,0.5-1.79-0.1-2.69C162.36,55.64,161.65,54.77,160.21,52.61
		z M159.84,59.54c-0.18-0.27-0.3-0.24-0.54-0.07c-1.18,0.86-1.49,2.3-0.72,3.47c0.39,0.6,0.8,1.19,1.2,1.79
		c0.62,0.92,0.8,0.92,1.5,0.01c0.05-0.06,0.09-0.13,0.16-0.24c0.49-0.77,0.5-1.81-0.03-2.62C160.9,61.09,160.35,60.33,159.84,59.54z
		 M166.32,53.81c-2.42-3.56-3.3-4.63-5.72-8.2c-0.21-0.3-0.36-0.28-0.63-0.08c-1.14,0.84-1.43,2.31-0.63,3.48
		c2.3,3.39,3.07,4.29,5.39,7.67c0.18,0.26,0.22,0.75,0.66,0.69c0.34-0.04,0.59-0.4,0.82-0.68c0.06-0.08,0.11-0.16,0.19-0.27
		C166.86,55.57,166.91,54.68,166.32,53.81z"/>
	<g>
		
			<linearGradient id="SVGID_4_" gradientUnits="userSpaceOnUse" x1="1076.1956" y1="-876.1581" x2="1078.7947" y2="-864.5802" gradientTransform="matrix(0.9197 -0.3925 0.3925 0.9197 -491.3055 1283.2065)">
			<stop  offset="0" style="stop-color:#100424;stop-opacity:0.4"/>
			<stop  offset="1" style="stop-color:#221E34;stop-opacity:0"/>
		</linearGradient>
		<path class="st18" d="M161.41,61.88c-0.24-0.36-0.49-0.72-0.73-1.08c-0.26,0.58-0.53,1.16-0.8,1.75
			c-0.21,0.47-0.43,0.93-0.64,1.39c0.18,0.26,0.36,0.53,0.54,0.79c0.62,0.92,0.8,0.92,1.5,0.01c0.05-0.06,0.09-0.13,0.16-0.24
			C161.94,63.73,161.94,62.69,161.41,61.88z"/>
		
			<linearGradient id="SVGID_5_" gradientUnits="userSpaceOnUse" x1="1080.4561" y1="-877.0184" x2="1083.0696" y2="-865.3763" gradientTransform="matrix(0.9197 -0.3925 0.3925 0.9197 -491.3055 1283.2065)">
			<stop  offset="0" style="stop-color:#100424;stop-opacity:0.4"/>
			<stop  offset="1" style="stop-color:#221E34;stop-opacity:0"/>
		</linearGradient>
		<path class="st19" d="M162.24,60.69c0.63,0.92,0.86,0.92,1.54-0.01c0.04-0.05,0.07-0.1,0.15-0.21c0.48-0.88,0.5-1.79-0.1-2.69
			c-0.4-0.59-0.74-1.08-1.06-1.53c-0.47,1.02-0.95,2.06-1.44,3.12C161.6,59.76,161.89,60.18,162.24,60.69z"/>
		
			<linearGradient id="SVGID_6_" gradientUnits="userSpaceOnUse" x1="1084.7091" y1="-877.8387" x2="1087.3314" y2="-866.1573" gradientTransform="matrix(0.9197 -0.3925 0.3925 0.9197 -491.3055 1283.2065)">
			<stop  offset="0" style="stop-color:#100424;stop-opacity:0.4"/>
			<stop  offset="1" style="stop-color:#221E34;stop-opacity:0"/>
		</linearGradient>
		<path class="st20" d="M166.4,56.44c0.46-0.86,0.51-1.76-0.08-2.63c-0.55-0.81-1.02-1.49-1.45-2.1c-0.47,1.01-0.95,2.04-1.45,3.1
			c0.38,0.54,0.81,1.15,1.31,1.88c0.18,0.26,0.22,0.75,0.66,0.69c0.34-0.04,0.59-0.4,0.82-0.68
			C166.27,56.63,166.33,56.55,166.4,56.44z"/>
	</g>
	<path class="st11" d="M170.12,59.18c0.02-0.27,0.09-0.48,0.16-0.7c0.25-0.78,0.54-1.66-0.86-5.78c-0.47-1.39-0.93-2.47-1.34-3.43
		c-1.11-2.6-1.72-4.03-0.43-7.31c0.38-0.95,1.37-2.57,2.62-4.63c3.08-5.05,7.55-12.37,6.89-16.67c-0.08-0.02-0.15-0.05-0.23-0.07
		c0.73,4.19-3.77,11.56-6.86,16.62c-1.26,2.06-2.25,3.68-2.63,4.65c-1.32,3.35-0.7,4.81,0.43,7.46c0.41,0.95,0.87,2.03,1.34,3.41
		c1.37,4.05,1.1,4.9,0.85,5.65c-0.07,0.23-0.15,0.45-0.17,0.74c-0.06,0.8-6.39,11.91-12.52,22.66c-2.96,5.19-6.02,10.55-8.24,14.53
		c-3.76,6.74-6.6,9.18-8.36,10.02c0.1,0.05,0.2,0.09,0.3,0.13c1.81-0.94,4.61-3.48,8.27-10.04c2.22-3.98,5.28-9.34,8.24-14.53
		C164,70.66,170.06,60.03,170.12,59.18z"/>
	<g>
		<g>
			<path class="st10" d="M85.27,136.99c0,0-12.61,2.96-14.35,8.79c-1.74,5.83,3.06,8.17,5.13,8.64c0,0-3.66,0.4-5.25,3.72
				c-1.59,3.32-1.22,7.96,5.4,9.2c0,0-9.34,15.4-15.99,26.31c3.69,2.94,7.27,5.84,11.19,8.69c1.98,1.37,3.99,2.49,6.07,3.36
				c2.65-8.2,13.63-24.29,18.99-33.78c0,0,3.95,4.43,9.79,0.19c5.84-4.24,1.82-8.82,0.44-13.12c-1.38-4.3-5.69-6.31,2.42-17.72
				c0,0,3.92,2.96,7.67-0.75c3.75-3.71,1.44-8.2-1.21-10.6c0,0-3.19-2.3,2.6-11.62c-1.76-0.97-3.69-1.69-5.65-2.3
				C107.06,124.14,97.92,134.38,85.27,136.99z"/>
			<g>
				<path class="st21" d="M108.66,132.48c0.26-0.19,0.54-0.37,0.85-0.53C109.51,131.95,109.09,132.09,108.66,132.48z"/>
				<path class="st21" d="M116.78,140.53c1.46-1.44,2-3,1.96-4.51c-2.74,5.25-10.16,3.46-10.92,0.11c-0.45-1.98,0.22-3.08,0.84-3.64
					c-5.73,4.09-2.29,13.1-2.29,13.1l0,0c0.69-1.27,1.59-2.69,2.74-4.3C109.1,141.28,113.03,144.24,116.78,140.53z"/>
			</g>
			<path class="st22" d="M109.51,131.95c0,0-4.71,2.06-0.4,9.33C109.1,141.28,103.75,135.68,109.51,131.95z"/>
			<g>
				<path class="st21" d="M72.11,149.33c-1.88-4.3,1.65-6.7,1.65-6.7c-1.38,0.79-2.44,1.82-2.84,3.16
					c-1.74,5.83,3.06,8.17,5.13,8.64c0,0-2.97,0.32-4.73,2.82c7.03-4.43,12.43,0.69,12.43,0.69c-2.28-3.02,0.48-4.26,0.48-4.26
					c-0.67-1.83,0.2-3.77,1.02-5.04C81.27,152.93,73.83,153.24,72.11,149.33z"/>
				<path class="st21" d="M85.25,148.63c0.4-0.43,0.77-0.9,1.09-1.41C86.34,147.22,85.81,147.77,85.25,148.63z"/>
			</g>
			<path class="st22" d="M70.81,149.94c0.88,2.85,3.76,4.15,5.24,4.48c4.89,0.62,7.16-2.88,7.16-2.88
				C73.96,157.42,70.81,149.94,70.81,149.94z"/>
			<path class="st21" d="M109.19,165.67c-0.02,3.72-3.09,4.84-4.82,4.28c-1.98-0.65-2.13-3.07-2.13-3.07
				c-3.08,2.67-9.08,2.37-10.86-3.12c-1.78-5.48,2.01-8.06,2.01-8.06c-6.1,0.55-5.73,5.52-9.05,6.63c-3.32,1.11-6.07-2.9-6.07-2.9
				s-0.22,5.49-4.57,4.81c-4.34-0.69-3.2-5.4-3.2-5.4l0,0c-1.22,3.24-0.48,7.36,5.69,8.52c0,0-9.2,14.82-15.4,25.34l0.2,0.43
				L72.26,202l5.16,3.85c2.65-8.22,13.65-24.38,19.03-33.92c0,0,3.95,4.43,9.79,0.19C109.13,170.02,109.61,167.85,109.19,165.67z"/>
			<path class="st21" d="M86.54,150.11c0,0,4.72,2.53,8.38-2.79c0,0-2.44,2.95,0.43,5.11c0,0-2.9-1.17-5.04,1.02
				c0,0,1.18-1.38,0.34-2.08C89.82,150.66,88.08,151.24,86.54,150.11z"/>
		</g>
	</g>
	<g>
		<defs>
			<polyline id="SVGID_7_" points="181.41,155.72 44.69,234.78 44.32,233.34 16.32,125.95 151.85,47.59 153.04,46.9 			"/>
		</defs>
		<clipPath id="SVGID_8_">
			<use xlink:href="#SVGID_7_"  style="overflow:visible;"/>
		</clipPath>
		<g class="st23">
			<path class="st21" d="M108.94,246.26c1.59,0.79,3.52,0.13,4.3-1.46c0.79-1.59,0.13-3.52-1.46-4.3c-1.59-0.79-3.52-0.13-4.3,1.46
				C106.69,243.55,107.35,245.48,108.94,246.26z M105,243.22c0.04-0.07,0.08-0.15,0.12-0.22c2.65-5.36,0.69-11.8-4.35-14.82
				c0.22-0.3,0.42-0.62,0.59-0.97c1.56-3.15,0.27-6.96-2.88-8.52c-0.17-0.09-0.35-0.16-0.53-0.23c0.17-0.25,0.33-0.51,0.47-0.79
				c1.59-3.21,0.27-7.1-2.94-8.69c-1.58-0.78-3.33-0.86-4.89-0.35c1.72-4.95-0.47-10.53-5.3-12.92c-1.36-0.67-2.79-1.02-4.21-1.08
				c0.12-0.17,0.24-0.35,0.33-0.55c1-2.02,0.17-4.46-1.85-5.45c-0.11-0.05-0.22-0.1-0.33-0.14c0.49-0.47,0.91-1.04,1.23-1.68
				c1.49-3.02,0.25-6.68-2.77-8.18s-6.68-0.25-8.18,2.77c-0.16,0.32-0.28,0.64-0.38,0.97c-2.69-1.09-5.81,0.06-7.11,2.71
				c-0.09,0.17-0.16,0.35-0.23,0.53c-0.36-0.23-0.74-0.44-1.14-0.64c-4.45-2.2-9.57-1.5-13.23,1.37c-0.59-1.33-1.64-2.48-3.05-3.17
				c-3.21-1.59-7.1-0.27-8.69,2.94c-0.02,0.05-0.04,0.1-0.07,0.14c-0.46-0.43-0.99-0.81-1.59-1.1c-3.21-1.59-7.1-0.27-8.69,2.94
				c-0.21,0.43-0.37,0.88-0.48,1.33c-0.05-0.02-0.09-0.05-0.14-0.07c-2.4-1.19-5.19-0.72-7.07,0.97c-1.01-1.25-2.29-2.3-3.82-3.06
				c-5.64-2.79-12.48-0.48-15.27,5.17c-1.17,2.37-1.44,4.94-0.94,7.34c-3.04,0.82-5.74,2.9-7.24,5.95
				c-2.08,4.21-1.32,9.08,1.54,12.44c-1.85,7.89,1.88,16.3,9.46,20.04c4.76,2.35,10.07,2.38,14.63,0.52
				c0.24,6.32,3.85,12.31,9.92,15.31c4.74,2.34,10.01,2.38,14.56,0.55c0.71,5.75,4.21,11.04,9.79,13.8
				c5.12,2.53,10.87,2.37,15.65,0.07c1.18,1.06,2.52,1.98,4.01,2.72c7.6,3.76,16.58,1.59,21.71-4.72
				c5.97,0.76,12.03-2.27,14.84-7.96C109.02,253.35,108.25,247.46,105,243.22z"/>
			<path class="st21" d="M84.67,195.43c-0.12-0.05-0.23-0.1-0.35-0.14c-0.05-0.02-0.1-0.04-0.15-0.05
				c-0.12-0.04-0.24-0.08-0.36-0.12c-0.04-0.01-0.08-0.03-0.13-0.04c-0.15-0.04-0.29-0.09-0.44-0.12c-0.02,0-0.03-0.01-0.05-0.01
				c-0.7-0.18-1.41-0.28-2.12-0.31l0,0c-3.33-0.15-6.6,1.3-8.73,3.97l0,0c-2.61-1.65-4.79,0.55-5.47,1.92
				c-0.68,1.37-1.47,1.26-2.04,0.69c-0.57-0.57-2.16-0.22-2.16-0.22c1.48-0.12,0.91,0.45,2.4,1.47c1.48,1.02,1.7-1.15,4.77-1.05
				c3.07,0.1,5.42,4.09,5.48,3.84c0.22-1.02-0.35-2.16-0.35-2.16c2.17,1.92,2.06,3.29,2.06,3.29c5.22-1.96,8.54,1.67,8.54,1.67
				c3.53-0.24,5.36,2.36,5.36,2.36c4.98-2.06,7.85,2.44,7.87,2.47c-0.51-1.65-1.66-3.09-3.33-3.91c-1.58-0.78-3.33-0.86-4.89-0.35
				c0.57-1.64,0.71-3.36,0.46-5c-0.06-0.4-0.14-0.8-0.25-1.19c0-0.01,0-0.01-0.01-0.02c-0.05-0.18-0.11-0.37-0.16-0.55
				c-0.01-0.02-0.01-0.04-0.02-0.07c-0.13-0.38-0.28-0.75-0.45-1.12c-0.01-0.02-0.01-0.03-0.02-0.05c-0.08-0.16-0.16-0.32-0.24-0.48
				c-0.01-0.03-0.03-0.05-0.04-0.08c-0.19-0.35-0.4-0.68-0.63-1.01c-0.02-0.03-0.04-0.05-0.06-0.08c-0.1-0.13-0.2-0.27-0.3-0.4
				c-0.03-0.03-0.05-0.07-0.08-0.1c-0.25-0.3-0.51-0.59-0.79-0.87c-0.03-0.03-0.07-0.06-0.1-0.09c-0.11-0.11-0.22-0.21-0.34-0.31
				c-0.04-0.03-0.08-0.07-0.12-0.1c-0.15-0.12-0.29-0.24-0.45-0.36c0,0-0.01-0.01-0.01-0.01c-0.16-0.12-0.32-0.23-0.48-0.34
				c-0.05-0.03-0.09-0.06-0.14-0.09c-0.12-0.08-0.25-0.16-0.38-0.24c-0.05-0.03-0.1-0.06-0.15-0.09c-0.17-0.1-0.35-0.19-0.53-0.28
				c-0.16-0.08-0.32-0.15-0.48-0.22C84.77,195.46,84.72,195.45,84.67,195.43z"/>
			<g>
				<path class="st10" d="M85.29,195.7c-1.36-0.67-2.79-1.02-4.21-1.08c0.12-0.17,0.24-0.35,0.33-0.55c1-2.02,0.17-4.46-1.85-5.45
					c-1.93-0.95-4.24-0.23-5.31,1.6c-0.14-0.35-0.31-0.62-0.49-0.77c0,0-0.8-1.25-2.85-1.69c0,0-0.12-0.34,0.34-0.68
					c0,0-2.17-0.79-3.41,0.58c-1.25,1.37-1.41,3.01-1.2,3.67c-0.86-2.07-2.29-3.91-4.19-5.29c1.57-2.38,4.69-3.27,7.31-1.97
					c1.41,0.7,2.41,1.9,2.88,3.28c-0.01-0.32-0.05-0.64-0.12-0.96c0.3,0.26,0.64,0.49,1.01,0.68c2.39,1.18,5.29,0.2,6.48-2.19
					c0.69-1.39,0.64-2.94,0.02-4.24c-0.57-0.83-1.35-1.53-2.32-2.01s-2-0.67-3.01-0.62c-1.41,0.29-2.67,1.2-3.36,2.59
					c-0.46,0.94-0.59,1.95-0.44,2.9c-0.4-0.38-0.86-0.71-1.38-0.96c-2.77-1.37-6.13-0.23-7.5,2.54c-0.09,0.18-0.16,0.35-0.23,0.53
					c-0.36-0.23-0.74-0.44-1.14-0.64c-6.17-3.05-13.65-0.52-16.7,5.65c-0.87,1.77-1.29,3.64-1.29,5.49
					c0.22-0.82,0.52-1.63,0.91-2.42c3.14-6.36,10.85-8.97,17.21-5.82c1.76,0.87,3.33,2.16,4.52,3.73c0.21,0.28,0.41,0.56,0.6,0.85
					c0.09,0.14,0.18,0.28,0.26,0.43c0.04,0.07,0.26,0.36,0.25,0.44c-0.24,1.05-0.76,2.21-1.84,2.67c0.99-0.42,1.89-0.87,2.53-1.82
					c0.07-0.1,0.72,0.69,0.77,0.75c0.42,0.52,0.5,1.08,0.53,1.74c0.01,0.29,0.02,0.59,0.03,0.88c-0.01-0.25,0.37-0.73,0.41-1.05
					c0.05-0.43-0.05-0.79-0.18-1.19c-0.14-0.44-0.33-0.87-0.47-1.31c-0.41-1.31-0.54-2.84,0.21-4.06c1.36-2.17,2.27-1.15,2.27-1.15
					s-1.02-0.22-1.36,1.03c0,0,2.84-1.72,4.89,0.43c0,0,0.45-0.05,1.36-0.45c0.11-0.06,0.22-0.11,0.34-0.16
					c0.96-0.38,2.08-0.37,3.08,0.13c1.8,0.89,2.59,3.02,1.84,4.85c-3.25-0.07-6.42,1.37-8.5,3.98c-2.61-1.65-4.79,0.55-5.47,1.92
					c-0.68,1.37-1.47,1.26-2.04,0.69c-0.24-0.24-0.67-0.32-1.08-0.32c0.62,0.17,0.85,0.78,1.54,1.12c0.91,0.45,2.27-1.72,3.74-2.41
					s2.56,0.08,2.56,0.08l0.01-0.01c-0.16,0.27-0.31,0.54-0.46,0.82c-0.15,0.3-0.28,0.61-0.4,0.92c0.46,0.1,0.46,0.13,0.69,0.21
					c2.7-4.94,8.88-6.96,13.97-4.44c3.21,1.59,5.25,4.59,5.76,7.88C91.13,201.21,88.98,197.53,85.29,195.7z"/>
			</g>
			<path class="st21" d="M35.99,186.66c0,0,2.63,2.15,1.85,6.59c0,0,1.81-1.94,5.11-1.16c0,0,1.47-2.96-1.62-5.34
				S35.99,186.66,35.99,186.66z"/>
			<path class="st21" d="M25.53,189.44c0,0,0.78-4.44,6.69-4.35c0,0-1.93,1.03-0.79,2.17c1.14,1.13,2.97,2.03,2.52,3.52
				s2.06,3.29,2.06,3.29s-3.88-1.92-6.48,1.05C29.54,195.11,30.43,190.44,25.53,189.44z"/>
			<path class="st21" d="M89.59,215.42c0,0,3.99,1.12,4.35,4.99c0,0,1.36-1.6,3.75-1.84C97.68,218.57,94.82,215.17,89.59,215.42z"/>
			<circle class="st21" cx="19.62" cy="182.81" r="3.21"/>
			<circle class="st21" cx="104.73" cy="218.06" r="2.07"/>
			<circle class="st10" cx="84.26" cy="202.4" r="1.24"/>
			<circle class="st10" cx="60.15" cy="179.61" r="2.07"/>
			<path class="st10" d="M28.09,201.21c2.49,3.31,3.44,7.29,2.98,11.1c1.71-3.91,1.32-8.61-1.43-12.26
				c-2.75-3.66-7.15-5.34-11.38-4.78C22.04,195.88,25.6,197.9,28.09,201.21z"/>
			<path class="st10" d="M76.08,243.15c-2.94,1.08-5.18,3.22-6.45,5.82c0.52-3.19,2.7-6.01,5.95-7.2c3.25-1.19,6.73-0.45,9.19,1.64
				C82.11,242.25,79.02,242.07,76.08,243.15z"/>
			<path class="st10" d="M67.43,241.87c1.83,0.59,3.35,1.7,4.45,3.11c-0.23,0.24-0.45,0.49-0.65,0.75
				c-1.19-1.08-2.62-1.93-4.25-2.46c-2.98-0.96-6.06-0.66-8.67,0.61C60.69,241.69,64.14,240.81,67.43,241.87z"/>
			<path class="st21" d="M53.26,212.27c0,0,9.62-3.57,15.69,5.67c0,0-3.9-1.93-9.08,1.06C59.87,219.01,59.39,214.38,53.26,212.27z"
				/>
			<path class="st10" d="M55.6,214.55c2.77,2.17,4.43,5.23,4.9,8.45c0.54-3.59-0.82-7.36-3.88-9.75s-7.05-2.8-10.4-1.41
				C49.46,211.51,52.83,212.38,55.6,214.55z"/>
			<path class="st10" d="M65.29,216.16c-2.16,0-4.16,0.66-5.83,1.79c0.16,0.34,0.31,0.67,0.44,1.02c1.64-0.74,3.47-1.16,5.39-1.16
				c3.52,0,6.71,1.39,9.06,3.64C72.57,218.29,69.18,216.16,65.29,216.16z"/>
		</g>
	</g>
	<ellipse class="st17" cx="27.23" cy="129.22" rx="3.26" ry="3.73"/>
	<ellipse class="st4" cx="35.62" cy="124.56" rx="3.26" ry="3.73"/>
	<ellipse class="st24" cx="44.01" cy="119.9" rx="3.26" ry="3.73"/>
	<path class="st11" d="M166.59,193.54c-2.99-0.09-5.72,1.49-6.09,3.52l-4.26,23.43l-10.43-1.36c-2.82-0.58-5.98,0.54-7.05,2.49
		c-1.08,1.95,0.33,4,3.14,4.57l13.42,1.97c2.49,0.51,5.19,0.22,7.4-0.79c0.11-0.05,0.22-0.1,0.33-0.16
		c2.01-1.01,3.33-2.53,3.63-4.21l4.65-25.63C171.71,195.34,169.58,193.62,166.59,193.54z"/>
</g>
</svg>
