<?xml version="1.0" encoding="utf-8"?>
<!-- Generator: Adobe Illustrator 24.0.0, SVG Export Plug-In . SVG Version: 6.00 Build 0)  -->
<svg version="1.1" id="Capa_1" xmlns="http://www.w3.org/2000/svg" xmlns:xlink="http://www.w3.org/1999/xlink" x="0px" y="0px"
	 viewBox="0 0 353.9 361.02" style="enable-background:new 0 0 353.9 361.02;" xml:space="preserve">
<style type="text/css">
	.st0{fill:#D0DAE0;}
	.st1{fill:url(#XMLID_13_);}
	.st2{fill:none;stroke:#FFFFFF;stroke-width:0.5;stroke-linecap:round;stroke-linejoin:round;stroke-miterlimit:10;}
	.st3{fill:#100424;}
	.st4{fill:#FF4F28;}
	.st5{fill:#6694A5;}
	.st6{fill:#F3F0F1;}
	.st7{fill:#B6CCD4;}
	.st8{fill:#2A394F;}
	.st9{fill:#9AB9C4;}
	.st10{fill:#FAFBFD;}
	.st11{fill:#EAF0F2;}
	.st12{fill:#BABCBE;}
	.st13{fill:#EDEBEC;}
	.st14{opacity:0.33;fill:#100424;}
	.st15{fill:#A8C2CC;}
	.st16{fill:#CDDCE1;}
	.st17{fill:#E2EBEE;}
	.st18{fill:#FFFFFF;}
	.st19{fill:#FFFFFF;fill-opacity:0.2;}
	.st20{fill:#FFFFFF;fill-opacity:0.3;}
</style>
<g>
	<path class="st0" d="M142.47,24.26c-4.95,2.94-9.5,6.63-13.47,11.13c-16.21,18.37-34.59,28.93-54.17,43.4
		c-32.13,23.75-54.98,60.26-60.53,99.83s6.77,81.65,34.1,110.81c14.25,15.21,32.5,26.57,52.3,33.01
		c21.11,6.86,40.07,5.11,61.49,3.77c28.6-1.78,57.38-6.88,83.18-19.87c11.72-5.9,23.35-13.08,29.37-25.33
		c1.7-3.46,1.29-7.83,2.88-11.43c2.53-5.74,6.91-10.66,11.77-14.54c19.36-15.47,42.42-20.54,49.41-47.87
		c6.05-23.64-1.51-50.49-16.17-69.53c-11.98-15.56-28.86-26.6-42.03-41.17c-17.51-19.36-28.18-44.61-47.92-61.69
		C209.3,14.55,169.71,8.08,142.47,24.26z"/>
	<g>
		<linearGradient id="XMLID_13_" gradientUnits="userSpaceOnUse" x1="171.6972" y1="238.8855" x2="166.653" y2="73.6885">
			<stop  offset="0" style="stop-color:#33758B"/>
			<stop  offset="1" style="stop-color:#2C516B"/>
		</linearGradient>
		<path id="XMLID_291_" class="st1" d="M299.93,119.78c0-0.21,0.02-0.41,0.02-0.62c0-39.18-28.5-75.06-71.35-75.06
			c-34.05,0-53.8,24.33-60.53,47.11l0,0c-6.74-22.78-26.48-47.11-60.53-47.11c-42.85,0-71.35,35.88-71.35,75.06
			c0,0.21,0.01,0.41,0.02,0.62c-0.23,8.52-0.02,95.27,131.82,165.97v0.02c0.01,0,0.01-0.01,0.02-0.01c0.01,0,0.01,0.01,0.02,0.01
			c0.01,0,0.01-0.01,0.02-0.01c0.01,0,0.01,0.01,0.02,0.01v-0.02C299.95,215.05,300.16,128.3,299.93,119.78z"/>
	</g>
	<g>
		<line class="st2" x1="169.13" y1="88.27" x2="169.13" y2="69.84"/>
		<line class="st2" x1="165.93" y1="88.51" x2="164.16" y2="78.35"/>
		<line class="st2" x1="161.93" y1="89.52" x2="155.69" y2="72.19"/>
		<line class="st2" x1="159" y1="90.83" x2="153.9" y2="81.87"/>
		<line class="st2" x1="155.58" y1="93.14" x2="143.83" y2="78.95"/>
		<line class="st2" x1="153.27" y1="95.37" x2="145.43" y2="88.66"/>
		<line class="st2" x1="150.83" y1="98.7" x2="134.97" y2="89.32"/>
		<line class="st2" x1="149.41" y1="101.57" x2="139.76" y2="97.92"/>
		<line class="st2" x1="148.24" y1="105.54" x2="130.15" y2="102.08"/>
		<line class="st2" x1="147.88" y1="108.72" x2="137.57" y2="108.55"/>
		<line class="st2" x1="148.13" y1="112.84" x2="129.93" y2="115.72"/>
		<line class="st2" x1="148.86" y1="115.96" x2="139.1" y2="119.29"/>
		<line class="st2" x1="150.49" y1="119.76" x2="134.34" y2="128.63"/>
		<line class="st2" x1="152.24" y1="122.44" x2="144.18" y2="128.88"/>
		<line class="st2" x1="155.06" y1="125.47" x2="142.87" y2="139.28"/>
		<line class="st2" x1="157.61" y1="127.4" x2="152.21" y2="136.19"/>
		<line class="st2" x1="161.29" y1="129.29" x2="154.5" y2="146.42"/>
		<line class="st2" x1="164.35" y1="130.24" x2="162.24" y2="140.34"/>
		<line class="st2" x1="168.44" y1="130.77" x2="167.85" y2="149.19"/>
		<line class="st2" x1="171.64" y1="130.64" x2="173.08" y2="140.85"/>
		<line class="st2" x1="175.68" y1="129.75" x2="181.36" y2="147.28"/>
		<line class="st2" x1="178.65" y1="128.54" x2="183.46" y2="137.66"/>
		<line class="st2" x1="182.14" y1="126.33" x2="193.42" y2="140.9"/>
		<line class="st2" x1="184.52" y1="124.19" x2="192.14" y2="131.14"/>
		<line class="st2" x1="187.07" y1="120.93" x2="202.61" y2="130.82"/>
		<line class="st2" x1="188.58" y1="118.11" x2="198.1" y2="122.07"/>
		<line class="st2" x1="189.87" y1="114.18" x2="207.85" y2="118.22"/>
		<line class="st2" x1="190.33" y1="111.01" x2="200.64" y2="111.52"/>
		<line class="st2" x1="190.22" y1="106.88" x2="208.5" y2="104.59"/>
		<line class="st2" x1="189.58" y1="103.74" x2="199.45" y2="100.73"/>
		<line class="st2" x1="188.08" y1="99.89" x2="204.5" y2="91.55"/>
		<line class="st2" x1="186.42" y1="97.16" x2="194.68" y2="90.98"/>
		<line class="st2" x1="183.7" y1="94.05" x2="196.32" y2="80.63"/>
		<line class="st2" x1="181.2" y1="92.03" x2="186.88" y2="83.42"/>
		<line class="st2" x1="177.59" y1="90.03" x2="184.93" y2="73.12"/>
		<line class="st2" x1="174.57" y1="88.97" x2="176.99" y2="78.95"/>
	</g>
	<path class="st3" d="M102.37,299.59c0,0-9.42,6.75-11.21,10.66c-1.16,2.53,8.8,15.46,13.87,21.86c6.02,7.61,12.3,0.94,11.46-2.98
		c-0.72-3.44-8.04-14.4-4.82-20.96C112.91,305.6,102.37,299.59,102.37,299.59z"/>
	<path class="st4" d="M101.9,297.07c0,0-7.8,7.72-9.59,11.63c-1.16,2.53,8.8,15.46,13.86,21.85c6.02,7.61,12.3,0.94,11.47-2.98
		c-0.73-3.43-8.04-14.4-4.83-20.96C114.06,304.05,101.9,297.07,101.9,297.07z"/>
	<path class="st5" d="M104.22,291.89c-1.4,2.11-2.53,3.92-3.32,5.05c-2.72,3.86,10.49,12.32,12.95,9.6c0.83-0.92,2.3-2.56,3.99-4.47
		C107.01,298.29,104.22,291.89,104.22,291.89z"/>
	<path class="st6" d="M96.47,246.08c0,0,9.93,24.06,12.68,32.57c-3.76,5.86-5.34,9.77-7.29,14.92c-2.56,6.78,11.87,14.57,14.78,11.2
		c2.91-3.36,11.12-14.25,12.77-20.22c1.64-5.96-10.35-53.17-14.65-61.38C111.26,218.96,96.47,246.08,96.47,246.08z"/>
	<path class="st7" d="M111.15,275.8c-1.07-6.44-3.22-17.16-1.07-24.67c1.84-4.6,5.27-9.98,10.27-11.42
		c-2.18-7.67-4.26-13.98-5.59-16.53c-3.5-4.21-18.28,22.91-18.28,22.91s9.93,24.06,12.68,32.57c-3.76,5.86-5.34,9.77-7.29,14.92
		c-2.56,6.78,11.87,14.57,14.78,11.2c0.12-0.14,0.27-0.31,0.41-0.48c-2.88-0.26-5.67-1.45-8.04-3.82
		C102.57,291.89,113.3,283.31,111.15,275.8z"/>
	<path class="st3" d="M59.46,302.07c0,0-7.15,1.68-9.22,3.94c-2.07,2.26,1.56,16.03,4.02,24.75c2.92,10.38,12.29,7.13,14.15,5.05
		c2.58-2.88-2.38-13.65,1.52-19.91C71.59,313.23,59.46,302.07,59.46,302.07z"/>
	<path class="st4" d="M60.99,300.96c0,0-7.15,1.68-9.22,3.94c-2.06,2.26,1.56,16.03,4.02,24.76c2.92,10.38,12.29,7.13,14.16,5.05
		c2.58-2.88-2.38-13.65,1.51-19.91C73.12,312.13,60.99,300.96,60.99,300.96z"/>
	<path class="st5" d="M66.1,296.24c-2.03,1.86-3.7,3.46-4.83,4.44c-3.88,3.34,7.33,16.14,10.62,13.94c1.12-0.75,3.09-2.08,5.37-3.63
		C67.17,303.86,66.1,296.24,66.1,296.24z"/>
	<path class="st6" d="M72.05,230.4c0.96,21.44,3.34,49.5,3.34,49.5s-7.05,9.69-11.96,17.56c-4.41,7.08,7.68,19.69,13.58,14.23
		c5.9-5.46,14.77-14.9,16.44-17.05c1.68-2.15,7.04-19.56,5.12-47.91c-0.25-3.69-1.7-10.48-1.7-10.48l-13.12-10.81l-8.05-2
		C75.71,223.45,73.13,228.67,72.05,230.4z"/>
	<path class="st7" d="M65.73,293.89c-0.79,1.21-1.57,2.41-2.29,3.58c-4.41,7.08,7.68,19.69,13.58,14.23
		c3.82-3.54,8.88-8.74,12.44-12.56c-1.77,1.12-3.79,1.97-6.18,2.4C76.43,302.4,68.24,299.84,65.73,293.89z"/>
	<path class="st7" d="M96.88,236.26l-13.12-10.81l-8.05-2c0,0-2.58,5.22-3.66,6.95c0.04,0.91,0.09,1.84,0.13,2.77
		c2.83-0.95,6.04-0.43,7.87,0.79c8.58,5.36,5.36,20.38,18.24,24.67c0.26,0.09,0.49,0.22,0.7,0.37c0.01-3.82-0.11-7.91-0.41-12.26
		C98.32,243.05,96.88,236.26,96.88,236.26z"/>
	<path class="st7" d="M78.73,284.7c1.46-2.95,6.77,4.45,18.13-1.29c2.22-1.12,1.44,5.96-1.3,11.19c-2.03,3.86-5.22,6.74-7.85,6.39
		C79.99,299.97,77.26,287.66,78.73,284.7z"/>
	<path class="st7" d="M113.05,280.99c0.4-2.94,7.28,1.66,15.5-6.67c1.62-1.63,3.06,4.58,2.24,9.84c-0.6,3.87-2.54,7.29-4.95,7.8
		C118.77,293.48,112.66,283.93,113.05,280.99z"/>
	<path class="st6" d="M155.06,125.05c0,0,0.76-2.72,1.91-6.88c0.81-2.93,0.84-7.8,1.05-9.04c0.43-2.54,3.44-7.91,6.38-8.69
		c3.14-0.84,10.52,5.2,10.02,7.95c-0.5,2.74-2.37,5.19-2.37,5.19s0.09,6.99-0.03,9.48c-0.12,2.5-1.73,7.82-1.73,7.82l-4.86,4.43
		l-10.29-4.49L155.06,125.05z"/>
	<path class="st5" d="M153.96,128.12c-0.69,4.69,12.43,9.99,15.45,5.51l0.88-2.75c-3.47,2.99-15.15-1.6-15.23-5.84L153.96,128.12z"
		/>
	<path class="st6" d="M111.38,164.27c1.69,4.27,2.34,11.11,12.38,7.02c12.55-5.29,27.07-11.54,34.53-14.95
		c5.58-2.54,9.36-17.37,11.1-22.71c-2.77,3.17-14.82-1.67-15.45-5.51c-2.56,5.25-6.44,15.02-6.44,15.02s-19.68,6.38-29.64,10.08
		C113.19,154.96,108.03,155.82,111.38,164.27z"/>
	<path class="st7" d="M151.92,146c4.29,10.73-11.8,15.02-19.31,17.16c-7.99,1-15.97,0.13-22.23-4.31c-0.18,1.35,0.08,3.09,1,5.42
		c1.69,4.27,2.34,11.11,12.38,7.02c12.55-5.29,27.07-11.54,34.53-14.95c4.89-2.23,8.4-13.89,10.36-20.33
		C165.84,143.13,160.6,148.32,151.92,146z"/>
	<path class="st7" d="M127.41,169.76c0,0-1.82-6.33-6.68-9.13c-0.27,0.29,2.35,10.08,2.35,10.08l2.49-0.17L127.41,169.76z"/>
	<path class="st7" d="M136.6,150.54c-0.41,1.18-5.65,2.35-14.6,5.43c-0.85,0.2-1.69-6.3-0.55-6.59c4.03-0.93,9.54-2.47,12.91-2.83
		C135.47,146.42,136.86,149.79,136.6,150.54z"/>
	<path class="st8" d="M96.14,160.01c0,0,1.02-2.59,1.41-4.44c0.76,7.45,12.19,9.17,14.77,5.11c-0.19,1.67,2.48,5.98,2.48,5.98
		l-3.27,8.34l-11.81,2.86l-9.71-7.7l2.93-8.26L96.14,160.01z"/>
	<path class="st5" d="M118.62,225.03l0.09,6.01c-5.13,17.91-25.2,18.26-25.2,18.26s0.57-5.31,2.76-5.29
		C111.87,238.87,118.62,225.03,118.62,225.03z"/>
	<path class="st5" d="M75.13,225.78c0,0-0.6,1.54-1.1,2.28c16.25-4.38,20.32,21.3,20.32,21.3l1.55-1.47l2.83-4.24l-2.04-9.59
		l-8.99-10.11l-8.07-3.15L75.13,225.78z"/>
	<path class="st6" d="M95.96,159.09c-6.82,2.39-16.71,10.46-16.71,10.46s-3.71,19.05-2.78,23.44c2.48,11.73-0.81,19.45-1.35,32.79
		c14.26-4.84,20.44,16.35,20.78,22.12c17.16-6.27,22.4-14.4,23.86-25.58c1-7.66,4.73-24.01,5.98-34.25
		c2.27-18.61-2.17-25.95-8.25-30.23l-5.07,4.88c6.7,11.39-11.05,12.34-14.23,10.49C96.74,172.64,85.08,169.94,95.96,159.09z"/>
	<path class="st7" d="M86.48,199.64c3.22-7.51,6.44-17.16,1.07-24.67c-2.52-2.52-5.41-4.29-8.45-4.68
		c-0.67,3.54-3.46,18.83-2.64,22.7c1.34,6.33,1,11.5,0.31,17.01C80.76,207.6,84.11,203.79,86.48,199.64z"/>
	<path class="st5" d="M107.38,226.61l4.91-2.34c0.99-12.67,8.84-39.96,0.42-52.49l-4.44,1.48
		C116.48,187.95,108.62,210.76,107.38,226.61z"/>
	<g>
		<polygon class="st9" points="104.79,217.53 99.67,214.01 101.26,193.82 106.38,197.34 		"/>
		<polygon class="st7" points="104.79,217.53 127.07,206.87 128.65,186.68 106.38,197.34 		"/>
		<polygon class="st10" points="106.38,197.34 128.65,186.68 123.53,183.16 101.26,193.82 		"/>
	</g>
	<path class="st5" d="M96.14,160.01c0,0-4.47,4.38-0.66,8.46c3.06,3.28,9.98,4.54,14.21,2.1c4.55-2.61,3.26-7.17-0.31-9.56
		l3.61-1.05c0,0,8.35,8.62-1.78,13.55c-8.86,4.31-16.6,0.18-18.85-2.51c-3.42-4.09-2.15-8.74,4.52-13.06L96.14,160.01z"/>
	<path class="st11" d="M64.85,229.3c0,0,0.72,8.13,1,9.43c3.49-0.16,5.87,1.86,5.4,3.42c-0.44,1.45-3.05,0.75-3.14,1.22
		c0,0,8.28-0.59,8.4,1.53c0.13,2.12-11.69,8.39-16.2,5.53c-6.24-3.95-10.7-19.77-10.7-19.77L64.85,229.3z"/>
	<path class="st5" d="M48.93,224.69c0.25,2.35,0.52,4.31,0.61,5.59c0.34,4.38,15.15,2.44,15.3-0.98c0.05-1.16,0.08-3.36-0.15-5.76
		C54.68,227.28,48.93,224.69,48.93,224.69z"/>
	<polygon class="st7" points="77.25,198.22 77.36,200.22 85.29,190.49 79.49,192.72 	"/>
	<path class="st6" d="M87.49,172.8c-3.35-3.13-10.5-5-18.44,4.47c-7.6,8.08-15.53,17.43-20.62,24.59c-3.56,5-0.94,19.96,0.31,25.94
		c0.98,4.71,16.1,2.68,16.35-1.06c0.32-4.73-0.79-17.21-0.79-17.21s13.24-11.09,20.66-18.7C88.45,187.26,94.13,179.01,87.49,172.8z"
		/>
	<path class="st7" d="M68.69,195.93c1.13,0.54,4.66-3.96,11.47-10.54c3.9-3.76,13.37-9.59,5.61-15.66
		c-3.92-3.06-10.46-2.89-17.96,6.04c-2.65,3.16-5.99,7.8-8.39,10.21C57.6,187.81,66.27,194.78,68.69,195.93z"/>
	<path class="st7" d="M51.45,197.74c-1.24,8,4.17,9.93,3.81,13.17c-0.36,3.24-6.26,6.08-8.56,3.33
		C44.81,211.97,44.21,202.14,51.45,197.74z"/>
	<path class="st7" d="M153.57,158.47c2.74-1.2,2.44-4.53,4.72-6.86c2.12-2.15,4.65-1.17,4.57,0.76
		C162.77,154.2,160.56,159.18,153.57,158.47z"/>
	<path class="st7" d="M147.52,143.14c0,0,5.54-0.84,8.78,7.28C152.97,145.04,147.52,143.14,147.52,143.14z"/>
	<path class="st7" d="M161.47,119.71c0,0,1.21-9.28,5.09-8.72c3.8,0.56,1.61,9.83,1.61,9.83L161.47,119.71z"/>
	<path class="st6" d="M161.47,119.71c0,0,2.35-8.34,4.96-7.91c2.6,0.43,1.74,9.02,1.74,9.02L161.47,119.71z"/>
	<path class="st5" d="M126.71,138.39c1.81,3.66-0.77,7.08-0.77,7.08l-2.84-7.27l1.73-0.61
		C124.83,137.59,126.07,138.15,126.71,138.39z"/>
	<path class="st5" d="M85.04,155.34l0.7,7.73c0.56,5.16,6.55,8.59,15.6,9.41l0.05-6.57l-7.74-8.14L85.04,155.34z"/>
	<path class="st7" d="M99.68,167.86c-6.19-1.37-14.4-5.22-14.99-10.63c-0.21-1.89-0.87-8.05-0.87-8.05l12.24,2.62l7.95,10.43
		C104.01,162.23,100.22,167.7,99.68,167.86z"/>
	<path class="st6" d="M103.94,161.73l17.76,2.03l0.09,0.91c0.59,5.47-6.68,10.19-14.9,10.08c-7.97-0.1-13.47-5.38-15.02-9.16
		c-0.58-1.42,1.24-4.67,1.24-4.67L103.94,161.73z"/>
	<path class="st9" d="M121.89,165.42c-3.14,6.33-21.3,9.58-27.62-1.48c-1.38-0.98-0.4-1.13-0.4-1.13l9.76-4.06l14.18,2.73
		C117.8,161.47,121.46,164.57,121.89,165.42z"/>
	<path class="st12" d="M125.69,140.26c1.69,2.27-0.03,5.09-0.03,5.09l-3.59-5.27l1.73-0.61
		C123.8,139.46,125.04,140.02,125.69,140.26z"/>
	<path class="st3" d="M124.45,140.03c4.7,10.21,2.66,19.44-2.56,25.38c-2.8,3.18-18,10.05-27.24-2.27c-2.81-1.58-3.9-8.07-3.9-8.07
		l22.17-20.14L124.45,140.03z"/>
	<path class="st6" d="M125.24,148.45c0.05,0.52-0.15,0.96-0.43,0.99c-0.28,0.03-0.54-0.37-0.58-0.89c-0.04-0.52,0.15-0.96,0.43-0.99
		C124.94,147.53,125.2,147.93,125.24,148.45z"/>
	<path class="st6" d="M124.96,144.2c0.3,1.2,0.02,2.31-0.62,2.48c-0.65,0.17-1.42-0.67-1.72-1.87c-0.31-1.2-0.02-2.32,0.62-2.48
		C123.89,142.16,124.66,142.99,124.96,144.2z"/>
	<path class="st6" d="M82.8,149.3c-1.27-11.83,7.28-22.45,19.1-23.72c8.08-0.88,15.6,2.85,19.96,9.07
		c-0.12,0.02-0.23,0.05-0.35,0.07c1.83,1.9,3.24,3.87,4.17,5.54c-18.85,2.31-32.03,20.59-32.03,20.59l-2.92-0.81
		c0,0-5.95-1.9-7.11-6.13c-0.39-1.33-0.64-2.7-0.76-4.08C82.85,149.66,82.82,149.48,82.8,149.3z"/>
	<path class="st7" d="M92.65,160.57c9.55-17.96,31.23-23.2,34.06-22.18c-1-2.57-4.21-6.89-9.15-9.54
		c-13.08-1.73-28.25,15.84-26.78,30.84L92.65,160.57z"/>
	<g>
		<path class="st9" d="M89.17,158.64l1.18-0.86l0,0c0.36-0.25,0.84-0.28,1.39-0.04c1.37,0.61,2.66,2.71,2.88,4.69
			c0.12,1.17-0.15,2.03-0.68,2.42l0,0l-1.19,0.86l-0.46-0.92c-1.29-0.73-2.45-2.7-2.65-4.57c-0.03-0.26-0.03-0.5-0.02-0.72
			L89.17,158.64z"/>
		<path class="st6" d="M88.55,161.03c0.22,1.98,1.5,4.07,2.88,4.69c1.38,0.61,2.32-0.51,2.1-2.49c-0.21-1.98-1.5-4.09-2.88-4.69
			C89.28,157.93,88.34,159.05,88.55,161.03z"/>
		<path class="st9" d="M89.36,161.38c0.14,1.35,1.02,2.77,1.95,3.18c0.57,0.26,1.04,0.07,1.27-0.45c-0.16,0.01-0.33-0.02-0.52-0.1
			c-0.93-0.41-1.8-1.84-1.94-3.18c-0.06-0.51,0-0.93,0.14-1.24C89.63,159.62,89.24,160.32,89.36,161.38z"/>
		<path class="st7" d="M90.12,160.83c0.14,1.34,1.01,2.77,1.94,3.18c0.19,0.08,0.36,0.11,0.52,0.1c0.15-0.3,0.21-0.73,0.15-1.23
			c-0.14-1.34-1.02-2.76-1.95-3.18c-0.19-0.08-0.36-0.12-0.52-0.11C90.11,159.9,90.06,160.32,90.12,160.83z"/>
	</g>
	<g>
		<polygon class="st7" points="220.07,207.61 214.11,204.67 212.7,183.09 218.65,186.02 		"/>
		<polygon class="st6" points="220.07,207.61 241.98,192.93 240.56,171.34 218.65,186.02 		"/>
		<polygon class="st13" points="218.65,186.02 240.56,171.34 234.61,168.4 212.7,183.09 		"/>
	</g>
	<path class="st3" d="M232.78,329.14c-2.31,2.12-1.72,6.7,1.09,7.05c2.88,0.36,15.44-1,19.88-1.35c4.21-0.33,6.73-2.15,5.79-5.96
		C256.6,317.01,235.08,327.02,232.78,329.14z"/>
	<path class="st4" d="M235.17,304.47c0,0,3.23,13.75,2.73,15.48c-0.87,3-2.94,5.51-5.23,7.63c-2.3,2.12-1.72,6.7,1.09,7.05
		c2.88,0.36,15.44-1,19.88-1.35c4.21-0.33,6.73-2.15,5.79-5.96c-2.93-11.87-5.35-27.15-5.35-27.15L235.17,304.47z"/>
	<path class="st14" d="M235.17,304.47c0,0,3.23,13.75,2.73,15.48c-0.87,3-2.94,5.51-5.23,7.63c-2.3,2.12-1.72,6.7,1.09,7.05
		c2.88,0.36,15.44-1,19.88-1.35c4.21-0.33,6.73-2.15,5.79-5.96c-2.93-11.87-5.35-27.15-5.35-27.15L235.17,304.47z"/>
	<path class="st5" d="M232.51,296.46c0.39,2.82,1.16,6,1.32,7.54c0.55,5.27,20.79,0.65,20.89-3.46c0.04-1.4-0.74-4.97-0.74-4.97
		C241.28,300.25,232.51,296.46,232.51,296.46z"/>
	<path class="st15" d="M266.77,243.22c-7.26,10.12-17.69,25.55-17.69,25.55s4.44,17.5,5.46,28.59c0.48,5.23-20.36,8.84-21.48,4.63
		c-2.15-8.02-6.19-30.52-6.45-34.76c-0.17-2.79,10.2-30.77,21.39-41.65c1.51-3.44,11.89,1.8,11.89,1.8S266.3,241.2,266.77,243.22z"
		/>
	<path class="st15" d="M237.75,267.95c0.21-3.36-7.58-4.05-7.46-14.37c0.03-2.6-6.36,4.9-6.29,10.7c0.05,4.44,1.24,8.78,3.38,9.91
		C230.06,275.62,237.38,273.63,237.75,267.95z"/>
	<path class="st3" d="M205.07,340.58c-2.23,2.19-1.95,7.13,0.87,7.39c2.89,0.28,18.05-0.74,22.47-1.23
		c4.21-0.45,6.24-3.14,5.18-6.93C233.24,338.21,207.31,338.38,205.07,340.58z"/>
	<path class="st4" d="M207.84,316.23c0,0,4.03,13.24,3.57,14.98c-0.78,3.02-4.45,5.57-6.69,7.77c-2.24,2.19-1.95,7.13,0.86,7.39
		c2.89,0.28,18.05-0.75,22.48-1.23c4.2-0.46,6.24-3.14,5.18-6.93c-3.28-11.78-6.65-26.85-6.65-26.85L207.84,316.23z"/>
	<path class="st5" d="M205.4,308.67c0.52,2.8,1.51,5.46,1.75,6.99c0.82,5.23,20.09,0.7,19.96-3.41c-0.04-1.39-1.04-5.64-1.04-5.64
		C214.07,311.98,205.4,308.67,205.4,308.67z"/>
	<path class="st6" d="M240.84,258.08c-7.27,10.12-21.03,24.18-21.03,24.18s5.66,15.65,7.05,26.71c0.66,5.22-19.58,8.8-20.86,4.63
		c-2.43-7.94-8.87-29.84-9.12-34.09c-0.17-2.79,12.97-31.29,24.15-42.16c1.51-3.43,6.79-5.2,6.79-5.2l6.73-2.45l4.48-1.23
		C239.02,228.46,240.36,256.05,240.84,258.08z"/>
	<path class="st16" d="M219.8,282.26c0,0,13.76-14.06,21.03-24.18c-0.48-2.03-1.82-29.62-1.82-29.62l-4.48,1.23l-6.73,2.45
		c0,0-5.28,1.77-6.79,5.2c-1.4,1.36-2.83,3-4.26,4.83c6.69,3.14,11.47,7.34,13.47,14.32c2.15,10.73-9.65,20.38-19.31,21.45
		c4.29,5.36,7.51,10.73,8.58,17.16c0,8.1-3.78,16.93-10.07,20.21c6.08,0.71,17.93-2.34,17.42-6.35
		C225.46,297.91,219.8,282.26,219.8,282.26z"/>
	<path class="st5" d="M222.42,234.74c0,0-0.55,1.46-1.4,2.6c5.17,15.19,19.81,20.74,19.81,20.74l2.54-0.67l-2.11-16.89l-13.2-10.4
		L222.42,234.74z"/>
	<path class="st6" d="M229.29,164.67c-1.9,1.66-7.31,8.97-9.44,11.33c-7.27,16.4,4.95,40.39,2.57,58.74c0,0,3.99,12.38,20.96,22.67
		c3.36,0.11,21.02-13.4,21.02-13.4l-9.8-78.72C254.59,165.29,237.19,157.82,229.29,164.67z"/>
	<path class="st16" d="M246.31,187.84c5.63-10.55,3.41-18.8-2.72-25.65c-5.04-0.79-10.68-0.67-14.3,2.48
		c-1.9,1.66-7.31,8.97-9.44,11.34c-3.61,8.16-2.41,18.19-0.58,28.47C230.48,204.68,241.16,197.29,246.31,187.84z"/>
	<path class="st6" d="M183.37,133.05c-1.51-3.67-3.39-8.14-3.82-12.1c-0.5-4.58,0.85-9.17,0.07-13.74
		c-0.37-2.17-1.49-4.51-3.61-5.11c-3.34-0.95-6.47,1.9-7.96,4.56c-3.06,5.44-4.19,11.92-3.26,18.08c0.19,1.22,3.77,13.34,3.67,13.37
		C168.48,138.1,182.97,133.99,183.37,133.05z"/>
	<path class="st5" d="M185.86,139.2c-0.91-2.35-1.72-4.3-2.18-5.6c-1.56-4.43-16.03,1.4-15.26,4.97c0.27,1.21,1.69,6.02,1.69,6.02
		C179.43,137.98,185.86,139.2,185.86,139.2z"/>
	<path class="st6" d="M190.88,150.86c-0.86-2.5-3.62-10.42-5.53-14.21c-1.81-3.57-18.13,1.52-16.38,6.35
		c1.77,4.92,6.66,19.84,12.23,24c0.09-0.4,0.2-0.79,0.34-1.17C183.16,160.1,186.07,154.82,190.88,150.86z"/>
	<path class="st6" d="M225.86,167.01c-5.02-1.89-10.07-3.72-15.12-5.54c-2.49-0.9-5-1.78-7.49-2.69c-2.77-1.01-5.41-1.75-7.69-3.76
		c-1.79-1.59-3.24-3.53-4.66-5.46c-0.73-0.99-1.54-2.05-2.72-2.37c-1.76-0.48-3.49,0.87-4.63,2.29c-3.65,4.54-4.85,10.94-3.09,16.5
		c0.29,0.92,0.94,1.81,1.71,2.38c7.53,5.6,24.56,14.77,35.38,18.68c10.82,3.91,16.48,0.81,18.3-3.74
		C239.47,174.28,230.86,168.89,225.86,167.01z"/>
	<path class="st7" d="M207.41,169.48c0.82-1.05,6.34,1.57,15.99,4.6c5.53,1.74,17.35,2.79,12.83,12.3
		c-2.28,4.8-8.61,7.76-20.04,2.79c-4.04-1.76-9.45-4.6-12.89-5.76C200.68,182.52,205.64,171.72,207.41,169.48z"/>
	<path class="st7" d="M191.91,174.6c-6.14-6.09-2.75-11.04-5.11-13.59c-2.36-2.56-9.24-1.26-9.48,2.56
		C177.13,166.72,182.89,175.41,191.91,174.6z"/>
	<path class="st7" d="M209.09,281.87c0.22-3.35-7.58-4.05-7.45-14.37c0.03-2.6-6.36,4.9-6.29,10.7c0.05,4.45,1.24,8.78,3.38,9.91
		C201.41,289.54,208.73,287.55,209.09,281.87z"/>
	<g>
		<path class="st7" d="M222.2,156.65c-0.78-1.15-0.02-2.92-0.02-2.92l2.94,0.53l-0.17,3.25C224.95,157.5,222.69,157.15,222.2,156.65
			z"/>
		<path class="st5" d="M243.79,120.63c3.22,1.51,3.23,4.69,3.23,4.69l-6.49-3.9l1.38-1C241.91,120.42,243.15,120.58,243.79,120.63z"
			/>
		<path class="st3" d="M218.1,146.41c2.23,10.47,12.52,17.15,22.99,14.92c10.46-2.22,17.15-12.51,14.92-22.98
			c-2.23-10.47-12.51-17.14-22.98-14.92C222.56,125.66,215.88,135.94,218.1,146.41z"/>
		
			<rect x="225.62" y="155.02" transform="matrix(0.9782 -0.2074 0.2074 0.9782 -27.9225 50.7881)" class="st7" width="5.17" height="7.03"/>
		<path class="st5" d="M227.74,157.36l-1.58,0.33l0.64-2.17l30.45-1.72l0.63,2.93c1.43,6.75-16.66,15.88-28.58,7.93L227.74,157.36z"
			/>
		<path class="st7" d="M227.74,157.36l-1.65,0.35l-0.17-0.32l0.94-4.13l30.53-3.35l0.55,2.6c1.1,5.14-9.32,12.63-18.19,12
			c-3.73-0.26-7.62-1.18-11.23-3.44L227.74,157.36z"/>
		<path class="st6" d="M224.6,154.94c-1.28,1.62-2.4,1.7-2.4,1.7l3.34,5.9c3.48,0.35,2.14-4.67,2.21-5.64
			c0.06-0.96,0.19-2.9,0.19-2.9L224.6,154.94z"/>
		<path class="st6" d="M225.33,155.21c4.61,5.02,11.68,7.54,18.83,6.02c10.76-2.29,17.63-12.87,15.34-23.63
			c-2.29-10.76-12.87-17.63-23.63-15.34c-1.81,0.38-6.66,1.79-10.57,4.58C213.93,134.13,223,152.67,225.33,155.21z"/>
		<path class="st7" d="M227.16,152.35c-0.51-19.87,11.71-31.16,16.63-31.72c-2.3-1.26-12.97-0.32-17.39,4.19
			c-6.44,6.57-6.38,14.31-1.13,27.25L227.16,152.35z"/>
		<g>
			<path class="st6" d="M223.07,152.41l0.81-1.08l0.01,0c0.26-0.32,0.67-0.47,1.22-0.4c1.38,0.18,3.08,1.7,3.79,3.41
				c0.41,1,0.4,1.84,0.03,2.32l0,0.01l-0.82,1.08l-0.66-0.69c-1.33-0.31-2.88-1.75-3.56-3.37c-0.09-0.22-0.16-0.43-0.21-0.63
				L223.07,152.41z"/>
			<path class="st7" d="M223.14,154.69c0.71,1.7,2.4,3.23,3.79,3.41c1.38,0.18,1.92-1.06,1.21-2.76c-0.71-1.71-2.4-3.23-3.78-3.41
				C222.98,151.75,222.43,152.98,223.14,154.69z"/>
			<path class="st6" d="M223.95,154.79c0.48,1.16,1.63,2.19,2.57,2.31c0.58,0.08,0.94-0.21,1.01-0.73
				c-0.13,0.05-0.29,0.07-0.49,0.04c-0.93-0.12-2.08-1.15-2.56-2.31c-0.19-0.44-0.24-0.83-0.2-1.14
				C223.73,153.15,223.56,153.87,223.95,154.79z"/>
			<path class="st6" d="M224.48,154.1c0.49,1.15,1.63,2.19,2.56,2.31c0.19,0.03,0.36,0.01,0.49-0.04c0.06-0.31-0.01-0.7-0.19-1.14
				c-0.49-1.15-1.63-2.18-2.57-2.3c-0.19-0.02-0.35-0.01-0.49,0.04C224.24,153.27,224.29,153.66,224.48,154.1z"/>
		</g>
	</g>
	<g>
		<g>
			<polygon class="st7" points="257.65,259.5 237.39,249.51 232.22,170.93 252.49,180.92 			"/>
			<polygon class="st17" points="257.65,259.5 295.22,234.39 290.05,155.81 252.49,180.92 			"/>
			<polygon class="st18" points="252.49,180.92 290.05,155.81 269.78,145.82 232.22,170.93 			"/>
		</g>
	</g>
	
		<ellipse transform="matrix(0.7071 -0.7071 0.7071 0.7071 -18.4811 215.3228)" class="st18" cx="250.68" cy="129.97" rx="2.29" ry="6.21"/>
	<circle class="st18" cx="242.02" cy="127.77" r="2.15"/>
	
		<ellipse transform="matrix(0.8363 -0.5483 0.5483 0.8363 -56.6829 74.8494)" class="st18" cx="96.99" cy="132.34" rx="6.21" ry="2.29"/>
	<circle class="st18" cx="93.07" cy="140.36" r="2.15"/>
	<g id="XMLID_525_">
		<path id="XMLID_532_" class="st19" d="M173.76,226.02c-3.86,0-6.99,3.13-6.99,6.99c0,3.86,3.13,6.99,6.99,6.99
			c3.86,0,6.99-3.13,6.99-6.99C180.75,229.15,177.62,226.02,173.76,226.02z"/>
		<path id="XMLID_530_" class="st20" d="M181.95,233.01L181.95,233.01c0-0.65-0.53-1.18-1.18-1.18h-14.03
			c-0.65,0-1.18,0.53-1.18,1.18l0,0c0,0.65,0.53,1.18,1.18,1.18h14.03C181.42,234.19,181.95,233.67,181.95,233.01z"/>
		<path id="XMLID_528_" class="st20" d="M173.76,241.21L173.76,241.21c0.65,0,1.18-0.53,1.18-1.18V226c0-0.65-0.53-1.18-1.18-1.18
			l0,0c-0.65,0-1.18,0.53-1.18,1.18v14.03C172.57,240.68,173.1,241.21,173.76,241.21z"/>
		<path id="XMLID_527_" class="st18" d="M173.76,237.97L173.76,237.97c0.65,0,1.18-0.53,1.18-1.18v-7.56c0-0.65-0.53-1.18-1.18-1.18
			l0,0c-0.65,0-1.18,0.53-1.18,1.18v7.56C172.57,237.44,173.1,237.97,173.76,237.97z"/>
		<path id="XMLID_526_" class="st18" d="M178.72,233.01L178.72,233.01c0-0.65-0.53-1.18-1.18-1.18h-7.56
			c-0.65,0-1.18,0.53-1.18,1.18l0,0c0,0.65,0.53,1.18,1.18,1.18h7.56C178.19,234.19,178.72,233.67,178.72,233.01z"/>
	</g>
	<g id="XMLID_529_">
		<path id="XMLID_546_" class="st19" d="M71.85,93c-3.86,0-6.99,3.13-6.99,6.99c0,3.86,3.13,6.99,6.99,6.99
			c3.86,0,6.99-3.13,6.99-6.99C78.84,96.14,75.71,93,71.85,93z"/>
		<path id="XMLID_544_" class="st20" d="M80.05,100L80.05,100c0-0.65-0.53-1.18-1.18-1.18H64.84c-0.65,0-1.18,0.53-1.18,1.18l0,0
			c0,0.65,0.53,1.18,1.18,1.18h14.03C79.52,101.18,80.05,100.65,80.05,100z"/>
		<path id="XMLID_537_" class="st20" d="M71.85,108.19L71.85,108.19c0.65,0,1.18-0.53,1.18-1.18V92.98c0-0.65-0.53-1.18-1.18-1.18
			l0,0c-0.65,0-1.18,0.53-1.18,1.18v14.03C70.67,107.66,71.2,108.19,71.85,108.19z"/>
		<path id="XMLID_536_" class="st18" d="M71.85,104.96L71.85,104.96c0.65,0,1.18-0.53,1.18-1.18v-7.56c0-0.65-0.53-1.18-1.18-1.18
			l0,0c-0.65,0-1.18,0.53-1.18,1.18v7.56C70.67,104.43,71.2,104.96,71.85,104.96z"/>
		<path id="XMLID_535_" class="st18" d="M76.81,100L76.81,100c0-0.65-0.53-1.18-1.18-1.18h-7.56c-0.65,0-1.18,0.53-1.18,1.18l0,0
			c0,0.65,0.53,1.18,1.18,1.18h7.56C76.28,101.18,76.81,100.65,76.81,100z"/>
	</g>
	<g id="XMLID_548_">
		<path id="XMLID_556_" class="st19" d="M242.41,85.18c-2.85,0-5.16,2.31-5.16,5.16s2.31,5.16,5.16,5.16c2.85,0,5.16-2.31,5.16-5.16
			S245.26,85.18,242.41,85.18z"/>
		<path id="XMLID_554_" class="st20" d="M248.46,90.34L248.46,90.34c0-0.48-0.39-0.87-0.87-0.87h-10.36c-0.48,0-0.87,0.39-0.87,0.87
			l0,0c0,0.48,0.39,0.87,0.87,0.87h10.36C248.07,91.22,248.46,90.83,248.46,90.34z"/>
		<path id="XMLID_552_" class="st20" d="M242.41,96.39L242.41,96.39c0.48,0,0.87-0.39,0.87-0.87V85.17c0-0.48-0.39-0.87-0.87-0.87
			l0,0c-0.48,0-0.87,0.39-0.87,0.87v10.36C241.54,96,241.93,96.39,242.41,96.39z"/>
		<path id="XMLID_551_" class="st18" d="M242.41,94.01L242.41,94.01c0.48,0,0.87-0.39,0.87-0.87v-5.58c0-0.48-0.39-0.87-0.87-0.87
			l0,0c-0.48,0-0.87,0.39-0.87,0.87v5.58C241.54,93.62,241.93,94.01,242.41,94.01z"/>
		<path id="XMLID_550_" class="st18" d="M246.07,90.34L246.07,90.34c0-0.48-0.39-0.87-0.87-0.87h-5.58c-0.48,0-0.87,0.39-0.87,0.87
			l0,0c0,0.48,0.39,0.87,0.87,0.87h5.58C245.68,91.22,246.07,90.83,246.07,90.34z"/>
	</g>
	<path id="XMLID_523_" class="st18" d="M142.19,183.51c0.51,1.29,1.96,1.92,3.25,1.42c1.29-0.51,1.92-1.96,1.42-3.25
		c-0.51-1.29-1.96-1.92-3.25-1.42C142.31,180.77,141.68,182.22,142.19,183.51z"/>
	<path id="XMLID_524_" class="st18" d="M280.64,126.84c0.47,1.19,1.81,1.77,3,1.31c1.19-0.47,1.77-1.81,1.31-3
		c-0.47-1.19-1.81-1.77-3-1.31C280.75,124.31,280.17,125.65,280.64,126.84z"/>
	<path class="st0" d="M91.74,34.71c6.61,1.24,19.07-1.87,20.59-9.81c1.35-7.09-8.02-12.32-14.23-11.87
		C87.8,13.77,77.3,31.99,91.74,34.71z"/>
</g>
</svg>
