<?xml version="1.0" encoding="utf-8"?>
<!-- Generator: Adobe Illustrator 24.0.0, SVG Export Plug-In . SVG Version: 6.00 Build 0)  -->
<svg version="1.1" id="Capa_1" xmlns="http://www.w3.org/2000/svg" xmlns:xlink="http://www.w3.org/1999/xlink" x="0px" y="0px"
	 viewBox="0 0 341.29 348.97" style="enable-background:new 0 0 341.29 348.97;" xml:space="preserve">
<style type="text/css">
	.st0{fill:#D0DAE0;}
	.st1{fill:#FF4F28;}
	.st2{fill:#C02C00;}
	.st3{fill:#FFFFFF;}
	.st4{opacity:0.37;fill:#E6F6F8;}
	.st5{opacity:0.36;}
	.st6{fill:url(#SVGID_1_);}
	.st7{fill:url(#SVGID_2_);}
	.st8{fill:url(#SVGID_3_);}
	.st9{opacity:0.3;fill:#FF4F28;}
	.st10{fill:none;}
	.st11{fill:#3E5C6B;}
</style>
<g>
	<path class="st0" d="M303.49,158.34c2.9-18.41,9.6-36.8,7.41-55.9c-3.26-28.39-25.66-50.63-49.48-65.74
		c-27.94-17.72-60.17-29.23-93.08-29.68C112.56,6.24,58.05,39.15,30.11,88.33s-29.15,112.5-5.04,163.73
		c11.16,23.73,29.7,46.46,55.1,51.25c27.18,5.13,53.55-11.39,81.02-14.46c21.97-2.45,43.84,3.78,65.41,8.66
		c12.9,2.92,26.06,5.94,39.37,5.86c13.25-0.08,19.58-5.43,28.57-14.69c16.68-17.17,24.85-42.68,20.16-66.28
		c-2.25-11.34-7.14-21.99-10.3-33.11C301.44,178.89,301.87,168.61,303.49,158.34z"/>
	<path class="st0" d="M149.59,322.4c3.54,4.72,9.67,6.67,15.5,7.56c10.55,1.61,33.51-2.45,31.6-17.45
		c-2.04-16.07-24.62-19.93-36.77-15.6C148.39,301.04,141.28,311.31,149.59,322.4z"/>
	<path class="st1" d="M238.29,266.51c0,0-23.61,22.25-59.01-15.57s-45.82-62.24-33.82-61.98c12,0.26,17.42,7,17.42,7
		s-21.74-20.44-13.39-29.38c8.35-8.94,22.55,5.09,22.55,5.09s-15.09-12.8-7.63-20.52s22,8.44,22,8.44s-10.68-12.42-1.82-18.19
		c8.86-5.76,49.55,31.21,56.84,49.61S238.29,266.51,238.29,266.51z"/>
	<path class="st2" d="M238.29,266.51c0,0-23.61,22.25-59.01-15.57s-45.82-62.24-33.82-61.98c12,0.26,17.42,7,17.42,7
		s-21.74-20.44-13.39-29.38c8.35-8.94,22.55,5.09,22.55,5.09s-15.09-12.8-7.63-20.52s22,8.44,22,8.44s-10.68-12.42-1.82-18.19
		c8.86-5.76,49.55,31.21,56.84,49.61S238.29,266.51,238.29,266.51z"/>
	<path class="st3" d="M259.41,58.42c-0.01-0.34-0.02-0.68-0.07-1.02c-0.01-0.06-0.02-0.12-0.03-0.18c0-0.03,0-0.06-0.01-0.1
		c-0.01-0.05-0.03-0.09-0.04-0.14c-0.07-0.38-0.17-0.76-0.29-1.12c-0.01-0.02-0.01-0.03-0.01-0.05c0,0,0-0.01-0.01-0.01
		c0-0.01,0-0.02-0.01-0.02c-0.13-0.37-0.29-0.72-0.47-1.06c-0.02-0.04-0.03-0.09-0.06-0.13l-0.04-0.08
		c-0.01-0.03-0.03-0.05-0.04-0.08c-0.01-0.03-0.03-0.05-0.04-0.08c-0.01-0.03-0.03-0.05-0.05-0.08l-2.51-4.18
		c0.06,0.1,0.11,0.21,0.17,0.32c-0.09-0.16-0.17-0.32-0.26-0.47c-0.61-0.96-1.41-1.8-2.38-2.45c-0.97-0.65-2.1-1.12-3.36-1.35
		l-131.19-22.9c-1.17-0.21-2.36-0.18-3.5,0.07c-1.14,0.25-2.24,0.71-3.24,1.35c-1,0.64-1.89,1.45-2.62,2.4s-1.31,2.04-1.66,3.22
		L75.4,139.25c-0.16,0.54-0.27,1.09-0.33,1.63c-0.06,0.55-0.08,1.09-0.04,1.63c0.03,0.54,0.11,1.07,0.24,1.58
		c0.13,0.52,0.31,1.02,0.53,1.5l2.41,5.14c0.23,0.48,0.4,0.99,0.53,1.51c0.13,0.52,0.21,1.05,0.25,1.59
		c0.03,0.54,0.02,1.09-0.04,1.64c-0.06,0.55-0.18,1.1-0.34,1.65l-25.47,86.33c-0.37,1.26-0.49,2.53-0.37,3.73
		c0.11,1.2,0.45,2.34,0.99,3.36c0.54,1.02,1.27,1.92,2.17,2.63c0.44,0.35,0.93,0.66,1.45,0.92c-0.01-0.01-0.02-0.01-0.03-0.01
		c-0.18-0.09-0.36-0.19-0.53-0.29c1.41,0.84,2.82,1.69,4.23,2.53c0.17,0.1,0.35,0.2,0.53,0.29c0.18,0.09,0.36,0.17,0.55,0.25
		c0.19,0.08,0.38,0.15,0.58,0.21c0.2,0.06,0.4,0.12,0.6,0.17l124.54,30.02c0.31,0.08,0.62,0.13,0.93,0.18
		c0.1,0.01,0.21,0.02,0.31,0.03c0.18,0.02,0.37,0.04,0.55,0.05c0.02,0,0.04,0,0.06,0c0.12,0,0.25,0,0.37,0c0.18,0,0.37,0,0.55-0.01
		c0.13-0.01,0.26-0.02,0.39-0.04c0.13-0.01,0.27-0.02,0.4-0.04c0.04-0.01,0.08-0.02,0.12-0.02c0.04-0.01,0.07-0.01,0.11-0.01
		c0.09-0.02,0.19-0.04,0.28-0.06c0.17-0.03,0.33-0.07,0.5-0.11c0.13-0.03,0.26-0.07,0.39-0.11c0.1-0.03,0.2-0.05,0.3-0.09
		c0.06-0.02,0.12-0.05,0.17-0.07c0.13-0.05,0.26-0.1,0.38-0.15c0.15-0.06,0.3-0.13,0.46-0.2c0.13-0.06,0.25-0.12,0.37-0.18
		c0.07-0.04,0.15-0.07,0.22-0.11c0.1-0.06,0.2-0.12,0.31-0.18c0.03-0.02,0.05-0.03,0.08-0.05c0.01,0,0.02-0.01,0.02-0.01
		c0.01-0.01,0.02-0.01,0.03-0.02c0.06-0.03,0.11-0.07,0.17-0.1c0.1-0.06,0.2-0.13,0.29-0.2c0.1-0.07,0.19-0.14,0.29-0.21
		c0,0,0,0,0,0c0.08-0.06,0.15-0.12,0.23-0.17c0.07-0.06,0.15-0.12,0.22-0.18c0.07-0.06,0.15-0.12,0.22-0.19
		c0.02-0.01,0.03-0.03,0.05-0.05c0.01-0.01,0.02-0.02,0.03-0.03c0.05-0.04,0.09-0.08,0.14-0.12c0.06-0.06,0.13-0.12,0.19-0.18
		c0.06-0.06,0.12-0.12,0.18-0.19c0.05-0.05,0.1-0.1,0.15-0.16c0,0,0.01-0.01,0.01-0.01c0.01-0.01,0.01-0.01,0.02-0.02
		c0.06-0.06,0.12-0.13,0.17-0.2c0.05-0.06,0.11-0.13,0.16-0.19c0.05-0.06,0.1-0.13,0.16-0.19c0.03-0.04,0.06-0.08,0.09-0.12
		c0,0,0.01-0.01,0.01-0.01c0,0,0-0.01,0.01-0.01c0.01-0.02,0.03-0.04,0.04-0.06c0.05-0.07,0.1-0.13,0.15-0.2
		c0.05-0.07,0.09-0.14,0.14-0.2c0.05-0.07,0.09-0.14,0.14-0.21c0.02-0.03,0.04-0.07,0.06-0.1c0.01-0.01,0.01-0.02,0.02-0.03
		c0.02-0.03,0.04-0.06,0.05-0.08c0.04-0.07,0.08-0.14,0.13-0.22c0.04-0.07,0.08-0.15,0.13-0.23c0.04-0.08,0.08-0.15,0.12-0.23
		c0.01-0.02,0.02-0.05,0.03-0.07c0-0.01,0.01-0.02,0.01-0.03c0.02-0.04,0.04-0.09,0.07-0.13c0.04-0.08,0.07-0.16,0.11-0.24
		c0.04-0.09,0.08-0.18,0.11-0.27c0.03-0.08,0.06-0.16,0.1-0.24c0,0,0-0.01,0.01-0.01c0-0.01,0-0.01,0.01-0.02
		c0.03-0.09,0.07-0.18,0.1-0.28c0.03-0.09,0.06-0.19,0.09-0.28c0.01-0.03,0.02-0.06,0.03-0.09c0.01-0.03,0.02-0.06,0.03-0.09
		s0.02-0.06,0.03-0.09c0.01-0.03,0.02-0.06,0.03-0.1L259.1,60.91c0.02-0.08,0.04-0.16,0.06-0.24c0.02-0.08,0.04-0.16,0.06-0.24
		c0.02-0.08,0.03-0.16,0.05-0.24c0.01-0.05,0.02-0.1,0.03-0.15c0-0.01,0-0.02,0-0.03c0-0.02,0.01-0.04,0.01-0.07
		c0-0.03,0-0.06,0.01-0.09c0.04-0.24,0.07-0.48,0.08-0.72c0.01-0.16,0.01-0.31,0.01-0.47c0-0.05,0.01-0.1,0.01-0.15
		C259.42,58.47,259.41,58.45,259.41,58.42z M57.89,254.31c-0.15-0.06-0.29-0.13-0.43-0.19c0.21,0.1,0.42,0.19,0.64,0.27
		C58.03,254.36,57.96,254.34,57.89,254.31z M58.48,254.52c-0.06-0.02-0.11-0.04-0.17-0.06c0.25,0.09,0.51,0.17,0.78,0.23
		C58.88,254.65,58.67,254.59,58.48,254.52z M256.42,51.57c0.01,0.02,0.01,0.03,0.02,0.04c0.01,0.02,0.01,0.04,0.02,0.07
		c0.01,0.03,0.01,0.06,0.02,0.08C256.46,51.7,256.45,51.64,256.42,51.57z M256.78,55.89c-0.05,0.29-0.11,0.59-0.19,0.89
		c0.08-0.31,0.15-0.61,0.2-0.91C256.79,55.87,256.78,55.88,256.78,55.89z M256.89,55.02c-0.01,0.18-0.04,0.36-0.06,0.55
		c0.03-0.19,0.05-0.38,0.06-0.57C256.89,55,256.89,55.01,256.89,55.02z M256.9,54.6c0-0.12,0.01-0.24,0-0.36c0,0.01,0,0.02,0,0.02
		C256.9,54.37,256.9,54.49,256.9,54.6z"/>
	<g>
		<path class="st3" d="M249.9,46.14c1.26,0.23,2.39,0.7,3.36,1.35c0.97,0.65,1.77,1.49,2.38,2.45c0.61,0.96,1.01,2.05,1.18,3.21
			c0.17,1.16,0.11,2.39-0.23,3.63L196.54,277.6c-0.36,1.32-0.96,2.52-1.74,3.55c-0.78,1.03-1.74,1.9-2.82,2.56
			c-1.08,0.66-2.27,1.12-3.51,1.33c-1.24,0.21-2.54,0.18-3.82-0.13L59.08,254.7c-1.2-0.29-2.26-0.83-3.16-1.54
			c-0.9-0.72-1.63-1.61-2.17-2.63c-0.54-1.02-0.88-2.16-0.99-3.36c-0.11-1.2,0-2.46,0.37-3.73l25.47-86.33
			c0.16-0.55,0.27-1.1,0.34-1.65c0.06-0.55,0.08-1.1,0.04-1.64c-0.03-0.54-0.12-1.07-0.25-1.59c-0.13-0.52-0.31-1.02-0.53-1.51
			l-2.41-5.14c-0.23-0.48-0.4-0.98-0.53-1.5c-0.13-0.52-0.21-1.04-0.24-1.58c-0.03-0.54-0.02-1.08,0.04-1.63
			c0.06-0.55,0.17-1.09,0.33-1.63l32.29-108.97c0.35-1.19,0.92-2.27,1.66-3.22c0.73-0.95,1.63-1.76,2.63-2.4
			c1-0.64,2.1-1.1,3.24-1.35c1.14-0.25,2.33-0.28,3.5-0.07L249.9,46.14z"/>
	</g>
	<path class="st4" d="M58.04,252.67c-0.54-1.02-0.88-2.16-0.99-3.36c-0.11-1.2,0-2.46,0.37-3.73l25.47-86.33
		c0.16-0.55,0.27-1.1,0.34-1.65c0.06-0.55,0.08-1.1,0.04-1.64c-0.03-0.54-0.12-1.07-0.25-1.59c-0.13-0.52-0.31-1.02-0.53-1.51
		l-2.41-5.14c-0.23-0.48-0.4-0.98-0.53-1.5c-0.13-0.52-0.21-1.04-0.24-1.58c-0.03-0.54-0.02-1.08,0.04-1.63
		c0.06-0.55,0.17-1.09,0.33-1.63l32.29-108.97c0.35-1.19,0.92-2.27,1.66-3.22s1.63-1.76,2.62-2.4c1-0.64,2.1-1.1,3.24-1.35
		c1.14-0.25,2.33-0.28,3.5-0.07l131.19,22.9c0.03,0,0.05,0.01,0.08,0.02c-0.31-0.29-0.65-0.57-1.01-0.81
		c-0.97-0.65-2.1-1.12-3.36-1.35l-131.19-22.9c-1.17-0.21-2.36-0.18-3.5,0.07c-1.14,0.25-2.24,0.71-3.24,1.35
		c-1,0.64-1.89,1.45-2.62,2.4s-1.31,2.04-1.66,3.22L75.4,139.25c-0.16,0.54-0.27,1.09-0.33,1.63c-0.06,0.55-0.08,1.09-0.04,1.63
		c0.03,0.54,0.11,1.07,0.24,1.58c0.13,0.52,0.31,1.02,0.53,1.5l2.41,5.14c0.23,0.48,0.4,0.99,0.53,1.51
		c0.13,0.52,0.21,1.05,0.25,1.59c0.03,0.54,0.02,1.09-0.04,1.64c-0.06,0.55-0.18,1.1-0.34,1.65l-25.47,86.33
		c-0.37,1.26-0.49,2.53-0.37,3.73c0.11,1.2,0.45,2.34,0.99,3.36c0.54,1.02,1.27,1.92,2.17,2.63c0.9,0.72,1.96,1.25,3.16,1.54
		l0.62,0.15C59.04,254.22,58.48,253.48,58.04,252.67z"/>
	<g class="st5">
		<linearGradient id="SVGID_1_" gradientUnits="userSpaceOnUse" x1="456.7153" y1="62.1357" x2="137.3571" y2="198.5482">
			<stop  offset="0.2153" style="stop-color:#33758B;stop-opacity:0.7"/>
			<stop  offset="1" style="stop-color:#33758B;stop-opacity:0"/>
		</linearGradient>
		<path class="st6" d="M239.58,119.33L57.28,229.4l-4.14,14.03c-0.37,1.26-0.49,2.53-0.37,3.73c0.11,1.2,0.45,2.34,0.99,3.36
			c0.54,1.02,1.27,1.92,2.17,2.63c0.9,0.72,1.96,1.25,3.16,1.54l19.23,4.63l147.4-89L239.58,119.33z"/>
		<linearGradient id="SVGID_2_" gradientUnits="userSpaceOnUse" x1="432.7621" y1="6.0584" x2="113.4039" y2="142.471">
			<stop  offset="0.2153" style="stop-color:#33758B;stop-opacity:0.7"/>
			<stop  offset="1" style="stop-color:#33758B;stop-opacity:0"/>
		</linearGradient>
		<path class="st7" d="M78.61,157.1l-12.78,43.32l181.5-109.59l9.26-34.06c0.34-1.24,0.4-2.47,0.23-3.63
			c-0.17-1.16-0.58-2.25-1.18-3.21c-0.61-0.96-1.41-1.8-2.38-2.45c-0.81-0.54-1.73-0.95-2.75-1.21L78.06,150.4l0.15,0.31
			c0.23,0.48,0.4,0.99,0.53,1.51c0.13,0.52,0.21,1.05,0.25,1.59c0.03,0.54,0.02,1.09-0.04,1.64C78.88,156,78.77,156.55,78.61,157.1z
			"/>
		<linearGradient id="SVGID_3_" gradientUnits="userSpaceOnUse" x1="411.0488" y1="-44.7752" x2="91.6905" y2="91.6373">
			<stop  offset="0.2153" style="stop-color:#33758B;stop-opacity:0.7"/>
			<stop  offset="1" style="stop-color:#33758B;stop-opacity:0"/>
		</linearGradient>
		<polygon class="st8" points="94.77,73.87 79.39,125.78 219.95,40.91 165.19,31.35 		"/>
	</g>
	<path class="st1" d="M330.94,286.72c-2.02-3.59-5.1-6.82-8.19-9.84c-5.75-5.63-11.51-11.26-17.26-16.89
		c-8.3-8.12-16.68-16.17-24.89-24.38c-1.07-1.07-6.44-4.29-13.95,0c0,0,2.15-39.71-22.54-51.52s-34.34-15.03-38.64-6.44
		s4.29,17.17,23.61,22.54c0,0,4.29,5.37,0,8.59c-6.53,4.9-8.92,16.3-9.37,23.86c-0.14,2.39-0.28,4.84,0.36,7.15
		c1.21,4.4,4.97,7.56,8.53,10.42c-3.54-0.41-7.17-0.57-10.62,0.32c-3.45,0.88-6.73,2.92-8.46,6.03c-1.62,2.92-1.7,6.65-0.2,9.63
		c2.75,5.47,7.98,5.8,13.32,4.83c0,0,0,5.37-2.15,9.66c-2.15,4.29-4.29,8.59,2.15,18.25s33.27,38.64,33.27,38.64
		s20.39,17.17,53.66-9.66c9.02-7.27,18.91-16.32,22.8-27.62C334.14,295.16,333.19,290.71,330.94,286.72z"/>
	<path class="st2" d="M245.19,312.88c-11.81-8.59-28.98-31.12-12.88-40.78c6.44-3.22,16.1,0,20.39-3.22
		c11.18-10.25,13.47-28.59,27.94-33.24c-0.01-0.01-0.02-0.02-0.03-0.03c-1.07-1.07-6.44-4.29-13.95,0c0,0,0.39-7.25-1.09-16.48
		c-2.55,11.63-8.36,22.31-17.15,30.43c-3.22,4.29-13.95,11.81-18.25,4.29c2.15,6.44-4.29,10.73-9.66,12.88
		c-4.52,0.9-8.28-1.23-11.91-2.57c0.18,0.7,0.41,1.39,0.74,2.04c2.75,5.47,7.98,5.8,13.32,4.83c0,0,0,5.37-2.15,9.66
		c-2.15,4.29-4.29,8.59,2.15,18.25s33.27,38.64,33.27,38.64s20.39,17.17,53.66-9.66c2.53-2.04,5.13-4.23,7.65-6.56
		C293.86,330.99,266.23,328.86,245.19,312.88z"/>
	<path class="st9" d="M228.83,172.45c-15.03-17.25-37.85-35.19-44.22-31.05c-8.86,5.76,1.82,18.19,1.82,18.19s-14.54-16.15-22-8.44
		c-6.18,6.39,3.1,16.26,6.48,19.47c-3.54-3.08-14.47-11.45-21.4-4.04c-7.06,7.56,7.4,23.34,12.03,28.03
		c-2.28-1.98-7.48-5.47-16.06-5.65c-12-0.26-1.57,24.16,33.82,61.98c8.52,9.11,16.36,14.72,23.35,18.01L228.83,172.45z"/>
	<g>
		<path class="st10" d="M249.9,46.14c1.26,0.23,2.39,0.7,3.36,1.35c0.97,0.65,1.77,1.49,2.38,2.45c0.61,0.96,1.01,2.05,1.18,3.21
			c0.17,1.16,0.11,2.39-0.23,3.63L196.54,277.6c-0.36,1.32-0.96,2.52-1.74,3.55c-0.78,1.03-1.74,1.9-2.82,2.56
			c-1.08,0.66-2.27,1.12-3.51,1.33c-1.24,0.21-2.54,0.18-3.82-0.13L59.08,254.7c-1.2-0.29-2.26-0.83-3.16-1.54
			c-0.9-0.72-1.63-1.61-2.17-2.63c-0.54-1.02-0.88-2.16-0.99-3.36c-0.11-1.2,0-2.46,0.37-3.73l25.47-86.33
			c0.16-0.55,0.27-1.1,0.34-1.65c0.06-0.55,0.08-1.1,0.04-1.64c-0.03-0.54-0.12-1.07-0.25-1.59c-0.13-0.52-0.31-1.02-0.53-1.51
			l-2.41-5.14c-0.23-0.48-0.4-0.98-0.53-1.5c-0.13-0.52-0.21-1.04-0.24-1.58c-0.03-0.54-0.02-1.08,0.04-1.63
			c0.06-0.55,0.17-1.09,0.33-1.63l32.29-108.97c0.35-1.19,0.92-2.27,1.66-3.22c0.73-0.95,1.63-1.76,2.63-2.4
			c1-0.64,2.1-1.1,3.24-1.35c1.14-0.25,2.33-0.28,3.5-0.07L249.9,46.14z"/>
	</g>
	<g>
		<path class="st11" d="M127.1,127.75c2.52,4.37,5.92,8.21,10.04,11.25c4.13,3.05,8.99,5.29,14.42,6.44
			c1.24,0.26,2.49,0.47,3.76,0.61c1.26,0.14,2.54,0.23,3.82,0.26c1.28,0.03,2.57-0.01,3.86-0.1c1.29-0.09,2.58-0.25,3.87-0.46
			l-4.19-40.49l39.96,8.04c1.49-5.54,1.78-11.05,1.03-16.26c-0.75-5.2-2.54-10.09-5.19-14.42c-2.64-4.31-6.15-8.07-10.35-10.99
			c-4.19-2.92-9.07-5.02-14.48-6.05c-5.39-1.02-10.84-0.89-16.07,0.22c-5.22,1.11-10.23,3.19-14.76,6.07
			c-4.52,2.88-8.57,6.56-11.86,10.86c-3.3,4.31-5.85,9.25-7.38,14.66c-1.53,5.42-1.91,10.82-1.28,15.96
			C122.93,118.5,124.58,123.39,127.1,127.75z"/>
		<path class="st11" d="M134.99,219.63c-0.2-0.35-0.47-0.67-0.79-0.91s-0.7-0.43-1.13-0.53l-27.42-6.42
			c-0.42-0.1-0.84-0.1-1.25-0.03c-0.41,0.08-0.8,0.23-1.15,0.45c-0.35,0.22-0.67,0.51-0.93,0.85c-0.26,0.34-0.46,0.74-0.58,1.17
			c-0.12,0.44-0.16,0.87-0.11,1.29c0.05,0.41,0.17,0.81,0.36,1.16c0.19,0.35,0.45,0.66,0.77,0.9c0.32,0.25,0.69,0.43,1.11,0.53
			l27.44,6.48c0.43,0.1,0.85,0.11,1.27,0.03c0.41-0.07,0.81-0.23,1.17-0.45c0.36-0.22,0.68-0.51,0.94-0.86
			c0.26-0.35,0.46-0.75,0.58-1.19c0.12-0.44,0.15-0.88,0.1-1.3C135.32,220.38,135.19,219.98,134.99,219.63z"/>
		<path class="st11" d="M210.61,149.05c-0.13-0.89-0.43-1.72-0.89-2.47c-0.45-0.74-1.06-1.4-1.78-1.91
			c-0.72-0.51-1.57-0.89-2.51-1.09c-0.94-0.2-1.89-0.19-2.79-0.02c-0.91,0.17-1.77,0.52-2.55,1c-0.78,0.48-1.47,1.11-2.03,1.85
			c-0.56,0.74-0.99,1.59-1.24,2.52c-0.1,0.38-0.17,0.76-0.21,1.14c-0.04,0.38-0.04,0.75-0.02,1.12c0.02,0.37,0.08,0.73,0.16,1.08
			c0.08,0.35,0.19,0.69,0.33,1.02l-19.27,14.96c-0.18-0.14-0.38-0.28-0.58-0.4c-0.2-0.12-0.41-0.24-0.63-0.34
			c-0.22-0.1-0.44-0.19-0.67-0.27c-0.23-0.08-0.47-0.14-0.72-0.2c-0.78-0.17-1.57-0.2-2.34-0.1c-0.77,0.1-1.51,0.32-2.2,0.65
			c-0.69,0.33-1.34,0.77-1.9,1.29c-0.57,0.53-1.06,1.14-1.44,1.83l-27.13-5.94c0.02-0.76-0.09-1.51-0.32-2.2
			c-0.22-0.69-0.56-1.34-1-1.91c-0.44-0.57-0.97-1.07-1.59-1.46c-0.62-0.4-1.32-0.69-2.08-0.86c-0.91-0.2-1.83-0.2-2.71-0.03
			c-0.88,0.17-1.73,0.5-2.49,0.98c-0.76,0.48-1.45,1.09-2.01,1.82c-0.56,0.73-0.99,1.57-1.25,2.5c-0.05,0.17-0.09,0.33-0.12,0.5
			s-0.06,0.33-0.08,0.49c-0.02,0.16-0.04,0.33-0.05,0.49c-0.01,0.16-0.01,0.33-0.01,0.49l-25.63,8.59c-0.21-0.36-0.45-0.7-0.73-1.02
			c-0.28-0.31-0.59-0.6-0.92-0.85c-0.34-0.25-0.71-0.47-1.1-0.65c-0.39-0.18-0.81-0.32-1.26-0.42c-0.9-0.2-1.8-0.2-2.67-0.04
			c-0.87,0.17-1.71,0.5-2.46,0.97c-0.76,0.47-1.43,1.09-1.99,1.81c-0.55,0.73-0.99,1.56-1.25,2.49c-0.26,0.92-0.33,1.84-0.23,2.72
			c0.1,0.87,0.37,1.7,0.78,2.44c0.41,0.74,0.97,1.39,1.65,1.9c0.68,0.52,1.48,0.9,2.37,1.1c0.9,0.2,1.8,0.21,2.68,0.05
			c0.87-0.16,1.72-0.5,2.48-0.97c0.76-0.47,1.44-1.09,2-1.82c0.56-0.73,0.99-1.57,1.25-2.5c0.05-0.17,0.09-0.33,0.12-0.5
			s0.06-0.33,0.08-0.49c0.02-0.16,0.04-0.33,0.05-0.49c0.01-0.16,0.01-0.33,0.01-0.49l25.66-8.58c0.21,0.36,0.46,0.71,0.74,1.02
			c0.28,0.31,0.6,0.6,0.94,0.86c0.34,0.25,0.72,0.48,1.12,0.66c0.4,0.18,0.83,0.33,1.28,0.43c0.77,0.17,1.54,0.2,2.3,0.1
			c0.76-0.1,1.49-0.32,2.18-0.64c0.69-0.33,1.32-0.76,1.89-1.29c0.56-0.52,1.05-1.14,1.44-1.83l27.13,5.97
			c-0.01,0.77,0.1,1.53,0.33,2.23c0.23,0.71,0.58,1.36,1.02,1.94c0.45,0.58,0.99,1.09,1.62,1.49c0.63,0.41,1.35,0.71,2.13,0.88
			c0.93,0.21,1.87,0.21,2.78,0.05c0.9-0.17,1.77-0.51,2.55-0.99c0.78-0.48,1.48-1.11,2.04-1.85c0.56-0.74,1-1.6,1.25-2.54
			c0.1-0.38,0.17-0.77,0.21-1.15c0.04-0.38,0.04-0.75,0.02-1.12c-0.02-0.37-0.08-0.73-0.16-1.08c-0.08-0.35-0.19-0.69-0.33-1.02
			l19.3-14.97c0.19,0.14,0.38,0.27,0.59,0.39c0.2,0.12,0.42,0.23,0.64,0.33c0.22,0.1,0.45,0.19,0.68,0.27
			c0.23,0.08,0.48,0.14,0.72,0.2c0.94,0.2,1.89,0.2,2.8,0.03c0.91-0.17,1.78-0.51,2.56-1c0.78-0.48,1.48-1.11,2.04-1.85
			c0.56-0.74,1-1.6,1.25-2.54C210.69,150.88,210.74,149.94,210.61,149.05z"/>
		<path class="st11" d="M167.06,216.9c-0.2-0.36-0.48-0.67-0.81-0.92c-0.33-0.25-0.72-0.43-1.15-0.53l-56.8-13.15
			c-0.42-0.1-0.84-0.1-1.25-0.03c-0.41,0.08-0.8,0.23-1.15,0.45c-0.35,0.22-0.67,0.51-0.93,0.85c-0.26,0.34-0.46,0.74-0.58,1.17
			c-0.12,0.43-0.15,0.87-0.11,1.28c0.05,0.41,0.17,0.8,0.37,1.15c0.19,0.35,0.45,0.65,0.77,0.9c0.32,0.24,0.69,0.42,1.11,0.52
			l56.82,13.26c0.43,0.1,0.87,0.11,1.28,0.03c0.42-0.08,0.82-0.23,1.18-0.46c0.36-0.22,0.68-0.52,0.95-0.86
			c0.26-0.35,0.46-0.75,0.58-1.19c0.12-0.44,0.15-0.89,0.09-1.31C167.39,217.65,167.26,217.26,167.06,216.9z"/>
		<path class="st11" d="M169.66,207.29c-0.2-0.35-0.48-0.66-0.81-0.91c-0.33-0.25-0.72-0.43-1.15-0.53l-56.75-12.98
			c-0.42-0.1-0.84-0.1-1.25-0.02c-0.41,0.08-0.8,0.23-1.15,0.45s-0.67,0.51-0.93,0.85c-0.26,0.34-0.46,0.73-0.58,1.17
			c-0.12,0.43-0.15,0.87-0.11,1.28c0.05,0.41,0.17,0.8,0.37,1.15c0.19,0.35,0.45,0.65,0.77,0.89c0.32,0.24,0.69,0.42,1.11,0.52
			l56.78,13.09c0.43,0.1,0.87,0.1,1.28,0.03c0.42-0.08,0.82-0.23,1.18-0.46c0.36-0.22,0.68-0.52,0.94-0.86
			c0.26-0.35,0.46-0.75,0.58-1.19c0.12-0.44,0.15-0.88,0.09-1.3C170,208.04,169.86,207.64,169.66,207.29z"/>
	</g>
</g>
</svg>
