<svg xmlns="http://www.w3.org/2000/svg" width="173" height="36" viewBox="0 0 173 36" fill="none"><path d="M54.1143 0.99157C50.6101 -1.00326 46.1471 0.10901 44.0088 3.45548L25.7866 34.6159V34.6183H25.7891C25.8062 34.628 25.821 34.6377 25.8357 34.6473C29.3398 36.6422 33.8028 35.5299 35.9411 32.1834L36.0833 31.9392L54.1633 1.02059C54.1633 1.02059 54.129 1.00124 54.1143 0.99157Z" fill="#F34F36"></path><path d="M34.2934 12.8685C30.7892 10.8737 26.3262 11.986 24.1879 15.3324L24.0457 15.5767L12.8711 34.6158V34.6182H12.8735C12.8907 34.6279 12.9054 34.6375 12.9201 34.6472C16.4243 36.642 20.8873 35.5298 23.0256 32.1833L34.3424 12.9C34.3424 12.8975 34.3106 12.8782 34.2934 12.8685Z" fill="#F34F36"></path><path d="M14.512 24.7745C14.4949 24.7648 14.4777 24.7551 14.463 24.7455C10.9588 22.7506 6.49584 23.8629 4.35753 27.2094L0 34.6108V34.6132H0.00245219C0.0196175 34.6229 0.0343306 34.6326 0.0490437 34.6423C3.55322 36.6371 8.0162 35.5248 10.1545 32.1783L14.512 24.7745Z" fill="#F34F36"></path><path d="M127.796 17.1248C128.608 17.1248 129.375 16.7935 129.964 16.2398C130.802 15.4491 132.232 14.9655 133.684 14.9655C136.021 14.9655 137.406 15.8239 137.406 16.8781C137.406 18.5175 134.991 18.9092 131.585 19.2212C127.07 19.6129 123.228 20.7832 123.228 25.312C123.228 29.6861 127.188 31.8333 131.504 31.8333C134.356 31.8333 136.415 30.9749 137.762 29.5677C138.147 30.6509 139.478 31.8164 140.883 31.8164H142.509C142.509 31.8164 142.509 28.4288 142.509 28.1604V17.7002C142.509 16.0995 141.842 10.8284 133.563 10.8284C128.159 10.8284 124.704 13.7058 124.069 17.1272L127.796 17.1248ZM137.605 23.6364C137.605 26.2139 135.069 27.2682 131.943 27.2682C129.844 27.2682 128.497 26.4872 128.497 25.3555C128.497 23.8709 130.076 23.2833 132.656 23.0512C135.488 22.7973 136.499 22.0115 137.607 21.3079L137.605 23.6364Z" fill="#322C2E"></path><path d="M93.8296 17.1248C93.0915 17.1248 92.3705 16.8733 91.8237 16.3873C91.1175 15.7611 90.0802 15.4177 88.935 15.4177C86.5319 15.4177 85.5461 16.2712 85.5461 17.0111C85.5461 18.0606 87.0419 18.4087 89.5652 18.798C94.6069 19.6129 98.2312 20.701 98.2312 25.0509C98.2312 29.014 94.5284 31.8091 89.3273 31.8091C84.4426 31.8091 80.757 29.4081 79.8423 25.4934H84.141C84.83 25.4934 85.4921 25.7279 86.039 26.1414C86.9855 26.8596 88.2827 27.1473 89.3273 27.1473C91.4142 27.1473 92.9909 26.5259 92.9909 25.3604C92.9909 24.2336 92.2822 23.767 88.7364 23.2229C85.112 22.6789 80.2665 21.7069 80.2665 17.2409C80.2665 14.0951 83.0645 10.8308 88.9326 10.8308C93.3122 10.8308 96.4362 12.2961 97.6893 17.1224L93.8296 17.1248Z" fill="#322C2E"></path><path d="M105.974 21.3588C105.974 18.1574 108.292 15.563 111.151 15.563C112.198 15.563 113.174 15.9111 113.988 16.5132C114.523 16.9074 115.17 17.125 115.837 17.125H120.707C119.098 13.4158 115.425 10.8237 111.148 10.8237C105.391 10.8237 100.724 15.5243 100.724 21.3226C100.724 27.1209 105.391 31.8214 111.148 31.8214C115.435 31.8214 119.116 29.2173 120.717 25.496H115.967C115.278 25.496 114.613 25.7281 114.069 26.144C113.238 26.7824 112.232 27.1547 111.148 27.1547C108.292 27.1547 105.974 24.5602 105.974 21.3588Z" fill="#322C2E"></path><path d="M150.539 3.80811C150.527 3.80811 150.515 3.80811 150.502 3.80811C147.891 3.80811 145.76 5.85129 145.659 8.40225V31.8542C145.671 31.8542 145.684 31.8542 145.696 31.8542C148.308 31.8542 150.438 29.811 150.539 27.26V3.80811Z" fill="#322C2E"></path><path d="M72.7438 25.4922C72.0498 25.4922 71.3681 25.7122 70.8311 26.1475C69.8355 26.9551 68.1631 27.3613 67.0719 27.3613H67.0645C64.6246 27.3613 62.6579 25.8476 61.9885 23.4007L77.295 23.4031C78.043 15.4818 73.0871 10.832 67.1062 10.832C61.4 10.832 56.7188 15.6341 56.7188 21.4203C56.7188 27.2065 61.4 31.8079 67.1038 31.8079H67.1136C72.0449 31.8079 76.0273 29.4673 76.9223 25.4922H72.7438ZM62.0694 19.2079C62.8173 16.8794 64.7055 15.402 67.067 15.402C69.5461 15.402 71.5128 16.877 72.143 19.2079H62.0694Z" fill="#322C2E"></path><path d="M158.253 17.1248C159.064 17.1248 159.832 16.7935 160.42 16.2398C161.259 15.4491 162.689 14.9655 164.14 14.9655C166.477 14.9655 167.863 15.8239 167.863 16.8781C167.863 18.5175 165.447 18.9092 162.041 19.2212C157.527 19.6129 153.684 20.7832 153.684 25.312C153.684 29.6861 157.644 31.8333 161.96 31.8333C164.812 31.8333 166.872 30.9749 168.218 29.5677C168.603 30.6509 169.935 31.8164 171.34 31.8164H172.966C172.966 31.8164 172.966 28.4288 172.966 28.1604V17.7002C172.966 16.0995 172.299 10.8284 164.02 10.8284C158.615 10.8284 155.16 13.7058 154.525 17.1272L158.253 17.1248ZM168.059 23.6364C168.059 26.2139 165.523 27.2682 162.397 27.2682C160.298 27.2682 158.951 26.4872 158.951 25.3555C158.951 23.8709 160.531 23.2833 163.11 23.0512C165.943 22.7973 166.953 22.0115 168.061 21.3079L168.059 23.6364Z" fill="#322C2E"></path></svg>